<svg width="210" height="80" viewBox="0 0 210 80" fill="none" xmlns="http://www.w3.org/2000/svg">
<path fill-rule="evenodd" clip-rule="evenodd" d="M107.702 40.7315C107.961 40.9828 108.3 41.1273 108.655 41.1374C109.01 41.1476 109.357 41.0228 109.629 40.7867L117.339 34.0973C117.634 33.8413 117.818 33.4747 117.852 33.0781C117.885 32.6815 117.765 32.2874 117.517 31.9826C117.269 31.6777 116.915 31.4871 116.531 31.4526C116.147 31.418 115.766 31.5425 115.471 31.7985L108.749 37.6324L106.66 35.6048C106.522 35.4675 106.358 35.36 106.179 35.2885C106 35.217 105.809 35.1829 105.618 35.1881C105.426 35.1934 105.237 35.2379 105.062 35.319C104.887 35.4002 104.729 35.5165 104.598 35.6611C104.466 35.8057 104.364 35.9758 104.297 36.1616C104.229 36.3473 104.198 36.545 104.205 36.7432C104.212 36.9415 104.257 37.1363 104.338 37.3164C104.418 37.4966 104.532 37.6585 104.673 37.7928L107.702 40.7323V40.7315ZM100.77 36.2921C100.77 34.1931 101.372 32.1412 102.5 30.3959C103.628 28.6506 105.232 27.2904 107.108 26.4872C108.984 25.6839 111.048 25.4738 113.039 25.8834C115.03 26.293 116.86 27.3038 118.295 28.7881C119.731 30.2724 120.709 32.1635 121.105 34.2222C121.501 36.281 121.297 38.4148 120.52 40.354C119.743 42.2932 118.427 43.9507 116.739 45.1167C115.05 46.2827 113.065 46.905 111.035 46.9048C108.313 46.9015 105.704 45.7822 103.78 43.7927C101.856 41.8031 100.773 39.1056 100.77 36.2921ZM97.867 36.2921C97.867 33.5994 98.6394 30.9673 100.086 28.7284C101.533 26.4896 103.59 24.7446 105.997 23.7143C108.403 22.6839 111.051 22.4143 113.605 22.9397C116.16 23.4651 118.506 24.7618 120.348 26.6658C122.19 28.5699 123.444 30.9958 123.952 33.6367C124.46 36.2776 124.199 39.015 123.202 41.5026C122.205 43.9903 120.517 46.1164 118.352 47.6122C116.186 49.1081 113.64 49.9063 111.035 49.9062C107.544 49.9019 104.197 48.4662 101.728 45.9139C99.2594 43.3617 97.8709 39.9014 97.867 36.2921ZM90.9373 34.1206C92.5014 34.1206 93.8623 32.8754 94.7696 30.6142C95.5389 28.6943 96.1561 25.293 94.7043 23.7925C94.2261 23.2982 93.9575 22.6278 93.9575 21.9288C93.9575 21.2298 94.2261 20.5594 94.7043 20.0651C95.1824 19.5709 95.8308 19.2932 96.507 19.2932C97.1832 19.2932 97.8316 19.5709 98.3097 20.0651C99.4166 21.2094 101.23 21.3242 103.412 20.3893C105.272 19.5934 108.037 17.6382 108.037 15.5151C108.037 14.8161 108.306 14.1457 108.784 13.6514C109.262 13.1571 109.911 12.8795 110.587 12.8795C111.263 12.8795 111.911 13.1571 112.39 13.6514C112.868 14.1457 113.136 14.8161 113.136 15.5151C113.136 17.4763 115.802 19.1409 117.377 19.8157C119.785 20.8461 121.881 20.6973 123.127 19.4086C123.364 19.1639 123.645 18.9697 123.954 18.8373C124.263 18.7048 124.595 18.6366 124.93 18.6366C125.265 18.6366 125.596 18.7048 125.905 18.8373C126.215 18.9697 126.496 19.1639 126.733 19.4086C126.969 19.6533 127.157 19.9439 127.285 20.2637C127.413 20.5834 127.479 20.9261 127.479 21.2723C127.479 21.6184 127.413 21.9611 127.285 22.2809C127.157 22.6006 126.969 22.8912 126.733 23.1359C125.626 24.2802 125.515 26.1534 126.419 28.4112C127.188 30.333 129.081 33.1922 131.135 33.1924C131.469 33.1924 131.801 33.2606 132.11 33.393C132.42 33.5255 132.701 33.7196 132.937 33.9644C133.174 34.2091 133.362 34.4997 133.49 34.8194C133.618 35.1392 133.684 35.4819 133.684 35.828C133.684 36.1741 133.618 36.5168 133.49 36.8366C133.362 37.1564 133.174 37.4469 132.937 37.6917C132.701 37.9364 132.42 38.1305 132.11 38.263C131.801 38.3954 131.469 38.4636 131.135 38.4636C129.569 38.4636 128.208 39.709 127.302 41.9715C126.533 43.8908 125.916 47.2914 127.368 48.7925C127.84 49.2881 128.103 49.9564 128.1 50.6519C128.098 51.3473 127.829 52.0135 127.354 52.5053C126.878 52.9971 126.234 53.2746 125.561 53.2773C124.888 53.2801 124.242 53.0079 123.762 52.52C122.655 51.3757 120.845 51.2605 118.66 52.1956C116.802 52.992 114.034 54.947 114.034 57.0701C114.034 57.7691 113.766 58.4394 113.288 58.9337C112.81 59.428 112.161 59.7057 111.485 59.7057C110.809 59.7057 110.16 59.428 109.682 58.9337C109.204 58.4394 108.936 57.7691 108.936 57.0701C108.936 55.4523 107.731 54.0452 105.542 53.1086C104.308 52.5839 102.99 52.2992 101.656 52.2688C100.583 52.2688 99.5855 52.5145 98.9448 53.1763C98.4666 53.6707 97.8181 53.9484 97.1418 53.9484C96.4656 53.9483 95.8171 53.6706 95.3389 53.1763C94.8607 52.6819 94.5921 52.0114 94.5921 51.3123C94.5921 50.6132 94.8608 49.9428 95.339 49.4485C96.4459 48.3042 96.5565 46.4313 95.6529 44.1743C94.8817 42.2521 92.9912 39.392 90.9369 39.3921C90.2661 39.3839 89.6254 39.1026 89.1538 38.6092C88.6822 38.1158 88.4178 37.4502 88.4178 36.7566C88.4178 36.063 88.6822 35.3973 89.1538 34.9039C89.6254 34.4106 90.2661 34.1293 90.9369 34.121L90.9373 34.1206ZM91.7593 30.1638C92.6323 28.5694 92.828 26.4063 92.603 25.8632C91.5955 24.7978 91.037 23.3633 91.0497 21.8733C91.0624 20.3834 91.6452 18.9593 92.6708 17.9123C93.6963 16.8654 95.0812 16.2809 96.5225 16.2866C97.9637 16.2923 99.3442 16.8878 100.362 17.9428C100.393 17.9745 100.707 18.0972 101.451 17.9096C103.156 17.4796 104.906 16.0371 105.134 15.4419C105.152 13.969 105.727 12.5619 106.736 11.5218C107.745 10.4817 109.108 9.89132 110.533 9.87695C111.958 9.86258 113.332 10.4254 114.36 11.4449C115.388 12.4645 115.99 13.8597 116.036 15.332C116.388 15.876 118.124 17.1562 119.79 17.4455C120.397 17.5504 120.875 17.4909 121.075 17.2862C121.581 16.7629 122.182 16.3478 122.844 16.0646C123.505 15.7814 124.214 15.6357 124.93 15.6358C125.646 15.6359 126.355 15.7817 127.017 16.0651C127.678 16.3484 128.279 16.7637 128.786 17.2872C129.292 17.8107 129.693 18.4321 129.967 19.116C130.241 19.7999 130.382 20.5329 130.382 21.2731C130.382 22.0133 130.241 22.7463 129.967 23.4301C129.693 24.114 129.291 24.7353 128.785 25.2587C128.754 25.2904 128.636 25.6151 128.817 26.3842C129.233 28.1475 130.628 29.9566 131.205 30.1922C132.651 30.2019 134.035 30.8051 135.051 31.8691C136.067 32.9331 136.632 34.3707 136.623 35.8657C136.613 37.3607 136.03 38.7907 135.001 39.8409C133.971 40.8912 132.581 41.4758 131.135 41.4661C131.084 41.4689 130.737 41.6462 130.314 42.4149C129.438 44.0107 129.242 46.1779 129.469 46.7219C130.474 47.7879 131.03 49.2215 131.016 50.7098C131.002 52.1981 130.419 53.6204 129.395 54.6662C128.37 55.712 126.987 56.2965 125.548 56.2921C124.108 56.2877 122.728 55.6948 121.71 54.6427C121.679 54.6108 121.365 54.4885 120.623 54.6757C118.917 55.1049 117.166 56.5484 116.938 57.1442C116.921 58.6344 116.335 60.0572 115.306 61.1015C114.278 62.1457 112.891 62.7265 111.45 62.7168C110.008 62.7071 108.629 62.1077 107.614 61.0496C106.599 59.9915 106.03 58.5609 106.032 57.0706C106.029 57.0181 105.858 56.6602 105.114 56.2239C103.57 55.3176 101.474 55.115 100.948 55.3497C99.9163 56.3862 98.5302 56.9591 97.0916 56.9437C95.653 56.9283 94.2787 56.3257 93.268 55.2673C92.2573 54.2089 91.6922 52.7804 91.6957 51.2932C91.6993 49.8059 92.2713 48.3804 93.2871 47.3272C93.3163 47.2953 93.4359 46.9725 93.2545 46.2047C92.8391 44.4414 91.4436 42.631 90.8665 42.3943C89.4251 42.3772 88.0489 41.7708 87.0387 40.7077C86.0286 39.6445 85.4668 38.2111 85.4761 36.7209C85.4855 35.2307 86.0653 33.805 87.0886 32.7554C88.112 31.7059 89.4958 31.118 90.9373 31.1203C90.9881 31.117 91.3365 30.938 91.7593 30.1648V30.1638ZM150.049 67.746L145.118 62.9063C144.979 62.7705 144.816 62.6642 144.638 62.5935C144.46 62.5228 144.271 62.489 144.08 62.4941C143.889 62.4992 143.702 62.543 143.527 62.6231C143.353 62.7033 143.196 62.8181 143.065 62.961C142.933 63.104 142.83 63.2723 142.762 63.4563C142.694 63.6403 142.661 63.8365 142.666 64.0335C142.671 64.2306 142.713 64.4248 142.791 64.6049C142.868 64.785 142.979 64.9476 143.118 65.0834L145.411 67.3344H131.606C131.221 67.3344 130.852 67.4925 130.58 67.774C130.308 68.0554 130.155 68.4371 130.155 68.8351C130.155 69.2331 130.308 69.6148 130.58 69.8963C130.852 70.1777 131.221 70.3358 131.606 70.3358H144.914L143.11 71.8277C142.81 72.0764 142.617 72.4384 142.575 72.834C142.533 73.2296 142.644 73.6264 142.884 73.9372C143.125 74.2479 143.475 74.4471 143.858 74.4909C144.241 74.5347 144.624 74.4196 144.925 74.1708L149.956 70.0062C150.118 69.8721 150.25 69.7038 150.343 69.5126C150.437 69.3215 150.49 69.1119 150.499 68.8978C150.507 68.6838 150.472 68.4703 150.394 68.2716C150.317 68.073 150.199 67.8938 150.049 67.746H150.049ZM110.273 70.3354H61.9516C61.5666 70.3354 61.1974 70.1773 60.9252 69.8959C60.6529 69.6144 60.5 69.2327 60.5 68.8347C60.5 68.4367 60.6529 68.055 60.9252 67.7736C61.1974 67.4921 61.5666 67.334 61.9516 67.334H110.273C126.229 67.334 139.211 53.9139 139.211 37.418C139.211 20.922 126.23 7.50138 110.273 7.50138C94.3154 7.50138 81.3346 20.9219 81.3346 37.4176C81.3359 41.2271 82.0386 45.0015 83.405 48.5394L84.0874 45.8295C84.1844 45.4442 84.4255 45.1146 84.7576 44.913C85.0897 44.7114 85.4856 44.6545 85.8583 44.7548C86.231 44.855 86.5499 45.1042 86.7449 45.4475C86.9399 45.7909 86.9949 46.2002 86.898 46.5855L85.2179 53.2583C85.1642 53.4719 85.0655 53.6707 84.9289 53.8404C84.7924 54.01 84.6213 54.1465 84.4279 54.24C84.2345 54.3335 84.0235 54.3817 83.81 54.3813C83.5965 54.3808 83.3857 54.3317 83.1927 54.2373L76.891 51.1575C76.5465 50.9852 76.2818 50.6792 76.1544 50.3061C76.0271 49.9329 76.0474 49.5229 76.211 49.1652C76.3746 48.8075 76.6682 48.5311 77.028 48.3961C77.3877 48.2611 77.7845 48.2784 78.132 48.4443L80.7322 49.7156C79.2134 45.8056 78.4324 41.6313 78.4314 37.4178C78.4314 19.2668 92.7154 4.5 110.273 4.5C127.83 4.5 142.114 19.267 142.114 37.4178C142.114 55.5686 127.83 70.3354 110.273 70.3354Z" fill="#1F7A63"/>
<path fill-rule="evenodd" clip-rule="evenodd" d="M90.9371 39.3921C92.9914 39.3921 94.8819 42.2521 95.6531 44.1743C96.5567 46.4313 96.4461 48.3045 95.3392 49.4484C95.1025 49.6932 94.9147 49.9837 94.7865 50.3035C94.6584 50.6233 94.5925 50.966 94.5925 51.3121C94.5925 51.6582 94.6584 52.001 94.7865 52.3207C94.9147 52.6405 95.1025 52.931 95.3392 53.1758C95.5759 53.4205 95.857 53.6147 96.1663 53.7471C96.4756 53.8796 96.8071 53.9477 97.1419 53.9477C97.4767 53.9477 97.8083 53.8796 98.1176 53.7471C98.4269 53.6147 98.7079 53.4205 98.9447 53.1758C99.5854 52.514 100.583 52.2682 101.656 52.2682C102.99 52.2986 104.308 52.5833 105.542 53.1081C107.731 54.0447 108.935 55.4518 108.935 57.0695C108.935 57.7685 109.204 58.4389 109.682 58.9332C110.16 59.4274 110.809 59.7051 111.485 59.7051C112.161 59.7051 112.809 59.4274 113.288 58.9332C113.766 58.4389 114.034 57.7685 114.034 57.0695C114.034 54.9464 116.801 52.9914 118.66 52.1951C120.844 51.26 122.655 51.3755 123.762 52.5194C124.241 53.0073 124.888 53.2795 125.561 53.2767C126.233 53.274 126.878 52.9965 127.353 52.5047C127.829 52.0129 128.098 51.3467 128.1 50.6513C128.103 49.9558 127.839 49.2875 127.367 48.7919C125.916 47.2912 126.533 43.8903 127.302 41.9709C128.208 39.709 129.569 38.463 131.134 38.463C131.469 38.463 131.801 38.3949 132.11 38.2624C132.419 38.13 132.7 37.9358 132.937 37.6911C133.174 37.4463 133.362 37.1558 133.49 36.836C133.618 36.5163 133.684 36.1736 133.684 35.8274C133.684 35.4813 133.618 35.1386 133.49 34.8188C133.362 34.4991 133.174 34.2085 132.937 33.9638C132.7 33.7191 132.419 33.5249 132.11 33.3925C131.801 33.26 131.469 33.1919 131.134 33.1919C129.081 33.1919 127.188 30.3325 126.418 28.4107C125.515 26.1529 125.626 24.2796 126.732 23.1354C127.211 22.6411 127.479 21.9707 127.479 21.2717C127.479 20.5727 127.211 19.9023 126.732 19.408C126.254 18.9138 125.606 18.6361 124.93 18.6361C124.253 18.6361 123.605 18.9138 123.127 19.408C121.881 20.6971 119.785 20.8455 117.377 19.8151C115.802 19.1398 113.136 17.4757 113.136 15.5145C113.136 14.8155 112.868 14.1451 112.389 13.6509C111.911 13.1566 111.263 12.8789 110.587 12.8789C109.911 12.8789 109.262 13.1566 108.784 13.6509C108.306 14.1451 108.037 14.8155 108.037 15.5145C108.037 17.6376 105.272 19.5928 103.412 20.3887C101.23 21.3237 99.4164 21.2087 98.3096 20.0646C97.8315 19.5703 97.183 19.2926 96.5069 19.2926C95.8307 19.2926 95.1822 19.5703 94.7041 20.0646C94.226 20.5589 93.9574 21.2292 93.9574 21.9282C93.9574 22.6273 94.226 23.2976 94.7041 23.7919C96.1557 25.2926 95.5388 28.6937 94.7694 30.6137C93.8622 32.8748 92.5013 34.1202 90.9371 34.12C90.2663 34.1283 89.6256 34.4096 89.154 34.903C88.6824 35.3964 88.418 36.062 88.418 36.7556C88.418 37.4492 88.6824 38.1149 89.154 38.6082C89.6256 39.1016 90.2663 39.3829 90.9371 39.3912V39.3921ZM111.035 49.9062C108.43 49.9059 105.884 49.1073 103.719 47.6113C101.553 46.1152 99.8657 43.9889 98.8691 41.5013C97.8726 39.0137 97.6119 36.2764 98.1202 33.6357C98.6284 30.9949 99.8827 28.5692 101.724 26.6654C103.566 24.7616 105.913 23.4651 108.467 22.9399C111.022 22.4147 113.669 22.6844 116.076 23.7148C118.482 24.7452 120.538 26.4902 121.985 28.7289C123.432 30.9677 124.205 33.5998 124.205 36.2923C124.2 39.9018 122.812 43.3623 120.343 45.9145C117.874 48.4667 114.526 49.9022 111.035 49.9062Z" fill="#1F7A63"/>
<path fill-rule="evenodd" clip-rule="evenodd" d="M100.77 36.292C100.769 38.391 101.371 40.443 102.5 42.1883C103.628 43.9336 105.231 45.2939 107.107 46.0972C108.983 46.9005 111.047 47.1106 113.038 46.7011C115.029 46.2916 116.859 45.2808 118.294 43.7965C119.73 42.3122 120.708 40.4211 121.104 38.3624C121.5 36.3036 121.296 34.1697 120.519 32.2305C119.742 30.2913 118.426 28.6339 116.738 27.4678C115.05 26.3018 113.065 25.6795 111.034 25.6797C108.313 25.6831 105.704 26.8023 103.779 28.7918C101.855 30.7812 100.773 33.4785 100.77 36.292ZM108.695 41.1379C108.326 41.1379 107.971 40.9926 107.701 40.7314L104.673 37.7927C104.392 37.5203 104.227 37.1437 104.215 36.7459C104.203 36.348 104.344 35.9615 104.608 35.6713C104.871 35.3811 105.235 35.2109 105.62 35.1983C106.005 35.1857 106.379 35.3317 106.66 35.6041L108.748 37.631L115.47 31.7971C115.765 31.541 116.147 31.4165 116.531 31.4511C116.914 31.4857 117.269 31.6765 117.517 31.9815C117.765 32.2866 117.885 32.6808 117.851 33.0776C117.818 33.4744 117.633 33.8411 117.338 34.0972L109.628 40.7866C109.367 41.0136 109.037 41.1381 108.695 41.1379Z" fill="#F1F5F9"/>
<path fill-rule="evenodd" clip-rule="evenodd" d="M129.159 34.8005C129.577 34.8006 129.989 34.9071 130.358 35.1105C130.727 35.314 131.042 35.6082 131.275 35.9672C131.508 36.3261 131.652 36.7389 131.694 37.169C131.737 37.5992 131.676 38.0335 131.518 38.4337C132.153 38.3333 132.728 37.9886 133.128 37.4684C133.528 36.9483 133.724 36.2911 133.675 35.6285C133.626 34.9659 133.337 34.3468 132.866 33.8951C132.394 33.4434 131.775 33.1925 131.132 33.1927C129.078 33.1927 127.186 30.3333 126.416 28.4115C125.513 26.1537 125.623 24.2805 126.73 23.1362C126.967 22.8915 127.155 22.6009 127.283 22.2811C127.411 21.9614 127.477 21.6186 127.477 21.2725C127.477 20.9264 127.411 20.5837 127.283 20.2639C127.155 19.9442 126.967 19.6536 126.73 19.4089C126.493 19.1641 126.212 18.97 125.903 18.8375C125.594 18.7051 125.262 18.6369 124.927 18.6369C124.593 18.6369 124.261 18.7051 123.952 18.8375C123.642 18.97 123.361 19.1641 123.125 19.4089C121.878 20.698 119.782 20.8463 117.374 19.8159C115.8 19.1406 113.134 17.4765 113.134 15.5153C113.134 14.9045 112.929 14.3126 112.553 13.8409C112.178 13.3691 111.656 13.0467 111.076 12.9289C110.496 12.8111 109.895 12.9051 109.375 13.1948C108.855 13.4846 108.448 13.9522 108.225 14.5176C108.588 14.4604 108.959 14.485 109.312 14.5897C109.665 14.6944 109.992 14.8767 110.27 15.1241C110.549 15.3715 110.773 15.6782 110.926 16.0232C111.08 16.3682 111.159 16.7434 111.16 17.1231C111.16 19.0843 113.825 20.749 115.4 21.4237C117.808 22.4541 119.904 22.3054 121.15 21.0167C121.387 20.7719 121.668 20.5778 121.978 20.4453C122.287 20.3129 122.618 20.2447 122.953 20.2447C123.288 20.2447 123.619 20.3129 123.929 20.4453C124.238 20.5778 124.519 20.7719 124.756 21.0167C124.993 21.2614 125.18 21.552 125.309 21.8717C125.437 22.1915 125.503 22.5342 125.503 22.8803C125.503 23.2264 125.437 23.5692 125.309 23.8889C125.18 24.2087 124.993 24.4993 124.756 24.744C123.649 25.8883 123.538 27.7615 124.442 30.0193C125.212 31.9404 127.105 34.8003 129.159 34.8005Z" fill="#F1F5F9"/>
</svg>
