<svg width="230" height="80" viewBox="0 0 230 80" fill="none" xmlns="http://www.w3.org/2000/svg">
<path d="M110.272 16.6699C98.8197 16.6699 89.5586 26.159 89.5586 37.8782C89.5586 49.5975 98.8197 59.1011 110.272 59.1011C121.695 59.1011 130.97 49.5975 130.97 37.8782C130.97 26.159 121.695 16.6699 110.272 16.6699ZM110.272 50.3117C103.557 50.3117 98.1369 44.7436 98.1369 37.8782C98.1369 31.0129 103.557 25.4448 110.272 25.4448C116.958 25.4448 122.392 31.0129 122.392 37.8782C122.392 44.7436 116.958 50.3117 110.272 50.3117Z" fill="#1F7A63"/>
<path d="M115.244 37.8795C115.244 40.7 113.014 42.9841 110.265 42.9841C107.512 42.9841 105.286 40.6985 105.286 37.8795C105.286 35.0634 107.514 32.7778 110.265 32.7778C113.014 32.7778 115.244 35.0634 115.244 37.8795Z" fill="#1F7A63"/>
<path d="M100.603 66.5012L97.285 75.4291C97.0759 75.9903 96.4798 76.2702 95.9321 76.0559L87.139 72.6232C86.5913 72.4089 86.3182 71.7822 86.5273 71.237L90.5376 60.4448C93.4198 63.1021 96.8341 65.1967 100.603 66.5012Z" fill="#1F7A63"/>
<path d="M133.392 72.6231L124.599 76.0558C124.051 76.2701 123.455 75.9902 123.246 75.429L119.929 66.5011C123.682 65.1805 127.096 63.102 129.995 60.4287L134.005 71.2369C134.213 71.7806 133.94 72.4088 133.392 72.6231Z" fill="#1F7A63"/>
<path d="M134.012 14.3917L142.775 8.20997C142.998 8.05255 143.303 8.20997 143.313 8.48692L143.539 14.6453L149.073 17.0592C149.322 17.167 149.356 17.5154 149.133 17.6714L140.369 23.8531C140.273 23.9216 140.149 23.9347 140.041 23.8866L134.106 21.2979L133.862 14.6934C133.86 14.5754 133.915 14.4602 134.012 14.3917Z" fill="#1F7A63"/>
<path d="M149.353 16.3868L144.235 14.1538L144.025 8.4574C144.011 8.06238 143.788 7.70818 143.444 7.53181C143.102 7.3569 142.691 7.38459 142.375 7.60906L133.612 13.7908C133.313 14.0036 133.143 14.352 133.158 14.7208L133.271 17.7657C127.714 11.103 119.471 6.85693 110.269 6.85693C93.5787 6.85693 80 20.7699 80 37.8706C80 46.8481 83.7599 54.9233 89.7235 60.5948L85.8696 70.9687C85.6989 71.4118 85.7089 71.8972 85.8981 72.3374C86.0901 72.7849 86.4415 73.1274 86.8896 73.3038L95.6827 76.735C96.1152 76.9056 96.5946 76.8968 97.0242 76.7C97.4539 76.5033 97.7839 76.1447 97.9546 75.687L101.03 67.4136C103.945 68.3741 107.048 68.9047 110.271 68.9047C113.495 68.9047 116.598 68.3741 119.513 67.4136L122.587 75.6885C122.758 76.1447 123.088 76.5047 123.517 76.7015C123.936 76.8924 124.412 76.9114 124.857 76.7365L133.652 73.3038C134.099 73.1289 134.451 72.7863 134.642 72.3389C134.831 71.8987 134.841 71.4118 134.673 70.9774L130.819 60.5905C136.78 54.9189 140.537 46.8466 140.537 37.8706C140.537 32.6232 139.248 27.6833 136.995 23.3469L139.77 24.5582C139.904 24.6165 140.044 24.6442 140.183 24.6442C140.394 24.6442 140.601 24.5801 140.781 24.4533L149.544 18.2715C149.861 18.0485 150.033 17.6652 149.995 17.2731C149.951 16.8795 149.706 16.5413 149.353 16.3868ZM96.6188 75.1681C96.5847 75.2599 96.5206 75.3328 96.4381 75.3707C96.3812 75.3955 96.2916 75.4159 96.1849 75.3736L87.3918 71.9424C87.2723 71.8943 87.2168 71.801 87.1941 71.75C87.1742 71.7033 87.1457 71.6086 87.1898 71.4949L90.8487 61.6487C93.4564 63.8905 96.4452 65.6659 99.6873 66.9107L96.6188 75.1681ZM133.342 71.5036C133.382 71.6086 133.355 71.7033 133.335 71.75C133.312 71.801 133.258 71.8943 133.138 71.9409L124.344 75.3736C124.237 75.4173 124.146 75.3955 124.091 75.3692C124.008 75.3313 123.944 75.2599 123.91 75.1681L120.841 66.9107C124.085 65.6644 127.075 63.8876 129.683 61.6443L133.342 71.5036ZM139.109 37.8721C139.109 54.1799 126.169 67.4486 110.263 67.4486C94.3569 67.4486 81.4183 54.1799 81.4183 37.8721C81.4183 21.5745 94.3583 8.31601 110.264 8.31601C119.715 8.31601 128.092 13.0183 133.357 20.2364L133.383 20.9448L127.589 25.0319C123.695 19.5353 117.392 15.9408 110.27 15.9408C98.4568 15.9408 88.8457 25.7812 88.8457 37.8779C88.8457 49.9819 98.4568 59.8296 110.27 59.8296C122.075 59.8296 131.68 49.9819 131.68 37.8779C131.68 33.5998 130.461 29.6176 128.385 26.2403L134.205 22.1342L134.786 22.3878C137.51 26.8962 139.109 32.1903 139.109 37.8721ZM110.264 26.1762C113.737 26.1762 117.118 27.7927 119.363 30.8362L114.625 34.1799C113.58 32.8899 112.024 32.0504 110.264 32.0504C107.126 32.0504 104.574 34.6653 104.574 37.8808C104.574 41.0978 107.126 43.7142 110.264 43.7142C113.403 43.7142 115.955 41.0978 115.955 37.8808C115.955 36.9931 115.744 36.1594 115.397 35.4058L120.151 32.0518C121.119 33.7703 121.681 35.7571 121.681 37.8794C121.681 44.3337 116.562 49.584 110.271 49.584C103.972 49.584 98.848 44.3322 98.848 37.8794C98.848 31.428 103.967 26.1762 110.264 26.1762ZM109.678 38.5528C109.9 38.8822 110.343 38.9682 110.667 38.7394L114.213 36.2381C114.416 36.7453 114.531 37.2978 114.531 37.8794C114.531 40.2932 112.616 42.2551 110.263 42.2551C107.91 42.2551 105.995 40.2917 105.995 37.8794C105.995 35.4685 107.91 33.5065 110.263 33.5065C111.538 33.5065 112.67 34.0939 113.454 35.0049L109.86 37.5397C109.536 37.7671 109.455 38.2219 109.678 38.5528ZM110.27 24.7156C103.2 24.7156 97.4197 30.6059 97.4197 37.8779C97.4197 45.1383 103.181 51.0445 110.263 51.0445C117.345 51.0445 123.106 45.1383 123.106 37.8779C123.106 35.4481 122.449 33.1786 121.324 31.2224L127.215 27.0668C129.131 30.2094 130.259 33.9074 130.259 37.8779C130.259 49.1788 121.292 58.372 110.271 58.372C99.2421 58.372 90.2697 49.1788 90.2697 37.8779C90.2697 26.5858 99.2421 17.3984 110.271 17.3984C116.908 17.3984 122.782 20.7422 126.419 25.8584L120.536 30.0097C118.033 26.5887 114.241 24.7156 110.27 24.7156ZM140.135 23.1356L135.762 21.2276C135.443 20.7174 135.109 20.2204 134.762 19.7306L134.584 14.8738L142.628 9.19932L142.83 14.6712C142.84 14.9525 143.008 15.2032 143.263 15.314L148.181 17.4582L140.135 23.1356Z" fill="#1F7A63"/>
</svg>
