<svg width="70" height="70" viewBox="0 0 70 70" fill="none" xmlns="http://www.w3.org/2000/svg">
<g clip-path="url(#clip0_317_540)">
<path d="M59.6094 8.33984H54.8109C47.8788 8.33984 41.3574 5.49599 36.4355 0.615234C36.0665 0.205078 35.533 0 35 0C34.467 0 33.9335 0.205078 33.5645 0.615234C28.6426 5.49599 22.1212 8.33984 15.1891 8.33984H10.3906C9.24187 8.33984 8.33984 9.24187 8.33984 10.3906V35C8.33984 53.4159 21.7522 62.002 30.6111 67.5802C31.7599 68.3183 32.867 68.9746 33.8512 69.6716C34.2208 69.8766 34.5898 70 35 70C35.4102 70 35.7792 69.8766 36.1488 69.6716C37.0919 69.0157 38.1584 68.3594 39.3066 67.6208C48.2067 62.0431 61.6602 53.457 61.6602 35V10.3906C61.6602 9.24187 60.7581 8.33984 59.6094 8.33984Z" fill="#1F7A63"/>
<path d="M61.6602 10.3906V35C61.6602 53.457 48.2067 62.0431 39.3066 67.6208C38.1584 68.3594 37.0919 69.0157 36.1488 69.6716C35.7792 69.8766 35.4102 70 35 70V0C35.533 0 36.0665 0.205078 36.4355 0.615234C41.3574 5.49599 47.8788 8.33984 54.8109 8.33984H59.6094C60.7581 8.33984 61.6602 9.24187 61.6602 10.3906Z" fill="#1F7A63"/>
<path d="M35 16.543C24.8283 16.543 16.543 24.8278 16.543 35C16.543 45.1717 24.8283 53.457 35 53.457C45.1717 53.457 53.457 45.1717 53.457 35C53.457 24.8278 45.1717 16.543 35 16.543Z" fill="#F1F5F9"/>
<path d="M44.6387 32.334L34.3848 42.5879C34.0157 42.998 33.4822 43.2031 32.9492 43.2031C32.4162 43.2031 31.8827 42.998 31.5137 42.5879L25.3613 36.4355C24.541 35.6564 24.541 34.3436 25.3613 33.5645C26.1405 32.7441 27.4532 32.7441 28.2324 33.5645L32.9492 38.2401L35 36.1893L41.7681 29.4629C42.5473 28.6426 43.8595 28.6426 44.6387 29.4629C45.459 30.2421 45.459 31.5548 44.6387 32.334Z" fill="#1F7A63"/>
<path d="M44.6387 32.334L35 41.9727V36.1893L41.7676 29.4629C42.5468 28.6426 43.8595 28.6426 44.6387 29.4629C45.459 30.2421 45.459 31.5548 44.6387 32.334Z" fill="#1F7A63"/>
</g>
<defs>
<clipPath id="clip0_317_540">
<rect width="70" height="70" fill="white"/>
</clipPath>
</defs>
</svg>
