<svg width="70" height="70" viewBox="0 0 70 70" fill="none" xmlns="http://www.w3.org/2000/svg">
<g clip-path="url(#clip0_317_471)">
<path d="M31.5003 61.8332C48.253 61.8332 61.8337 48.2525 61.8337 31.4998C61.8337 14.7472 48.253 1.1665 31.5003 1.1665C14.7477 1.1665 1.16699 14.7472 1.16699 31.4998C1.16699 48.2525 14.7477 61.8332 31.5003 61.8332Z" fill="#F1F5F9"/>
<path d="M53.6667 68.8333C62.043 68.8333 68.8333 62.043 68.8333 53.6667C68.8333 45.2903 62.043 38.5 53.6667 38.5C45.2903 38.5 38.5 45.2903 38.5 53.6667C38.5 62.043 45.2903 68.8333 53.6667 68.8333Z" fill="#1F7A63"/>
<path d="M51.333 60.6665C51.0236 60.6665 50.7269 60.5435 50.5082 60.3247L47.0082 56.8247C46.7956 56.6047 46.6781 56.31 46.6807 56.0041C46.6834 55.6982 46.8061 55.4056 47.0224 55.1892C47.2387 54.9729 47.5313 54.8502 47.8372 54.8476C48.1431 54.8449 48.4378 54.9625 48.6578 55.175L51.1743 57.6915L58.5442 47.1647C58.6298 47.0341 58.7408 46.922 58.8705 46.8351C59.0003 46.7482 59.1461 46.6882 59.2995 46.6587C59.4529 46.6292 59.6106 46.6308 59.7633 46.6634C59.916 46.696 60.0607 46.7589 60.1886 46.8484C60.3166 46.938 60.4253 47.0523 60.5083 47.1846C60.5912 47.3169 60.6468 47.4645 60.6716 47.6187C60.6965 47.7729 60.6901 47.9305 60.653 48.0821C60.6158 48.2338 60.5485 48.3765 60.4552 48.5017L52.2885 60.1684C52.1908 60.308 52.0638 60.4245 51.9162 60.5098C51.7687 60.5951 51.6042 60.647 51.4345 60.6619C51.4008 60.6652 51.3669 60.6667 51.333 60.6665Z" fill="#F1F5F9"/>
<path d="M67.2165 46.7462C67.075 46.8052 66.9466 46.8916 66.8385 47.0004C66.7305 47.1091 66.6449 47.2381 66.5867 47.3799C66.5285 47.5217 66.4989 47.6736 66.4994 47.8269C66.5 47.9802 66.5308 48.1319 66.59 48.2733C67.9564 51.5372 68.0383 55.197 66.8191 58.5187C65.6 61.8404 63.1701 64.5784 60.0167 66.1834C56.8633 67.7885 53.2197 68.1419 49.8166 67.1728C46.4135 66.2037 43.5027 63.9838 41.6679 60.9583C39.8331 57.9328 39.2101 54.3255 39.9238 50.8599C40.6375 47.3942 42.6351 44.3266 45.516 42.2722C48.3969 40.2178 51.948 39.3286 55.4571 39.783C58.9661 40.2373 62.1736 42.0016 64.4363 44.722C64.6342 44.9599 64.9185 45.1095 65.2266 45.1379C65.5348 45.1662 65.8416 45.0709 66.0795 44.8731C66.3175 44.6752 66.4671 44.3909 66.4954 44.0827C66.5238 43.7746 66.4285 43.4678 66.2306 43.2298C65.0175 41.7748 63.5609 40.5416 61.9256 39.5852C63.7244 32.8685 63.2566 25.7459 60.5947 19.3222C57.9329 12.8985 53.2257 7.53271 47.2034 4.05697C41.181 0.581227 34.1801 -0.810161 27.2863 0.098608C20.3926 1.00738 13.9914 4.16551 9.07551 9.08319C4.15963 14.0009 1.00384 20.4032 0.0975888 27.2973C-0.808659 34.1914 0.585289 41.1918 4.06323 47.2129C7.54117 53.234 12.9087 57.9391 19.3334 60.5987C25.7581 63.2582 32.8808 63.7234 39.5968 61.9222C41.691 65.4939 45.064 68.1365 49.033 69.3152C53.0021 70.4938 57.2707 70.1205 60.9749 68.2707C64.679 66.4209 67.542 63.2329 68.9844 59.3518C70.4267 55.4708 70.3407 51.1868 68.7436 47.3668C68.6232 47.0822 68.3948 46.857 68.1084 46.7406C67.8221 46.6242 67.5013 46.6262 67.2165 46.7462ZM31.5001 60.6668C25.406 60.6831 19.4589 58.7952 14.49 55.2668C9.52114 51.7384 5.77865 46.7459 3.78549 40.9868C1.79234 35.2278 1.6481 28.99 3.37294 23.1449C5.09779 17.2999 8.60553 12.1398 13.406 8.38548C18.2065 4.63122 24.0599 2.47041 30.1483 2.205C36.2368 1.9396 42.256 3.58285 47.365 6.90514C52.474 10.2274 56.4174 15.0628 58.6444 20.7355C60.8713 26.4083 61.2704 32.635 59.786 38.5457C56.8153 37.3361 53.5539 37.0297 50.4099 37.6646C47.2659 38.2996 44.3791 39.8478 42.1107 42.1154C39.8423 44.3831 38.2932 47.2694 37.6572 50.4132C37.0212 53.5569 37.3266 56.8184 38.5351 59.7895C36.2345 60.3667 33.8721 60.6614 31.5001 60.6668Z" fill="#1F7A63"/>
<path d="M58.5442 47.1649L51.1743 57.6917L48.6578 55.1752C48.4378 54.9627 48.1431 54.8451 47.8372 54.8478C47.5313 54.8505 47.2387 54.9731 47.0224 55.1895C46.8061 55.4058 46.6834 55.6984 46.6807 56.0043C46.6781 56.3102 46.7956 56.6049 47.0082 56.8249L50.5082 60.3249C50.7269 60.5437 51.0236 60.6667 51.333 60.6667C51.3668 60.6685 51.4007 60.6685 51.4345 60.6667C51.6042 60.6518 51.7687 60.5999 51.9162 60.5147C52.0638 60.4294 52.1908 60.3129 52.2885 60.1732L60.4552 48.5066C60.5485 48.3814 60.6158 48.2387 60.653 48.087C60.6901 47.9354 60.6965 47.7777 60.6716 47.6236C60.6468 47.4694 60.5912 47.3218 60.5083 47.1895C60.4253 47.0571 60.3166 46.9428 60.1886 46.8533C60.0607 46.7638 59.916 46.7009 59.7633 46.6683C59.6106 46.6357 59.4529 46.6341 59.2995 46.6636C59.1461 46.6931 59.0003 46.7531 58.8705 46.84C58.7408 46.9269 58.6298 47.039 58.5442 47.1696V47.1649Z" fill="#F1F5F9"/>
<path d="M31.4997 10.5002C31.8091 10.5002 32.1058 10.3772 32.3246 10.1585C32.5434 9.93966 32.6663 9.64292 32.6663 9.3335V7.00016C32.6663 6.69074 32.5434 6.394 32.3246 6.17521C32.1058 5.95641 31.8091 5.8335 31.4997 5.8335C31.1903 5.8335 30.8935 5.95641 30.6747 6.17521C30.4559 6.394 30.333 6.69074 30.333 7.00016V9.3335C30.333 9.64292 30.4559 9.93966 30.6747 10.1585C30.8935 10.3772 31.1903 10.5002 31.4997 10.5002Z" fill="#1F7A63"/>
<path d="M9.33301 30.3335H6.99967C6.69026 30.3335 6.39351 30.4564 6.17472 30.6752C5.95592 30.894 5.83301 31.1907 5.83301 31.5002C5.83301 31.8096 5.95592 32.1063 6.17472 32.3251C6.39351 32.5439 6.69026 32.6668 6.99967 32.6668H9.33301C9.64243 32.6668 9.93917 32.5439 10.158 32.3251C10.3768 32.1063 10.4997 31.8096 10.4997 31.5002C10.4997 31.1907 10.3768 30.894 10.158 30.6752C9.93917 30.4564 9.64243 30.3335 9.33301 30.3335Z" fill="#1F7A63"/>
<path d="M31.4997 52.5C31.1903 52.5 30.8935 52.6229 30.6747 52.8417C30.4559 53.0605 30.333 53.3572 30.333 53.6667V56C30.333 56.3094 30.4559 56.6062 30.6747 56.825C30.8935 57.0438 31.1903 57.1667 31.4997 57.1667C31.8091 57.1667 32.1058 57.0438 32.3246 56.825C32.5434 56.6062 32.6663 56.3094 32.6663 56V53.6667C32.6663 53.3572 32.5434 53.0605 32.3246 52.8417C32.1058 52.6229 31.8091 52.5 31.4997 52.5Z" fill="#1F7A63"/>
<path d="M53.6667 32.6668H56C56.3094 32.6668 56.6062 32.5439 56.825 32.3251C57.0438 32.1063 57.1667 31.8096 57.1667 31.5002C57.1667 31.1907 57.0438 30.894 56.825 30.6752C56.6062 30.4564 56.3094 30.3335 56 30.3335H53.6667C53.3572 30.3335 53.0605 30.4564 52.8417 30.6752C52.6229 30.894 52.5 31.1907 52.5 31.5002C52.5 31.8096 52.6229 32.1063 52.8417 32.3251C53.0605 32.5439 53.3572 32.6668 53.6667 32.6668Z" fill="#1F7A63"/>
<path d="M36.6878 32.7895L32.6663 30.7793V16.3337C32.6663 16.0242 32.5434 15.7275 32.3246 15.5087C32.1058 15.2899 31.8091 15.167 31.4997 15.167C31.1903 15.167 30.8935 15.2899 30.6747 15.5087C30.4559 15.7275 30.333 16.0242 30.333 16.3337V31.5003C30.3329 31.7171 30.3932 31.9297 30.5072 32.1141C30.6211 32.2985 30.7842 32.4476 30.9782 32.5445L35.6448 34.8778C35.782 34.9463 35.9312 34.9871 36.0841 34.9979C36.237 35.0087 36.3905 34.9893 36.5359 34.9408C36.6813 34.8922 36.8157 34.8155 36.9315 34.715C37.0472 34.6146 37.142 34.4923 37.2105 34.3552C37.279 34.218 37.3198 34.0688 37.3306 33.9159C37.3414 33.763 37.322 33.6095 37.2734 33.4641C37.2249 33.3187 37.1482 33.1843 37.0477 33.0685C36.9473 32.9528 36.825 32.858 36.6878 32.7895Z" fill="#1F7A63"/>
</g>
<defs>
<clipPath id="clip0_317_471">
<rect width="70" height="70" fill="white"/>
</clipPath>
</defs>
</svg>
