<svg width="70" height="70" viewBox="0 0 70 70" fill="none" xmlns="http://www.w3.org/2000/svg">
<path fill-rule="evenodd" clip-rule="evenodd" d="M56.971 50.0794L62.8064 56.3618L65.1573 54.1781C65.6182 53.7496 66.3954 54.0451 66.4129 54.7192L66.9576 66.9068C66.9777 67.3657 66.5814 67.7335 66.1245 67.6802V67.6817L53.9837 66.2372C53.3288 66.1596 53.0968 65.358 53.5902 64.922L55.9144 62.7632L50.08 56.4818C49.799 56.1798 49.816 55.7072 50.118 55.4262L55.9154 50.0414C56.2174 49.7604 56.6901 49.7774 56.971 50.0794Z" fill="#1F7A63"/>
<path fill-rule="evenodd" clip-rule="evenodd" d="M62.2209 57.9264L56.3855 51.644L51.6826 56.0122L57.5171 62.2936C57.798 62.5956 57.7811 63.0683 57.4791 63.3492L55.7633 64.9429L65.4272 66.0928L64.9926 56.3704L63.2764 57.9645C62.9744 58.2455 62.5017 58.2286 62.2208 57.9265L62.2209 57.9264Z" fill="#1F7A63"/>
<path fill-rule="evenodd" clip-rule="evenodd" d="M19.9204 56.9709L13.638 62.8063L15.8217 65.1572C16.2501 65.6179 15.9547 66.3953 15.2805 66.4128L3.09302 66.9575C2.63406 66.9776 2.26628 66.5813 2.3196 66.1243H2.3181L3.76253 53.9836C3.84019 53.3287 4.64177 53.0967 5.07777 53.5902L7.23656 55.9145L13.518 50.08C13.82 49.799 14.2926 49.816 14.5736 50.118L19.9584 55.9154C20.2393 56.2174 20.2224 56.6901 19.9204 56.971V56.9709Z" fill="#1F7A63"/>
<path fill-rule="evenodd" clip-rule="evenodd" d="M12.0736 62.2209L18.3559 56.3855L13.9878 51.6826L7.70637 57.5171C7.40436 57.798 6.93172 57.7811 6.65076 57.4791L5.05703 55.7633L3.90723 65.4272L13.6296 64.9926L12.0354 63.2764C11.7545 62.9744 11.7714 62.5017 12.0734 62.2208L12.0736 62.2209Z" fill="#1F7A63"/>
<path fill-rule="evenodd" clip-rule="evenodd" d="M13.0293 19.9204L7.19392 13.638L4.84304 15.8217C4.38216 16.2501 3.60491 15.9547 3.58741 15.2805L3.04272 3.09302C3.02263 2.63406 3.41897 2.26628 3.87589 2.3196V2.3181L16.0167 3.76253C16.6715 3.84019 16.9035 4.64177 16.4101 5.07777L14.0859 7.23656L19.9204 13.518C20.2013 13.82 20.1844 14.2926 19.8824 14.5736L14.085 19.9584C13.7829 20.2393 13.3103 20.2224 13.0293 19.9204Z" fill="#1F7A63"/>
<path fill-rule="evenodd" clip-rule="evenodd" d="M7.77957 12.0736L13.615 18.3559L18.3179 13.9878L12.4834 7.70637C12.2024 7.40436 12.2194 6.93172 12.5214 6.65076L14.2372 5.05703L4.57324 3.90723L5.00787 13.6296L6.7241 12.0354C7.02611 11.7545 7.49875 11.7714 7.77971 12.0734L7.77957 12.0736Z" fill="#1F7A63"/>
<path fill-rule="evenodd" clip-rule="evenodd" d="M50.0799 13.0293L56.3623 7.19392L54.1786 4.84304C53.7501 4.3823 54.0456 3.60491 54.7197 3.58741L66.9072 3.04272C67.3662 3.02263 67.734 3.41897 67.6807 3.87589H67.6822L66.2377 16.0167C66.1601 16.6715 65.3585 16.9035 64.9225 16.41L62.7637 14.0858L56.4823 19.9202C56.1803 20.2012 55.7077 20.1842 55.4267 19.8822L50.0419 14.0848C49.7609 13.7828 49.7779 13.3102 50.0799 13.0292V13.0293Z" fill="#1F7A63"/>
<path fill-rule="evenodd" clip-rule="evenodd" d="M57.9259 7.77957L51.6436 13.615L56.0117 18.3179L62.2931 12.4834C62.5951 12.2024 63.0678 12.2194 63.3487 12.5214L64.9425 14.2372L66.0923 4.57324L56.3699 5.00787L57.9641 6.7241C58.245 7.02611 58.2281 7.49875 57.9261 7.77971L57.9259 7.77957Z" fill="#1F7A63"/>
<path fill-rule="evenodd" clip-rule="evenodd" d="M57.9259 7.77936L51.6436 13.6148L56.0117 18.3176L56.0717 18.262C58.1998 14.2213 59.5024 9.67824 59.7525 4.85645L56.3698 5.00766L57.9639 6.72389C58.2449 7.0259 58.2279 7.4984 57.9259 7.77936Z" fill="#1F7A63"/>
<path d="M35.0001 46.7581C41.4939 46.7581 46.7581 41.4939 46.7581 35.0001C46.7581 28.5064 41.4939 23.2422 35.0001 23.2422C28.5064 23.2422 23.2422 28.5064 23.2422 35.0001C23.2422 41.4939 28.5064 46.7581 35.0001 46.7581Z" fill="#1F7A63"/>
<path fill-rule="evenodd" clip-rule="evenodd" d="M42.0797 27.9209C38.1702 24.0115 31.831 24.0113 27.9214 27.9209C24.0119 31.8304 24.0119 38.1698 27.9214 42.0792C31.831 45.9887 38.1701 45.9887 42.0797 42.0792C45.9893 38.1696 45.9892 31.8305 42.0797 27.9209ZM31.0128 35.83C30.6341 35.5323 30.5685 34.984 30.8661 34.6052C31.1638 34.2265 31.7122 34.1609 32.0909 34.4585L34.2531 36.1588L37.7905 32.0728C38.1051 31.7093 38.655 31.6695 39.0187 31.9841C39.3824 32.2987 39.422 32.8485 39.1074 33.2122L35.0581 37.8895C34.7517 38.2656 34.2171 38.3496 33.8277 38.0434L31.0128 35.83Z" fill="#1F7A63"/>
<path fill-rule="evenodd" clip-rule="evenodd" d="M42.0792 27.9209C38.1697 24.0115 31.8305 24.0113 27.9209 27.9209C25.827 30.0148 24.8552 32.8053 25.0041 35.5466C25.7684 35.6004 26.5394 35.6295 27.3175 35.6295C28.4717 35.6295 29.6117 35.5683 30.7348 35.4508C30.6316 35.1751 30.6705 34.8537 30.8658 34.6054C31.1634 34.2267 31.7118 34.161 32.0905 34.4587L32.9576 35.1405C33.8673 34.9812 34.7636 34.7832 35.6457 34.55L37.7903 32.0729C38.1049 31.7094 38.6548 31.6696 39.0184 31.9842C39.3821 32.2988 39.4218 32.8487 39.1072 33.2124L38.8361 33.5254C40.6949 32.8208 42.4728 31.9514 44.1503 30.933C43.665 29.8405 42.975 28.8168 42.0792 27.9209Z" fill="#1F7A63"/>
<path fill-rule="evenodd" clip-rule="evenodd" d="M29.6839 17.0137C30.3469 16.8143 30.527 15.9633 30.0013 15.5121C29.7725 15.3195 29.4724 15.2552 29.1852 15.3397L27.4595 15.9344C26.7753 16.2118 26.7176 17.1533 27.3642 17.5113C27.5964 17.6363 27.8624 17.6542 28.108 17.5563C28.6236 17.3517 29.1518 17.1705 29.6839 17.0137Z" fill="#1F7A63"/>
<path fill-rule="evenodd" clip-rule="evenodd" d="M19.3697 45.3607C19.0617 44.895 18.7767 44.4222 18.5096 43.9318C18.314 43.5762 17.9045 43.403 17.5131 43.5088C16.9679 43.6608 16.7077 44.2735 16.9777 44.7709C17.2677 45.3034 17.5819 45.8302 17.9194 46.334C18.4272 47.0895 19.5591 46.6618 19.5175 45.8025C19.5096 45.6381 19.4583 45.4981 19.3697 45.3607Z" fill="#1F7A63"/>
<path fill-rule="evenodd" clip-rule="evenodd" d="M23.7528 19.996C24.245 19.62 24.2066 18.8737 23.6771 18.551C23.3675 18.3677 22.9881 18.3863 22.6997 18.6026C22.2133 18.9679 21.7447 19.3544 21.2924 19.7611C20.7747 20.2306 20.9899 21.0873 21.6682 21.2568C21.9532 21.3256 22.2455 21.2531 22.4637 21.0568C22.8781 20.6842 23.3072 20.3307 23.7527 19.996H23.7528Z" fill="#1F7A63"/>
<path fill-rule="evenodd" clip-rule="evenodd" d="M19.2291 24.857C19.4708 24.4731 19.3854 23.9743 19.0261 23.6961C18.6178 23.3826 18.0339 23.4854 17.7561 23.9183C17.4277 24.4303 17.1202 24.9547 16.8383 25.4938C16.5142 26.1242 17.0307 26.8569 17.7341 26.7612C18.016 26.7209 18.2569 26.5512 18.3886 26.2986C18.6471 25.8049 18.9283 25.3261 19.2291 24.857Z" fill="#1F7A63"/>
<path fill-rule="evenodd" clip-rule="evenodd" d="M16.6802 30.991C16.809 30.3819 16.2898 29.8417 15.6756 29.9455C15.3247 30.0095 15.0495 30.2714 14.9733 30.6207L14.6647 32.4208C14.5863 33.0774 15.2292 33.5752 15.8467 33.3416C16.1496 33.2217 16.3574 32.9567 16.3985 32.6328C16.4676 32.0831 16.5613 31.5321 16.6802 30.991Z" fill="#1F7A63"/>
<path fill-rule="evenodd" clip-rule="evenodd" d="M16.4333 37.6279C16.3874 37.3125 16.1793 37.0513 15.8822 36.9359C15.2576 36.6994 14.6121 37.2138 14.7041 37.8745C14.7886 38.4773 14.9004 39.0742 15.038 39.6672C15.1293 40.0497 15.455 40.3197 15.8474 40.3404C16.4287 40.3633 16.8695 39.836 16.7385 39.2684C16.6127 38.7256 16.5106 38.1795 16.4333 37.6279Z" fill="#1F7A63"/>
<path fill-rule="evenodd" clip-rule="evenodd" d="M22.6617 49.1184C22.1452 48.6744 21.3473 48.9558 21.2275 49.6281C21.176 49.9309 21.2834 50.2333 21.5146 50.4356C21.9724 50.8361 22.4483 51.2162 22.9397 51.5744C23.3258 51.8507 23.8495 51.7758 24.1425 51.4021C24.4444 51.0099 24.3647 50.4515 23.9646 50.1599C23.5152 49.8322 23.0803 49.4845 22.6617 49.1184Z" fill="#1F7A63"/>
<path fill-rule="evenodd" clip-rule="evenodd" d="M28.3533 52.538C27.6863 52.2891 27.0205 52.8945 27.2022 53.5826C27.2792 53.8579 27.4703 54.0702 27.7378 54.1726C28.3076 54.3888 28.8826 54.5758 29.469 54.7415C29.8419 54.8456 30.2366 54.6928 30.4433 54.3661C30.7538 53.8716 30.5018 53.2164 29.9393 53.0593C29.4019 52.9076 28.8753 52.736 28.3531 52.5379L28.3533 52.538Z" fill="#1F7A63"/>
<path fill-rule="evenodd" clip-rule="evenodd" d="M35.0003 16.2501C34.518 16.2501 34.127 15.8591 34.127 15.3768C34.127 14.8944 34.518 14.5034 35.0003 14.5034C46.3201 14.5034 55.4971 23.6803 55.4971 35.0002C55.4971 46.3201 46.3202 55.4969 35.0003 55.4969C34.518 55.4969 34.127 55.1059 34.127 54.6235C34.127 54.1412 34.518 53.7502 35.0003 53.7502C45.3558 53.7502 53.7503 45.3556 53.7503 35.0002C53.7503 24.6447 45.3558 16.2501 35.0003 16.2501Z" fill="#1F7A63"/>
</svg>
