<svg width="884" height="181" viewBox="0 0 884 181" fill="none" xmlns="http://www.w3.org/2000/svg">
<path d="M427.59 133.558C427.171 134.964 427.773 137.078 426.613 138.275C426.598 138.291 426.581 138.308 426.565 138.324C426.097 138.799 425.497 139.225 424.762 139.69C424.668 139.749 424.57 139.809 424.472 139.869C423.598 140.406 422.531 141.021 421.194 141.771C416.797 144.134 415.735 147.221 415.189 148.434C414.23 150.663 412.204 152.159 409.267 153.528C408.998 153.653 408.716 153.772 408.428 153.894C408.194 153.994 407.679 153.255 407.281 152.244C406.883 151.233 406.722 150.348 406.918 150.264C407.158 150.161 407.393 150.057 407.619 149.953L407.623 149.951C410.151 148.769 411.858 147.5 412.569 145.526C413.013 144.39 413.711 141.589 417.874 139.726C419.125 139.131 420.135 138.63 420.968 138.191C421.057 138.143 421.147 138.096 421.234 138.049L421.241 138.045C421.94 137.665 422.489 137.323 422.91 136.939C422.917 136.931 422.925 136.922 422.934 136.914C424.037 135.885 423.347 134.033 423.721 132.857C423.794 132.63 424.722 132.583 425.794 132.756C426.864 132.929 427.67 133.29 427.59 133.558ZM357.844 112.214C357.258 109.761 358.688 107.185 360.521 105.439C362.364 103.65 364.628 102.627 365.802 102.312C366.955 101.996 367.806 101.348 368.773 100.532C368.995 100.345 369.223 100.149 369.459 99.9506C370.242 99.2949 371.142 98.5925 372.279 98.0332C376.455 96.0171 378.922 94.7853 380.698 93.7547C381.063 93.5481 381.402 93.3535 381.72 93.1759L381.722 93.175C382.931 92.5062 383.876 92.0577 384.912 92.1589C386.745 92.3507 388.241 92.6575 390.033 93.6639C392.486 95.0423 395.095 94.5121 397.036 93.1727C397.143 93.0985 397.251 93.0201 397.361 92.9436C397.529 92.8281 397.702 92.7106 397.884 92.5922C399.232 91.7168 400.977 90.7558 403.557 90.3496C405.991 89.9747 408.047 90.5548 409.712 91.3039C410.193 91.5199 410.639 91.7507 411.062 91.9763C412.138 92.5483 413.056 93.1025 414.009 93.447C419.944 95.6705 422.336 98.9092 423.203 101.132C423.876 102.898 423.698 104.296 423.555 105.276C423.51 105.573 423.465 105.836 423.443 106.061C423.257 108.062 423.466 109.406 423.608 111.019C423.636 111.376 423.659 111.746 423.669 112.133C423.698 113.425 424.167 114.062 424.712 114.512C424.948 114.707 425.194 114.865 425.427 115.016C425.431 115.019 425.436 115.021 425.441 115.024C425.474 115.045 425.504 115.066 425.536 115.087C425.561 115.103 425.587 115.117 425.611 115.133C425.634 115.134 425.649 115.136 425.662 115.137C425.672 115.138 425.679 115.139 425.684 115.14L425.689 115.139C425.777 115.149 425.822 115.173 425.83 115.178C425.847 115.186 425.857 115.196 425.862 115.2C425.894 115.224 425.922 115.26 425.939 115.285C425.984 115.348 426.053 115.462 426.153 115.642C426.278 115.782 426.436 115.901 426.633 116.053C426.646 116.063 426.659 116.072 426.671 116.081C426.864 116.229 427.086 116.406 427.327 116.649C427.547 116.873 426.912 117.393 425.912 117.8C424.911 118.206 423.936 118.375 423.733 118.189C423.52 117.993 423.323 117.854 423.14 117.73C423.128 117.722 423.117 117.714 423.105 117.707C422.915 117.578 422.737 117.457 422.596 117.306C422.549 117.256 422.506 117.202 422.467 117.15C422.378 117.068 422.248 116.986 422.088 116.893C422.056 116.874 422.025 116.854 421.991 116.835C421.773 116.711 421.517 116.57 421.279 116.392C420.716 115.972 420.263 115.369 420.31 114.095C420.322 113.76 420.318 113.436 420.31 113.119C420.262 111.648 420.13 110.332 420.416 108.33C420.455 108.054 420.518 107.762 420.578 107.45C420.753 106.524 420.948 105.388 420.438 103.87C419.764 101.904 417.716 98.9789 412.399 97.0351C411.502 96.718 410.629 96.1731 409.652 95.6371C409.282 95.4332 408.895 95.2339 408.492 95.047C407.027 94.3666 405.239 93.857 403.118 94.2448C400.697 94.6975 399.116 95.7147 397.884 96.6204C397.802 96.6805 397.722 96.7404 397.644 96.7999C397.601 96.8341 397.557 96.8684 397.514 96.9029C397.459 96.9443 397.406 96.9856 397.354 97.0264C395.491 98.4394 393.097 98.9869 390.622 97.4239C389.054 96.4398 387.75 96.1097 386.087 95.8688C385.263 95.7568 384.54 96.1037 383.478 96.6953C383.18 96.8619 382.856 97.0459 382.494 97.2521C380.875 98.2028 378.635 99.3135 374.763 101.071C373.751 101.539 372.967 102.138 372.258 102.72C372.036 102.901 371.821 103.08 371.608 103.256C370.721 103.988 369.864 104.636 368.6 104.93C367.565 105.164 365.49 106.006 363.812 107.566C362.121 109.114 360.96 111.302 361.516 113.31C361.573 113.518 361.63 113.726 361.69 113.933C362.199 115.712 362.853 117.453 364.418 118.997C369.557 122.892 371.057 125.423 371.335 128.179C371.61 130.902 370.749 133.846 371.087 136.224C371.094 136.285 371.102 136.346 371.112 136.407C371.901 141.828 374.675 145.145 375.522 146.151C375.564 146.199 375.602 146.244 375.635 146.283C375.667 146.319 375.695 146.35 375.72 146.378C376.083 146.804 376.516 147.085 376.971 147.365C376.996 147.38 377.021 147.395 377.046 147.41C377.527 147.704 378.024 148.003 378.497 148.472C380.26 150.22 382.037 151.25 383.598 151.973C383.888 152.107 384.171 152.234 384.449 152.35L384.452 152.351C385.676 152.858 386.778 153.214 387.788 153.616C389.641 154.343 391.021 154.426 392.074 154.388C392.407 154.375 392.713 154.348 392.999 154.317C393.622 154.251 394.156 154.173 394.694 154.183C395.709 154.201 396.657 153.987 397.567 153.735C397.649 153.713 397.73 153.692 397.812 153.669C397.835 153.662 397.86 153.656 397.884 153.649C398.849 153.373 399.75 153.074 400.705 152.961C400.932 152.935 401.232 153.787 401.378 154.863C401.523 155.939 401.428 156.84 401.16 156.872C400.06 157.001 399.021 157.312 397.884 157.596C397.79 157.62 397.696 157.645 397.601 157.668C396.557 157.92 395.455 158.127 394.269 158.092C393.672 158.073 393.096 158.138 392.4 158.19C392.067 158.214 391.711 158.237 391.309 158.241C390.091 158.249 388.498 158.122 386.353 157.282C385.21 156.828 383.971 156.406 382.583 155.811C382.265 155.674 381.938 155.528 381.607 155.369C379.831 154.521 377.811 153.324 375.789 151.329C375.279 150.825 374.755 150.49 374.224 150.145C374.195 150.125 374.165 150.105 374.137 150.085C373.638 149.759 373.132 149.411 372.697 148.9C372.639 148.831 372.566 148.743 372.477 148.638C371.515 147.488 368.365 143.72 367.347 137.543C367.345 137.524 367.342 137.505 367.34 137.485C366.722 133.377 366.967 131.15 365.898 129.42C365.638 128.984 365.445 128.57 365.302 128.179C364.994 127.34 364.913 126.647 364.886 126.037C364.879 125.867 364.874 125.706 364.871 125.553C364.864 124.894 364.874 124.374 364.671 123.821C364.062 122.142 362.951 120.779 360.887 118.654C359.142 116.837 358.463 114.761 358.002 112.884L358 112.876C357.945 112.652 357.894 112.432 357.844 112.214ZM431.114 119.964C431.158 120.277 430.332 120.722 429.273 120.959C428.213 121.195 427.329 121.165 427.294 120.893C427.212 120.237 427.107 119.579 426.981 118.925C426.929 118.652 427.715 118.152 428.744 117.807C429.773 117.461 430.667 117.433 430.733 117.746C430.885 118.482 431.013 119.224 431.114 119.964ZM338.819 107.203C338.799 106.6 339.643 106.31 340.68 106.573C341.719 106.835 342.568 107.519 342.596 108.086C342.611 108.386 342.654 108.887 342.729 109.555C343.071 112.986 344.431 120.644 346.935 128.179C347.935 131.299 349.067 134.427 350.169 137.492C350.487 138.377 350.81 139.163 351.133 139.892C352.593 143.048 355.871 144.656 358.575 149.937C365.822 163.97 380.54 175.574 397.884 176.142C407.889 176.583 418.152 173.096 425.344 166.283C430.94 161.016 435.658 155.176 439.042 148.51C442.208 143.22 446.109 131.946 446.051 128.976C446.089 128.536 446.996 128.177 448.084 128.179C449.169 128.182 450.021 128.576 449.981 129.058C450.063 132.227 446.019 144.449 442.601 150.194C438.949 157.428 433.83 163.757 427.745 169.4C419.904 176.711 409.066 181.159 397.884 181.554C378.764 182.538 359.743 171.066 350.945 154.125C347.665 147.725 348.882 144.298 347.366 140.995C347.025 140.202 346.68 139.349 346.342 138.38C345.162 135.009 343.976 131.576 342.951 128.179C340.495 120.304 339.243 112.436 338.937 108.818C338.869 108.09 338.829 107.539 338.819 107.203ZM353.975 85.806C358.045 81.0371 365.618 75.9712 372.829 73.294C376.328 71.9407 379.689 71.0476 382.376 70.4253C386.563 69.4718 389.395 70.0446 392.052 70.7011C392.08 70.7081 392.109 70.715 392.137 70.722C393.936 71.1846 395.684 71.7046 397.884 72.0837C398.927 72.2648 400.053 72.4173 401.35 72.5428C405.403 72.9182 411.087 73.167 416.802 74.5192C416.806 74.5207 416.811 74.5222 416.814 74.5237C422.418 75.7751 429.085 76.495 432.684 79.2792C445.134 89.0933 447.021 99.6671 447.08 104.318C447.04 112.455 452.98 120.153 448.307 127.938C447.264 128.73 444.289 127.422 445.089 126.04C445.11 125.989 445.132 125.938 445.154 125.887C445.357 125.398 445.513 124.96 445.615 124.354C445.668 123.483 445.605 122.837 445.54 122.251C445.64 120.67 443.755 110.161 443.474 105.698C443.43 101.358 438.048 94.5983 427.602 86.3436C424.715 84.0736 421.031 79.4898 415.614 78.2697C415.599 78.2662 415.585 78.2627 415.57 78.2594C410.28 77.0427 404.946 76.8366 401.113 76.4724C399.911 76.3527 398.861 76.2039 397.884 76.0269C395.703 75.6341 393.981 75.0849 392.242 74.6048C392.217 74.5976 392.192 74.5905 392.167 74.5833C389.705 73.9269 387.164 73.3739 383.398 74.2218C380.833 74.8094 377.657 75.6512 374.362 76.9167C367.648 79.3954 360.636 84.0456 356.863 88.4768C356.52 88.8685 355.59 88.6042 354.779 87.8817C353.968 87.1596 353.605 86.2285 353.975 85.806ZM336.466 68.6558C349.289 49.0909 375.512 38.9612 397.884 43.2103C399.567 43.4978 401.212 43.851 402.85 44.2683C409.033 44.7401 417.641 46.4268 425.659 49.6352C425.749 49.6724 425.839 49.7095 425.929 49.7468C433.881 52.8745 441.073 57.3818 445.853 61.0213C462.91 74.1998 468.212 87.2871 469.191 93.7582C469.937 99.9939 470.307 101.463 471.102 103.752C471.122 103.815 471.141 103.878 471.161 103.94C471.164 103.943 471.169 103.946 471.174 103.95C471.247 104.012 471.297 104.069 471.319 104.099C471.367 104.16 471.394 104.213 471.404 104.233C471.429 104.28 471.442 104.32 471.447 104.335C471.469 104.393 471.49 104.462 471.504 104.506C471.619 104.923 471.903 106.236 472.031 107.301C472.165 108.392 472.15 109.197 472.111 110.036C472.108 110.121 472.103 110.206 472.1 110.291C472.061 111.049 472.013 111.871 471.993 113.033C471.98 113.74 471.088 114.4 470.015 114.516C468.943 114.631 468.101 114.194 468.119 113.525C468.147 112.362 468.204 111.53 468.247 110.805C468.252 110.724 468.257 110.644 468.262 110.563C468.302 109.799 468.314 109.119 468.209 108.201C467.964 106.896 467.673 105.954 467.395 105.096C466.618 102.844 466.21 101.234 465.519 94.9852C464.661 89.1322 459.89 76.9037 443.572 64.2239C439.015 60.7446 432.163 56.4367 424.6 53.4472C424.512 53.412 424.422 53.3772 424.334 53.3425C416.699 50.2725 408.51 48.6504 402.627 48.194C401.043 48.0616 399.474 47.9882 397.884 47.9704C376.245 47.7668 356.314 57.6298 339.375 71.3058C336.465 74.5222 334.004 77.6248 331.905 80.6267C325.78 89.461 322.529 97.4587 322.569 105.486C322.6 107.238 321.743 111.573 321.453 117.813C321.37 119.642 321.339 121.634 321.403 123.787C321.445 125.191 321.528 126.648 321.663 128.179C322.033 132.364 322.8 137.005 324.214 141.871C324.615 143.255 325.029 144.49 325.447 145.645C327.342 150.552 328.72 154.428 333.187 163.224C338.309 174.332 352.718 189.496 362.665 194.898C367.446 197.819 370.35 199.214 372.378 200.26C372.945 200.546 373.446 200.797 373.909 201.024C375.126 201.611 376.075 202.044 377.367 202.499C384.554 204.959 390.527 205.573 397.884 205.087C400.086 204.926 402.402 204.643 404.926 204.19C405.607 204.068 406.304 204.829 406.479 205.9C406.654 206.972 406.204 207.959 405.483 208.087C402.761 208.57 400.261 208.869 397.884 209.032C390.194 209.51 383.864 208.856 376.258 206.271C374.84 205.776 373.769 205.292 372.467 204.668C371.988 204.436 371.477 204.183 370.911 203.902C368.812 202.828 365.785 201.39 360.774 198.345C350.314 192.7 335.136 176.794 329.741 165.129C325.071 155.957 323.663 151.943 321.69 146.794C321.252 145.577 320.814 144.267 320.391 142.799C318.893 137.593 318.091 132.632 317.716 128.179C317.586 126.639 317.508 125.168 317.466 123.755C317.403 121.494 317.44 119.409 317.53 117.494C317.859 110.806 318.732 106.529 318.705 104.958C318.703 96.274 322.281 87.5268 328.793 78.2028C330.978 75.0954 333.515 71.918 336.466 68.6558ZM442.665 191.084C442.12 191.542 441.14 191.199 440.487 190.33C439.835 189.461 439.73 188.414 440.242 187.983C442.954 185.692 444.722 183.866 446.069 182.421C448.54 179.724 449.613 178.344 451.403 176.433C455.993 171.471 459.667 165.988 462.349 160.742C466.847 152.003 468.57 144.065 469.451 139.933C469.591 139.281 470.565 138.886 471.639 139.047C472.711 139.209 473.473 139.9 473.327 140.592C472.414 144.919 470.616 153.23 465.907 162.421C463.083 167.965 459.214 173.775 454.348 179.045C452.518 181.001 451.446 182.371 448.899 185.146C447.481 186.666 445.601 188.612 442.665 191.084Z" fill="#2E8B57"/>
<path d="M662.584 181.449V157.086H595.766V137.073H662.584V113.987H572.686V181.449H662.584Z" fill="#2E8B57"/>
<path d="M662.584 68.2515H572.686V94.4367H662.584V68.2515Z" fill="#2E8B57"/>
<path d="M662.584 181.449V157.086H595.766V137.073H662.584V113.987H572.686V181.449H662.584Z" stroke="#2E8B57"/>
<path d="M662.584 68.2515H572.686V94.4367H662.584V68.2515Z" stroke="#2E8B57"/>
<path d="M806.956 132.211V181.449H784.113V66.5869H806.956V112.32H854.499V66.5869H877.341V181.449H854.499V132.211H806.956Z" fill="#2C3E91"/>
<path d="M806.956 132.211V181.449H784.113V66.5869H806.956V112.32H854.499V66.5869H877.341V181.449H854.499V132.211H806.956Z" fill="black" fill-opacity="0.2"/>
<path d="M806.956 132.211V181.449H784.113V66.5869H806.956V112.32H854.499V66.5869H877.341V181.449H854.499V132.211H806.956Z" fill="black" fill-opacity="0.2"/>
<path d="M806.956 132.211V181.449H784.113V66.5869H806.956V112.32H854.499V66.5869H877.341V181.449H854.499V132.211H806.956Z" fill="black" fill-opacity="0.2"/>
<path d="M806.956 132.211V181.449H784.113V66.5869H806.956V112.32H854.499V66.5869H877.341V181.449H854.499V132.211H806.956Z" fill="black" fill-opacity="0.2"/>
<path d="M726.6 162.805C740.594 162.805 750.28 155.626 755.659 141.268L775.79 149.063C771.456 159.992 765.085 168.135 756.678 173.494C748.322 178.797 738.297 181.449 726.6 181.449C714.799 181.449 704.747 179.145 696.443 174.538C688.14 169.877 681.796 163.153 677.409 154.367C673.076 145.58 670.908 135.026 670.908 122.704C670.908 110.274 672.998 99.7732 677.174 91.2012C681.351 82.6291 687.514 76.1196 695.66 71.6729C703.806 67.1725 713.78 64.9224 725.581 64.9224C738.532 64.9224 749.08 67.6011 757.226 72.9587C765.371 78.2627 771.09 86.0847 774.38 96.4248L754.014 102.131C752.291 96.4516 748.897 91.9513 743.832 88.6296C738.818 85.2543 732.891 83.5667 726.051 83.5667C715.608 83.5667 707.67 86.8884 702.239 93.5317C696.861 100.175 694.172 109.899 694.172 122.704C694.172 131.383 695.399 138.696 697.853 144.643C700.36 150.59 704.014 155.117 708.819 158.224C713.675 161.278 719.601 162.805 726.6 162.805Z" fill="#2C3E91"/>
<path d="M726.6 162.805C740.594 162.805 750.28 155.626 755.659 141.268L775.79 149.063C771.456 159.992 765.085 168.135 756.678 173.494C748.322 178.797 738.297 181.449 726.6 181.449C714.799 181.449 704.747 179.145 696.443 174.538C688.14 169.877 681.796 163.153 677.409 154.367C673.076 145.58 670.908 135.026 670.908 122.704C670.908 110.274 672.998 99.7732 677.174 91.2012C681.351 82.6291 687.514 76.1196 695.66 71.6729C703.806 67.1725 713.78 64.9224 725.581 64.9224C738.532 64.9224 749.08 67.6011 757.226 72.9587C765.371 78.2627 771.09 86.0847 774.38 96.4248L754.014 102.131C752.291 96.4516 748.897 91.9513 743.832 88.6296C738.818 85.2543 732.891 83.5667 726.051 83.5667C715.608 83.5667 707.67 86.8884 702.239 93.5317C696.861 100.175 694.172 109.899 694.172 122.704C694.172 131.383 695.399 138.696 697.853 144.643C700.36 150.59 704.014 155.117 708.819 158.224C713.675 161.278 719.601 162.805 726.6 162.805Z" fill="black" fill-opacity="0.2"/>
<path d="M726.6 162.805C740.594 162.805 750.28 155.626 755.659 141.268L775.79 149.063C771.456 159.992 765.085 168.135 756.678 173.494C748.322 178.797 738.297 181.449 726.6 181.449C714.799 181.449 704.747 179.145 696.443 174.538C688.14 169.877 681.796 163.153 677.409 154.367C673.076 145.58 670.908 135.026 670.908 122.704C670.908 110.274 672.998 99.7732 677.174 91.2012C681.351 82.6291 687.514 76.1196 695.66 71.6729C703.806 67.1725 713.78 64.9224 725.581 64.9224C738.532 64.9224 749.08 67.6011 757.226 72.9587C765.371 78.2627 771.09 86.0847 774.38 96.4248L754.014 102.131C752.291 96.4516 748.897 91.9513 743.832 88.6296C738.818 85.2543 732.891 83.5667 726.051 83.5667C715.608 83.5667 707.67 86.8884 702.239 93.5317C696.861 100.175 694.172 109.899 694.172 122.704C694.172 131.383 695.399 138.696 697.853 144.643C700.36 150.59 704.014 155.117 708.819 158.224C713.675 161.278 719.601 162.805 726.6 162.805Z" fill="black" fill-opacity="0.2"/>
<path d="M726.6 162.805C740.594 162.805 750.28 155.626 755.659 141.268L775.79 149.063C771.456 159.992 765.085 168.135 756.678 173.494C748.322 178.797 738.297 181.449 726.6 181.449C714.799 181.449 704.747 179.145 696.443 174.538C688.14 169.877 681.796 163.153 677.409 154.367C673.076 145.58 670.908 135.026 670.908 122.704C670.908 110.274 672.998 99.7732 677.174 91.2012C681.351 82.6291 687.514 76.1196 695.66 71.6729C703.806 67.1725 713.78 64.9224 725.581 64.9224C738.532 64.9224 749.08 67.6011 757.226 72.9587C765.371 78.2627 771.09 86.0847 774.38 96.4248L754.014 102.131C752.291 96.4516 748.897 91.9513 743.832 88.6296C738.818 85.2543 732.891 83.5667 726.051 83.5667C715.608 83.5667 707.67 86.8884 702.239 93.5317C696.861 100.175 694.172 109.899 694.172 122.704C694.172 131.383 695.399 138.696 697.853 144.643C700.36 150.59 704.014 155.117 708.819 158.224C713.675 161.278 719.601 162.805 726.6 162.805Z" fill="black" fill-opacity="0.2"/>
<path d="M726.6 162.805C740.594 162.805 750.28 155.626 755.659 141.268L775.79 149.063C771.456 159.992 765.085 168.135 756.678 173.494C748.322 178.797 738.297 181.449 726.6 181.449C714.799 181.449 704.747 179.145 696.443 174.538C688.14 169.877 681.796 163.153 677.409 154.367C673.076 145.58 670.908 135.026 670.908 122.704C670.908 110.274 672.998 99.7732 677.174 91.2012C681.351 82.6291 687.514 76.1196 695.66 71.6729C703.806 67.1725 713.78 64.9224 725.581 64.9224C738.532 64.9224 749.08 67.6011 757.226 72.9587C765.371 78.2627 771.09 86.0847 774.38 96.4248L754.014 102.131C752.291 96.4516 748.897 91.9513 743.832 88.6296C738.818 85.2543 732.891 83.5667 726.051 83.5667C715.608 83.5667 707.67 86.8884 702.239 93.5317C696.861 100.175 694.172 109.899 694.172 122.704C694.172 131.383 695.399 138.696 697.853 144.643C700.36 150.59 704.014 155.117 708.819 158.224C713.675 161.278 719.601 162.805 726.6 162.805Z" fill="black" fill-opacity="0.2"/>
<path d="M542.808 3.3291L604.317 77.9698H558.099V181.449H525.331V77.9698H479.458L542.808 3.3291Z" fill="#2E8B57"/>
<path d="M256.845 116.683V181.528H236.399V71.5811H262.698L311.315 156.947C310.379 149.04 309.91 141.887 309.91 135.489V71.5811H330.356V181.528H303.355L255.441 96.8632C255.909 100.973 256.247 104.692 256.455 108.022C256.715 111.299 256.845 114.186 256.845 116.683Z" fill="#2C3E91"/>
<path d="M256.845 116.683V181.528H236.399V71.5811H262.698L311.315 156.947C310.379 149.04 309.91 141.887 309.91 135.489V71.5811H330.356V181.528H303.355L255.441 96.8632C255.909 100.973 256.247 104.692 256.455 108.022C256.715 111.299 256.845 114.186 256.845 116.683Z" fill="black" fill-opacity="0.2"/>
<path d="M256.845 116.683V181.528H236.399V71.5811H262.698L311.315 156.947C310.379 149.04 309.91 141.887 309.91 135.489V71.5811H330.356V181.528H303.355L255.441 96.8632C255.909 100.973 256.247 104.692 256.455 108.022C256.715 111.299 256.845 114.186 256.845 116.683Z" fill="black" fill-opacity="0.2"/>
<path d="M256.845 116.683V181.528H236.399V71.5811H262.698L311.315 156.947C310.379 149.04 309.91 141.887 309.91 135.489V71.5811H330.356V181.528H303.355L255.441 96.8632C255.909 100.973 256.247 104.692 256.455 108.022C256.715 111.299 256.845 114.186 256.845 116.683Z" fill="black" fill-opacity="0.2"/>
<path d="M256.845 116.683V181.528H236.399V71.5811H262.698L311.315 156.947C310.379 149.04 309.91 141.887 309.91 135.489V71.5811H330.356V181.528H303.355L255.441 96.8632C255.909 100.973 256.247 104.692 256.455 108.022C256.715 111.299 256.845 114.186 256.845 116.683Z" fill="black" fill-opacity="0.2"/>
<path d="M222.795 71.5811V181.528H199.774V71.5811H222.795Z" fill="#2C3E91"/>
<path d="M222.795 71.5811V181.528H199.774V71.5811H222.795Z" fill="black" fill-opacity="0.2"/>
<path d="M222.795 71.5811V181.528H199.774V71.5811H222.795Z" fill="black" fill-opacity="0.2"/>
<path d="M222.795 71.5811V181.528H199.774V71.5811H222.795Z" fill="black" fill-opacity="0.2"/>
<path d="M222.795 71.5811V181.528H199.774V71.5811H222.795Z" fill="black" fill-opacity="0.2"/>
<path d="M142.521 69.916H1.66504V89.0597H35.5069V125.682V180.31L59.9325 180.617V89.0597H140.726C147.49 89.0597 151.938 89.1117 155.319 91.7648C158.701 94.418 160.392 98.3716 160.392 103.626C160.392 108.88 158.727 112.963 155.397 115.877C152.068 118.79 147.177 120.246 140.726 120.246H114.155H87.5835V138.116V158.144V181.449H110.604V158.989V138.116H137.605L163.877 181.449H189.786L159.299 133.668C166.738 131.899 172.643 128.231 177.013 122.665C181.383 117.047 183.569 110.388 183.569 102.689C183.569 92.129 180.005 84.0397 172.878 78.4215C165.75 72.7511 155.632 69.916 142.521 69.916Z" fill="#2C3E91"/>
<path d="M142.521 69.916H1.66504V89.0597H35.5069V125.682V180.31L59.9325 180.617V89.0597H140.726C147.49 89.0597 151.938 89.1117 155.319 91.7648C158.701 94.418 160.392 98.3716 160.392 103.626C160.392 108.88 158.727 112.963 155.397 115.877C152.068 118.79 147.177 120.246 140.726 120.246H114.155H87.5835V138.116V158.144V181.449H110.604V158.989V138.116H137.605L163.877 181.449H189.786L159.299 133.668C166.738 131.899 172.643 128.231 177.013 122.665C181.383 117.047 183.569 110.388 183.569 102.689C183.569 92.129 180.005 84.0397 172.878 78.4215C165.75 72.7511 155.632 69.916 142.521 69.916Z" fill="black" fill-opacity="0.2"/>
<path d="M142.521 69.916H1.66504V89.0597H35.5069V125.682V180.31L59.9325 180.617V89.0597H140.726C147.49 89.0597 151.938 89.1117 155.319 91.7648C158.701 94.418 160.392 98.3716 160.392 103.626C160.392 108.88 158.727 112.963 155.397 115.877C152.068 118.79 147.177 120.246 140.726 120.246H114.155H87.5835V138.116V158.144V181.449H110.604V158.989V138.116H137.605L163.877 181.449H189.786L159.299 133.668C166.738 131.899 172.643 128.231 177.013 122.665C181.383 117.047 183.569 110.388 183.569 102.689C183.569 92.129 180.005 84.0397 172.878 78.4215C165.75 72.7511 155.632 69.916 142.521 69.916Z" fill="black" fill-opacity="0.2"/>
<path d="M142.521 69.916H1.66504V89.0597H35.5069V125.682V180.31L59.9325 180.617V89.0597H140.726C147.49 89.0597 151.938 89.1117 155.319 91.7648C158.701 94.418 160.392 98.3716 160.392 103.626C160.392 108.88 158.727 112.963 155.397 115.877C152.068 118.79 147.177 120.246 140.726 120.246H114.155H87.5835V138.116V158.144V181.449H110.604V158.989V138.116H137.605L163.877 181.449H189.786L159.299 133.668C166.738 131.899 172.643 128.231 177.013 122.665C181.383 117.047 183.569 110.388 183.569 102.689C183.569 92.129 180.005 84.0397 172.878 78.4215C165.75 72.7511 155.632 69.916 142.521 69.916Z" fill="black" fill-opacity="0.2"/>
<path d="M142.521 69.916H1.66504V89.0597H35.5069V125.682V180.31L59.9325 180.617V89.0597H140.726C147.49 89.0597 151.938 89.1117 155.319 91.7648C158.701 94.418 160.392 98.3716 160.392 103.626C160.392 108.88 158.727 112.963 155.397 115.877C152.068 118.79 147.177 120.246 140.726 120.246H114.155H87.5835V138.116V158.144V181.449H110.604V158.989V138.116H137.605L163.877 181.449H189.786L159.299 133.668C166.738 131.899 172.643 128.231 177.013 122.665C181.383 117.047 183.569 110.388 183.569 102.689C183.569 92.129 180.005 84.0397 172.878 78.4215C165.75 72.7511 155.632 69.916 142.521 69.916Z" fill="black" fill-opacity="0.2"/>
<path d="M533.927 71.5811L493.505 181.528H470.171L429.514 71.5811H453.55L476.179 142.2C476.908 144.488 477.741 147.376 478.676 150.861C479.665 154.294 480.757 158.326 481.954 162.956C483.671 156.453 484.894 151.745 485.622 148.832C486.403 145.919 487.052 143.708 487.573 142.2L510.126 71.5811H533.927Z" fill="#2C3E91"/>
<path d="M533.927 71.5811L493.505 181.528H470.171L429.514 71.5811H453.55L476.179 142.2C476.908 144.488 477.741 147.376 478.676 150.861C479.665 154.294 480.757 158.326 481.954 162.956C483.671 156.453 484.894 151.745 485.622 148.832C486.403 145.919 487.052 143.708 487.573 142.2L510.126 71.5811H533.927Z" fill="black" fill-opacity="0.2"/>
<path d="M533.927 71.5811L493.505 181.528H470.171L429.514 71.5811H453.55L476.179 142.2C476.908 144.488 477.741 147.376 478.676 150.861C479.665 154.294 480.757 158.326 481.954 162.956C483.671 156.453 484.894 151.745 485.622 148.832C486.403 145.919 487.052 143.708 487.573 142.2L510.126 71.5811H533.927Z" fill="black" fill-opacity="0.2"/>
<path d="M533.927 71.5811L493.505 181.528H470.171L429.514 71.5811H453.55L476.179 142.2C476.908 144.488 477.741 147.376 478.676 150.861C479.665 154.294 480.757 158.326 481.954 162.956C483.671 156.453 484.894 151.745 485.622 148.832C486.403 145.919 487.052 143.708 487.573 142.2L510.126 71.5811H533.927Z" fill="black" fill-opacity="0.2"/>
<path d="M533.927 71.5811L493.505 181.528H470.171L429.514 71.5811H453.55L476.179 142.2C476.908 144.488 477.741 147.376 478.676 150.861C479.665 154.294 480.757 158.326 481.954 162.956C483.671 156.453 484.894 151.745 485.622 148.832C486.403 145.919 487.052 143.708 487.573 142.2L510.126 71.5811H533.927Z" fill="black" fill-opacity="0.2"/>
<path d="M429.416 121.663L382.9 145.563L383.543 96.5513L429.416 121.663Z" fill="#2E8B57"/>
<path d="M422.43 117.598C421.332 118.109 420.14 119.068 418.988 119.446C418.971 119.452 418.956 119.457 418.939 119.462C418.468 119.617 417.974 119.745 417.374 119.9C417.299 119.92 417.221 119.94 417.141 119.961C416.432 120.145 415.561 120.376 414.399 120.733C410.497 121.933 407.895 123.805 407.086 124.388C405.463 125.556 403.59 126.526 401.033 127.848C400.8 127.969 400.56 128.092 400.314 128.219C400.116 128.323 399.841 128.193 399.699 127.93C399.558 127.666 399.605 127.369 399.804 127.266C400.044 127.141 400.279 127.02 400.507 126.902C400.508 126.901 400.508 126.901 400.51 126.9C403.082 125.569 404.915 124.62 406.5 123.479C407.326 122.884 409.993 120.968 413.992 119.738C415.167 119.377 416.044 119.142 416.758 118.956C416.837 118.936 416.913 118.917 416.987 118.897C416.988 118.897 416.99 118.897 416.991 118.896C417.594 118.74 418.069 118.618 418.52 118.47C418.53 118.466 418.538 118.463 418.548 118.46C419.713 118.077 420.877 117.128 421.943 116.633C422.146 116.538 422.42 116.678 422.555 116.945C422.69 117.211 422.633 117.504 422.43 117.598ZM386.601 111.823C386.22 110.65 386.285 109.096 386.478 107.726C386.674 106.346 387.01 105.099 387.214 104.513C387.413 103.94 387.483 103.302 387.531 102.539C387.543 102.364 387.553 102.183 387.563 101.996C387.596 101.376 387.635 100.687 387.73 99.9306C387.894 98.6268 387.989 97.5354 388.044 96.6104L381.382 100.499C382.276 101.043 383.008 101.44 383.618 101.756C383.854 101.879 384.075 101.991 384.283 102.096C384.283 102.096 384.283 102.096 384.283 102.096C385.066 102.492 385.649 102.788 386.116 103.185C386.949 103.89 387.621 104.48 388.364 105.319C389.388 106.477 391.234 107.416 392.587 107.747C392.662 107.765 392.739 107.783 392.816 107.802C393.798 108.041 395.008 108.335 396.706 108.989C398.116 109.533 399.253 110.174 400.24 110.778C400.523 110.952 400.79 111.121 401.048 111.283C401.697 111.691 402.278 112.057 402.856 112.346C406.442 114.136 408.373 115.416 409.505 116.371C410.376 117.106 410.782 117.661 411.075 118.061C411.165 118.182 411.241 118.29 411.32 118.383C412.012 119.217 412.738 119.818 413.61 120.542C413.805 120.702 414.007 120.87 414.216 121.046C414.916 121.637 415.518 121.93 416.016 122.115C416.232 122.196 416.43 122.257 416.617 122.313C416.62 122.314 416.624 122.315 416.627 122.316C416.654 122.324 416.679 122.332 416.703 122.34C416.723 122.346 416.743 122.351 416.762 122.357C416.772 122.356 416.78 122.356 416.785 122.356C416.79 122.356 416.793 122.356 416.797 122.356C416.797 122.355 416.797 122.355 416.798 122.355C416.84 122.355 416.873 122.363 416.88 122.365C416.892 122.367 416.9 122.371 416.905 122.373C416.932 122.382 416.965 122.396 416.987 122.406C417.041 122.432 417.136 122.479 417.281 122.553C417.413 122.607 417.546 122.649 417.711 122.702C417.722 122.705 417.732 122.708 417.742 122.711C417.904 122.762 418.094 122.822 418.325 122.907C418.536 122.984 418.613 123.269 418.496 123.544C418.38 123.818 418.115 123.978 417.904 123.901C417.686 123.822 417.508 123.765 417.346 123.715C417.336 123.712 417.326 123.708 417.314 123.705C417.146 123.652 416.986 123.602 416.823 123.533C416.768 123.51 416.712 123.485 416.66 123.461C416.564 123.423 416.45 123.387 416.314 123.345C416.286 123.337 416.257 123.328 416.229 123.319C416.043 123.262 415.826 123.197 415.59 123.109C415.035 122.903 414.371 122.575 413.609 121.933C413.409 121.765 413.214 121.603 413.023 121.445C412.147 120.719 411.366 120.074 410.632 119.189C410.53 119.068 410.439 118.942 410.341 118.808C410.049 118.411 409.701 117.937 408.897 117.258C407.819 116.348 405.936 115.093 402.371 113.313C401.765 113.01 401.144 112.62 400.485 112.204C400.232 112.045 399.974 111.884 399.708 111.721C398.737 111.126 397.635 110.506 396.273 109.981C394.613 109.341 393.436 109.054 392.459 108.816C392.424 108.808 392.391 108.801 392.356 108.793C392.314 108.782 392.273 108.772 392.231 108.762C390.788 108.41 388.82 107.418 387.69 106.14C386.979 105.338 386.336 104.772 385.507 104.07C385.101 103.725 384.601 103.472 383.836 103.084C383.621 102.975 383.386 102.854 383.125 102.719C382.505 102.398 381.765 101.996 380.862 101.448L389.126 96.6245C389.071 97.5649 388.975 98.6737 388.808 99.9975C388.715 100.73 388.679 101.389 388.645 102.005C388.635 102.196 388.624 102.384 388.614 102.568C388.564 103.334 388.492 104.047 388.262 104.709C388.073 105.254 387.745 106.46 387.555 107.802C387.363 109.154 387.318 110.591 387.653 111.622C387.688 111.73 387.721 111.838 387.756 111.946C388.054 112.876 388.359 113.825 388.875 114.593C392.138 118.045 390.798 124.204 390.545 128.274C390.541 128.328 390.538 128.381 390.535 128.435C390.243 133.133 390.227 136.55 390.222 137.715C390.222 137.77 390.222 137.819 390.222 137.863C390.222 137.903 390.222 137.939 390.222 137.971C390.218 138.445 390.252 138.865 390.285 139.306C390.287 139.33 390.29 139.354 390.292 139.378C390.327 139.843 390.362 140.332 390.352 140.908C390.315 142.751 390.33 144.301 390.355 145.661L379.492 138.932C379.687 138.824 379.877 138.718 380.062 138.615C380.306 138.478 380.544 138.346 380.776 138.216C380.777 138.215 380.777 138.215 380.779 138.215C381.795 137.645 382.697 137.139 383.569 136.691C385.159 135.873 386.203 135.261 387.005 134.765C387.257 134.61 387.487 134.465 387.705 134.328C388.174 134.031 388.585 133.772 389.023 133.531C389.844 133.077 390.58 132.616 391.302 132.163C391.367 132.122 391.432 132.083 391.497 132.042C392.281 131.552 393.06 131.07 393.919 130.627C394.117 130.524 394.394 130.655 394.535 130.919C394.675 131.182 394.628 131.479 394.429 131.582C393.595 132.012 392.834 132.482 392.05 132.972C391.985 133.013 391.92 133.054 391.855 133.095C391.134 133.547 390.385 134.014 389.548 134.477C389.126 134.709 388.738 134.954 388.277 135.245C388.058 135.384 387.82 135.533 387.555 135.697C386.741 136.199 385.684 136.821 384.079 137.646C383.216 138.089 382.326 138.588 381.31 139.157C381.077 139.288 380.837 139.422 380.589 139.561C380.393 139.67 380.193 139.782 379.987 139.896L389.271 145.647C389.246 144.291 389.233 142.743 389.268 140.906C389.28 140.361 389.246 139.898 389.21 139.435C389.208 139.409 389.206 139.383 389.205 139.357C389.171 138.921 389.135 138.477 389.138 137.976C389.14 137.909 389.14 137.823 389.141 137.72C389.146 136.554 389.161 133.123 389.454 128.407C389.454 128.392 389.456 128.378 389.458 128.363C389.652 125.203 389.764 123.421 389.514 122.074C389.318 121.011 389.273 120.218 389.256 119.568C389.253 119.444 389.25 119.326 389.248 119.215C389.238 118.731 389.23 118.349 389.16 117.966C388.948 116.809 388.587 115.976 387.908 114.965C387.33 114.108 386.997 113.063 386.704 112.148C386.704 112.146 386.704 112.145 386.702 112.143C386.667 112.035 386.634 111.928 386.601 111.823ZM421.491 123.821C421.685 123.937 421.723 124.241 421.578 124.502C421.431 124.763 421.158 124.881 420.965 124.766C420.508 124.491 420.05 124.216 419.592 123.94C419.399 123.825 419.36 123.521 419.505 123.26C419.652 122.999 419.925 122.881 420.118 122.996C420.576 123.271 421.034 123.546 421.491 123.821ZM381.205 112.687C381.149 112.468 381.34 112.253 381.633 112.207C381.926 112.161 382.211 112.302 382.267 112.522C382.299 112.638 382.354 112.828 382.429 113.085C382.967 114.933 384.505 120.21 384.901 125.788C384.934 126.257 384.968 126.678 384.999 127.079C385.138 128.795 385.888 130.18 385.813 133.456C385.722 137.505 385.524 141.55 385.307 145.595L381.8 143.422C390.63 139.324 399.5 135.317 407.837 130.285C411.248 128.227 414.752 126.381 418.297 124.58C421.252 123.078 426.91 120.795 428.207 120.192C428.41 120.098 428.685 120.238 428.82 120.505C428.955 120.771 428.898 121.063 428.695 121.158C427.406 121.756 421.766 124.031 418.823 125.527C415.285 127.325 411.787 129.167 408.383 131.221C400.036 136.259 391.44 140.859 382.769 145.307L383.186 145.567C383.243 141.513 383.33 137.459 383.421 133.407C383.494 130.162 384.057 128.849 383.921 127.139C383.889 126.737 383.854 126.314 383.821 125.84C383.429 120.34 381.918 115.144 381.373 113.274C381.295 113.009 381.239 112.81 381.205 112.687ZM381.795 102.271C381.763 100.66 381.831 98.6126 381.93 96.5301L381.696 94.045L384.318 95.136C385.311 95.7243 386.31 96.3256 387.26 96.8975C388.559 97.6803 389.767 98.4089 390.745 98.9727C392.259 99.8463 393.1 100.602 393.934 101.351C393.944 101.359 393.953 101.367 393.963 101.375C394.795 102.124 395.631 102.87 397.169 103.757C398.72 104.652 400.978 105.687 403.255 106.732C403.257 106.732 403.259 106.733 403.26 106.734C405.524 107.773 408.085 108.346 409.663 109.258C415.162 112.433 418.238 114.965 419.693 116.427C422.241 118.985 426.234 119.866 428.717 122.697C428.921 123.135 427.949 123.541 427.433 122.987C427.413 122.969 427.393 122.951 427.373 122.932C427.187 122.759 427.02 122.611 426.774 122.429C426.403 122.188 426.115 122.028 425.853 121.882C425.164 121.501 420.468 118.705 419.046 117.277C417.664 115.89 414.032 114.544 408.498 111.348C406.948 110.453 405.063 108.752 402.786 107.708C402.781 107.705 402.774 107.702 402.768 107.699C400.508 106.663 398.228 105.618 396.651 104.708C395.058 103.789 394.184 103.008 393.34 102.249C393.332 102.242 393.323 102.234 393.315 102.227C392.489 101.484 391.687 100.764 390.228 99.9222C389.228 99.3461 388.006 98.6105 386.697 97.8226C385.759 97.2569 384.775 96.6645 383.797 96.0855L382.935 95.7263L383.012 96.5443C382.913 98.6151 382.845 100.646 382.877 102.249C382.88 102.473 382.642 102.66 382.342 102.666C382.044 102.671 381.8 102.494 381.795 102.271ZM375.056 102.131C374.758 100.232 374.571 98.331 374.485 96.4324L373.178 82.4795L387.894 88.605C392.551 90.8082 396.851 93.6516 400.85 96.8952C402.418 97.7998 404.592 99.0861 406.763 100.372C406.788 100.386 406.813 100.401 406.836 100.416C408.984 101.688 411.123 102.953 412.668 103.845C418.167 107.021 421.518 109.079 422.975 110.541C424.332 111.905 424.781 112.152 425.445 112.52C425.464 112.53 425.482 112.541 425.499 112.551C425.5 112.551 425.502 112.551 425.504 112.551C425.534 112.551 425.557 112.554 425.568 112.557C425.592 112.562 425.61 112.568 425.615 112.571C425.632 112.576 425.643 112.583 425.647 112.585C425.665 112.594 425.685 112.605 425.697 112.612C425.813 112.682 426.169 112.914 426.442 113.114C426.722 113.32 426.909 113.489 427.105 113.67C427.123 113.688 427.143 113.707 427.163 113.725C427.34 113.888 427.531 114.066 427.818 114.302C427.992 114.446 428.001 114.762 427.834 115.009C427.668 115.255 427.391 115.338 427.217 115.194C426.915 114.945 426.712 114.756 426.534 114.592C426.516 114.574 426.496 114.555 426.476 114.537C426.289 114.364 426.123 114.216 425.875 114.033C425.504 113.792 425.217 113.632 424.954 113.487C424.267 113.106 423.749 112.818 422.327 111.391C420.945 110.003 417.684 107.991 412.15 104.795C410.604 103.901 408.461 102.634 406.315 101.364C406.29 101.349 406.265 101.334 406.24 101.319C404.068 100.033 401.897 98.7473 400.332 97.8447C395.869 95.27 391.294 93.0611 386.879 90.4593L375.597 85.7632L376.597 96.4601C376.514 98.3351 376.374 100.216 376.138 102.109C376.163 103.41 376.164 104.6 376.164 105.702C376.168 108.945 376.171 111.434 376.795 113.815C376.933 114.337 377.038 115.702 377.165 117.674C377.201 118.252 377.24 118.886 377.281 119.571C377.385 121.251 377.508 123.241 377.668 125.483C377.701 125.953 377.734 126.374 377.766 126.775C377.904 128.49 378.012 129.844 377.939 133.121C377.862 136.485 377.601 141.744 377.37 145.49L378.275 155.178L385.427 150.482C386.105 150.175 386.731 149.894 387.277 149.651C388.935 148.916 389.887 148.534 390.566 148.275C390.755 148.202 390.923 148.14 391.076 148.083C391.475 147.934 391.787 147.817 392.181 147.642C395.031 146.385 396.911 145.277 399.962 143.413C400.152 143.296 400.43 143.41 400.582 143.668C400.733 143.926 400.702 144.23 400.51 144.346C397.454 146.214 395.547 147.339 392.659 148.613C392.244 148.795 391.913 148.92 391.505 149.072C391.354 149.129 391.194 149.189 391.014 149.257C390.347 149.512 389.403 149.89 387.755 150.621C387.212 150.862 386.594 151.14 385.922 151.445L377.371 157.06L376.288 145.476C376.519 141.735 376.78 136.475 376.857 133.116C376.93 129.872 376.824 128.544 376.687 126.835C376.654 126.433 376.621 126.01 376.586 125.536C376.427 123.291 376.304 121.295 376.199 119.615C376.158 118.931 376.119 118.298 376.083 117.723C375.953 115.711 375.851 114.428 375.733 113.981C375.086 111.517 375.084 108.919 375.082 105.646C375.081 104.556 375.081 103.391 375.056 102.131ZM411.504 137.753C411.313 137.869 411.035 137.753 410.885 137.495C410.734 137.237 410.767 136.934 410.958 136.818C411.972 136.206 412.698 135.759 413.264 135.409C414.313 134.761 414.819 134.448 415.613 134.049C417.664 133.019 419.64 132.016 421.418 131.112C424.373 129.611 426.782 128.387 428.079 127.785C428.282 127.69 428.557 127.83 428.692 128.097C428.825 128.363 428.77 128.656 428.567 128.75C427.278 129.349 424.888 130.563 421.944 132.058C420.165 132.963 418.182 133.97 416.117 135.007C415.347 135.394 414.869 135.689 413.843 136.322C413.277 136.672 412.545 137.125 411.504 137.753Z" fill="#26547C" fill-opacity="0.521569"/>
</svg>
