<svg width="677" height="677" viewBox="0 0 677 677" fill="none" xmlns="http://www.w3.org/2000/svg">
<g clip-path="url(#clip0_169_701)">
<mask id="mask0_169_701" style="mask-type:luminance" maskUnits="userSpaceOnUse" x="0" y="0" width="677" height="677">
<path d="M677 338.5C677 151.552 525.448 0 338.5 0C151.552 0 0 151.552 0 338.5C0 525.448 151.552 677 338.5 677C525.448 677 677 525.448 677 338.5Z" fill="white"/>
</mask>
<g mask="url(#mask0_169_701)">
<path d="M677 338.5C677 151.552 525.448 0 338.5 0C151.552 0 0 151.552 0 338.5C0 525.448 151.552 677 338.5 677C525.448 677 677 525.448 677 338.5Z" fill="#F0F6FF"/>
<path d="M582.395 404.378L545.318 436.197L591.41 452.397L582.395 404.378ZM368.288 100.683C374.395 111.548 388.152 115.404 399.018 109.297C409.881 103.189 413.737 89.4311 407.63 78.567C401.523 67.7025 387.766 63.8462 376.9 69.9536C366.037 76.0609 362.181 89.819 368.288 100.683ZM569.766 440.307L565.89 438.606C544.968 486.34 509.474 526.644 464.041 553.431L466.191 557.078L468.337 560.722C515.313 533.025 552.009 491.355 573.642 442.005L569.766 440.307ZM466.191 557.078L464.041 553.431C407.774 586.606 340.748 596.409 277.338 580.733L276.322 584.841L275.307 588.948C340.867 605.153 410.166 595.021 468.337 560.722L466.191 557.078ZM276.322 584.841L277.338 580.733C213.929 565.058 159.188 525.155 124.86 469.584L121.261 471.807L117.661 474.033C153.152 531.484 209.748 572.742 275.307 588.948L276.322 584.841ZM121.261 471.807L124.86 469.584C90.5324 414.014 79.3511 347.202 93.7154 283.485L89.5877 282.554L85.4599 281.623C70.6088 347.501 82.1692 416.578 117.661 474.033L121.261 471.807ZM89.5877 282.554L93.7154 283.485C108.08 219.765 146.845 164.214 201.695 128.747L199.398 125.194L197.1 121.641C140.391 158.31 100.311 215.744 85.4599 281.623L89.5877 282.554ZM199.398 125.194L201.695 128.747C256.546 93.2804 323.112 80.7241 387.114 93.7713L387.958 89.6252L388.804 85.4791C322.633 71.9896 253.81 84.9719 197.1 121.641L199.398 125.194Z" fill="#2E8B57"/>
<path d="M305.612 235.51C305.657 247.973 315.795 258.04 328.26 257.995C340.723 257.951 350.79 247.811 350.745 235.348C350.7 222.885 340.559 212.817 328.097 212.862C315.634 212.907 305.567 223.047 305.612 235.51ZM466.397 234.932C466.442 247.395 476.583 257.462 489.045 257.418C501.508 257.373 511.575 247.233 511.53 234.77C511.488 222.307 501.347 212.24 488.884 212.285C476.419 212.329 466.354 222.469 466.397 234.932ZM170.213 235.997L170.228 240.228L328.193 239.66L328.179 235.429L328.162 231.198L170.197 231.766L170.213 235.997ZM164.724 278.61L168.955 278.595L168.822 241.643L164.591 241.659L160.36 241.674L160.493 278.625L164.724 278.61ZM223.16 284.041L223.144 279.81L170.371 280L170.386 284.23L170.401 288.461L223.175 288.272L223.16 284.041ZM290.168 297.75L285.937 297.719L284.704 464.182L288.935 464.213L293.166 464.244L294.399 297.781L290.168 297.75ZM274.882 478.213L274.867 473.982L250.225 474.072L250.241 478.303L250.256 482.535L274.897 482.444L274.882 478.213ZM236.086 464.095L240.317 464.126L241.545 298.281L237.314 298.25L233.083 298.219L231.855 464.064L236.086 464.095ZM342.861 283.612L342.844 279.38L304.204 279.519L304.221 283.75L304.235 287.982L342.875 287.843L342.861 283.612ZM488.963 234.851L488.949 230.62L388.293 230.982L388.308 235.213L388.322 239.444L488.98 239.082L488.963 234.851ZM376.347 241.925L372.742 239.707L351.216 274.682L354.821 276.9L358.424 279.117L379.949 244.142L376.347 241.925ZM388.308 235.213L388.293 230.982C381.949 231.005 376.068 234.304 372.742 239.707L376.347 241.925L379.949 244.142C381.741 241.233 384.906 239.456 388.322 239.444L388.308 235.213ZM342.861 283.612L342.875 287.843C349.219 287.821 355.101 284.521 358.424 279.117L354.821 276.9L351.216 274.682C349.428 277.591 346.26 279.368 342.844 279.38L342.861 283.612ZM250.241 478.303L250.225 474.072C244.73 474.092 240.277 469.621 240.317 464.126L236.086 464.095L231.855 464.064C231.779 474.267 240.051 482.571 250.256 482.535L250.241 478.303ZM290.168 297.75L294.399 297.781C294.439 292.371 298.825 288.001 304.235 287.982L304.221 283.75L304.204 279.519C294.157 279.555 286.01 287.671 285.937 297.719L290.168 297.75ZM223.16 284.041L223.175 288.272C228.67 288.253 233.124 292.724 233.083 298.219L237.314 298.25L241.545 298.281C241.621 288.075 233.35 279.773 223.144 279.81L223.16 284.041ZM164.724 278.61L160.493 278.625C160.512 284.078 164.948 288.481 170.401 288.461L170.386 284.23L170.371 280C169.592 280.003 168.958 279.373 168.955 278.595L164.724 278.61ZM288.935 464.213L284.704 464.182C284.664 469.593 280.277 473.962 274.867 473.982L274.882 478.213L274.897 482.444C284.944 482.408 293.09 474.292 293.166 464.244L288.935 464.213ZM170.213 235.997L170.197 231.766C164.745 231.785 160.34 236.221 160.36 241.674L164.591 241.659L168.822 241.643C168.82 240.864 169.449 240.231 170.228 240.228L170.213 235.997Z" fill="#2C3E91"/>
<g filter="url(#filter0_d_169_701)">
<path d="M308.591 279.222C306.252 279.231 304.365 281.132 304.374 283.468C304.382 285.807 306.283 287.694 308.619 287.686L308.605 283.454L308.591 279.222ZM521.575 282.687C521.62 295.152 531.761 305.22 544.223 305.175C556.686 305.13 566.753 294.989 566.708 282.526C566.666 270.063 556.525 259.996 544.063 260.041C531.597 260.085 521.533 270.225 521.575 282.687ZM390.654 283.158L390.64 278.928L308.591 279.222L308.605 283.454L308.619 287.686L390.669 287.389L390.654 283.158ZM544.142 282.608L544.127 278.376L472.007 278.635L472.024 282.868L472.038 287.099L544.158 286.839L544.142 282.608ZM457.971 296.831L453.74 296.788L452.089 463.607L456.318 463.646L460.549 463.689L462.202 296.873L457.971 296.831ZM442.267 477.612L442.25 473.381L417.303 473.471L417.32 477.703L417.334 481.934L442.281 481.844L442.267 477.612ZM403.165 463.457L407.396 463.5L409.041 297.446L404.809 297.403L400.578 297.361L398.934 463.415L403.165 463.457ZM417.32 477.703L417.303 473.471C411.799 473.491 407.342 469.006 407.396 463.5L403.165 463.457L398.934 463.415C398.832 473.638 407.111 481.97 417.334 481.934L417.32 477.703ZM456.318 463.646L452.089 463.607C452.036 469.006 447.652 473.361 442.25 473.381L442.267 477.612L442.281 481.844C452.312 481.807 460.45 473.72 460.549 463.689L456.318 463.646ZM472.024 282.868L472.007 278.635C461.979 278.671 453.838 286.76 453.74 296.788L457.971 296.831L462.202 296.873C462.256 291.471 466.636 287.116 472.038 287.099L472.024 282.868ZM390.654 283.158L390.669 287.389C396.175 287.37 400.632 291.858 400.578 297.361L404.809 297.403L409.041 297.446C409.142 287.223 400.863 278.891 390.64 278.928L390.654 283.158Z" fill="#2C3E91"/>
</g>
</g>
</g>
<defs>
<filter id="filter0_d_169_701" x="300.374" y="260.041" width="270.335" height="229.893" filterUnits="userSpaceOnUse" color-interpolation-filters="sRGB">
<feFlood flood-opacity="0" result="BackgroundImageFix"/>
<feColorMatrix in="SourceAlpha" type="matrix" values="0 0 0 0 0 0 0 0 0 0 0 0 0 0 0 0 0 0 127 0" result="hardAlpha"/>
<feOffset dy="4"/>
<feGaussianBlur stdDeviation="2"/>
<feComposite in2="hardAlpha" operator="out"/>
<feColorMatrix type="matrix" values="0 0 0 0 0 0 0 0 0 0 0 0 0 0 0 0 0 0 0.25 0"/>
<feBlend mode="normal" in2="BackgroundImageFix" result="effect1_dropShadow_169_701"/>
<feBlend mode="normal" in="SourceGraphic" in2="effect1_dropShadow_169_701" result="shape"/>
</filter>
<clipPath id="clip0_169_701">
<rect width="677" height="677" fill="white"/>
</clipPath>
</defs>
</svg>
