<svg width="531" height="167" viewBox="0 0 531 167" fill="none" xmlns="http://www.w3.org/2000/svg">
<path d="M256.844 80.2313C256.592 81.0758 256.954 82.3453 256.257 83.0645C256.248 83.0744 256.238 83.0842 256.228 83.094C255.947 83.3792 255.587 83.6355 255.145 83.9145C255.089 83.9501 255.03 83.9859 254.971 84.0223C254.446 84.3446 253.805 84.7144 253.002 85.1646C250.361 86.5843 249.723 88.4388 249.395 89.1673C248.819 90.5061 247.602 91.4048 245.838 92.2273C245.676 92.3022 245.507 92.3741 245.334 92.4472C245.193 92.5072 244.884 92.0631 244.645 91.456C244.406 90.8486 244.309 90.3169 244.427 90.2665C244.571 90.205 244.712 90.1423 244.848 90.0796C244.848 90.0793 244.849 90.079 244.85 90.0787C246.369 89.3688 247.394 88.6062 247.821 87.4207C248.088 86.7382 248.507 85.0556 251.008 83.9363C251.759 83.5789 252.366 83.278 252.866 83.0142C252.92 82.9852 252.974 82.9569 253.026 82.9286C253.027 82.928 253.029 82.9273 253.03 82.9267C253.45 82.6979 253.78 82.4928 254.033 82.2623C254.037 82.2572 254.042 82.2521 254.047 82.247C254.71 81.6291 254.295 80.5165 254.52 79.8102C254.564 79.6736 255.121 79.6454 255.765 79.7494C256.408 79.8534 256.892 80.0701 256.844 80.2313ZM214.949 67.4095C214.597 65.9358 215.456 64.3885 216.557 63.3396C217.664 62.265 219.024 61.6499 219.729 61.4607C220.422 61.2709 220.933 60.882 221.514 60.3914C221.647 60.2791 221.784 60.1618 221.926 60.0424C222.396 59.6485 222.937 59.2266 223.62 58.8906C226.128 57.6795 227.61 56.9395 228.677 56.3204C228.896 56.1963 229.1 56.0794 229.291 55.9727C229.292 55.9725 229.292 55.9724 229.292 55.9722C230.018 55.5704 230.586 55.301 231.208 55.3618C232.309 55.477 233.208 55.6613 234.284 56.2659C235.758 57.0939 237.325 56.7754 238.491 55.9708C238.555 55.9262 238.62 55.8791 238.686 55.8332C238.787 55.7638 238.891 55.6932 239 55.6221C239.81 55.0962 240.858 54.5189 242.408 54.2749C243.87 54.0497 245.105 54.3982 246.105 54.8482C246.394 54.9779 246.662 55.1166 246.916 55.2521C247.562 55.5957 248.114 55.9286 248.686 56.1356C252.251 57.4713 253.688 59.4168 254.209 60.7522C254.613 61.8129 254.506 62.6526 254.42 63.2413C254.393 63.4198 254.366 63.5777 254.353 63.7128C254.241 64.915 254.367 65.7227 254.452 66.6917C254.469 66.9059 254.483 67.128 254.489 67.3608C254.506 68.1365 254.788 68.5195 255.115 68.7897C255.257 68.9071 255.405 69.0019 255.545 69.0926C255.547 69.0941 255.55 69.0956 255.553 69.0972C255.573 69.1098 255.591 69.1228 255.61 69.1354C255.625 69.1449 255.641 69.1533 255.655 69.163C255.669 69.1632 255.678 69.1646 255.686 69.1653C255.692 69.1658 255.696 69.1663 255.699 69.1667C255.7 69.1665 255.701 69.1664 255.702 69.1662C255.755 69.1723 255.782 69.1868 255.787 69.1897C255.797 69.1947 255.803 69.2005 255.806 69.2032C255.825 69.2174 255.842 69.2391 255.852 69.2539C255.879 69.292 255.921 69.3602 255.981 69.4686C256.056 69.5529 256.151 69.6243 256.269 69.7155C256.277 69.7212 256.285 69.7268 256.292 69.7325C256.408 69.8212 256.541 69.9276 256.686 70.0736C256.818 70.2079 256.437 70.5205 255.836 70.7646C255.235 71.0089 254.649 71.1103 254.527 70.9986C254.399 70.8811 254.281 70.7973 254.171 70.7226C254.164 70.718 254.157 70.7134 254.15 70.7088C254.036 70.6313 253.929 70.5587 253.844 70.4684C253.816 70.4382 253.79 70.4058 253.767 70.3747C253.713 70.325 253.635 70.2759 253.539 70.2201C253.52 70.2089 253.501 70.1968 253.481 70.1851C253.35 70.1106 253.196 70.0258 253.053 69.919C252.715 69.6665 252.443 69.3047 252.471 68.5395C252.478 68.338 252.476 68.1436 252.471 67.9527C252.442 67.0691 252.363 66.279 252.535 65.0758C252.558 64.9103 252.596 64.7351 252.632 64.5472C252.737 63.9914 252.854 63.3086 252.548 62.3971C252.143 61.2161 250.913 59.4587 247.719 58.291C247.18 58.1005 246.656 57.7732 246.069 57.4512C245.847 57.3287 245.614 57.209 245.372 57.0967C244.492 56.688 243.418 56.3819 242.144 56.6148C240.69 56.8868 239.74 57.4978 239 58.0419C238.951 58.078 238.903 58.114 238.856 58.1497C238.83 58.1703 238.804 58.1909 238.778 58.2116C238.745 58.2365 238.713 58.2613 238.682 58.2858C237.563 59.1346 236.125 59.4635 234.638 58.5246C233.696 57.9334 232.913 57.7351 231.914 57.5904C231.419 57.5231 230.985 57.7315 230.347 58.0869C230.168 58.187 229.973 58.2975 229.756 58.4214C228.783 58.9925 227.438 59.6597 225.112 60.7155C224.504 60.9968 224.033 61.3566 223.607 61.706C223.474 61.8147 223.345 61.9225 223.217 62.0279C222.684 62.4678 222.169 62.857 221.41 63.0336C220.788 63.1744 219.542 63.6803 218.534 64.6174C217.518 65.547 216.821 66.8614 217.155 68.0676C217.189 68.1926 217.223 68.3174 217.259 68.4417C217.565 69.5108 217.958 70.5566 218.898 71.4837C221.985 73.8239 222.886 75.3441 223.053 77C223.218 78.6356 222.701 80.4038 222.904 81.8327C222.908 81.8693 222.913 81.9058 222.919 81.9424C223.393 85.1987 225.059 87.1917 225.568 87.7957C225.593 87.825 225.616 87.8515 225.636 87.8754C225.655 87.8967 225.672 87.9152 225.687 87.9322C225.905 88.1879 226.165 88.3572 226.438 88.5251C226.453 88.5342 226.468 88.5433 226.483 88.5524C226.772 88.7291 227.071 88.9083 227.355 89.1902C228.414 90.2401 229.481 90.8591 230.419 91.2935C230.593 91.3738 230.763 91.45 230.93 91.5195C230.931 91.5198 230.931 91.52 230.932 91.5203C231.667 91.8247 232.329 92.0389 232.936 92.2802C234.049 92.7172 234.878 92.7669 235.51 92.7439C235.71 92.7361 235.894 92.72 236.066 92.7016C236.44 92.6618 236.761 92.6147 237.084 92.6208C237.694 92.6318 238.263 92.503 238.81 92.3519C238.859 92.3384 238.908 92.326 238.957 92.3122C238.971 92.3081 238.986 92.304 239 92.2998C239.58 92.1341 240.121 91.9545 240.695 91.887C240.831 91.871 241.011 92.3827 241.099 93.0295C241.186 93.6757 241.129 94.2172 240.968 94.2361C240.307 94.3136 239.683 94.5007 239 94.6713C239 94.6713 239 94.6713 239 94.6713C238.944 94.6853 238.887 94.7005 238.83 94.7142C238.203 94.8657 237.541 94.9902 236.829 94.969C236.47 94.9579 236.124 94.9967 235.706 95.0279C235.506 95.0426 235.292 95.056 235.051 95.0583C234.319 95.0632 233.362 94.9873 232.074 94.4824C231.387 94.2095 230.643 93.9563 229.809 93.5988C229.618 93.5165 229.422 93.4287 229.223 93.3335C228.156 92.8238 226.943 92.1046 225.728 90.9065C225.422 90.6039 225.107 90.4025 224.788 90.1949C224.771 90.1831 224.753 90.1712 224.736 90.1592C224.436 89.963 224.132 89.7542 223.871 89.447C223.836 89.4059 223.792 89.3529 223.739 89.2897C223.161 88.5988 221.269 86.3358 220.657 82.6247C220.656 82.6132 220.654 82.6018 220.653 82.5903C220.282 80.1225 220.429 78.7847 219.787 77.745C219.631 77.4836 219.515 77.2345 219.429 77C219.244 76.4957 219.195 76.0794 219.179 75.7128C219.175 75.6107 219.172 75.5142 219.17 75.4225C219.166 75.0265 219.172 74.7142 219.05 74.3819C218.684 73.3731 218.017 72.5543 216.777 71.2777C215.729 70.1865 215.321 68.9396 215.044 67.8117C215.044 67.81 215.044 67.8084 215.043 67.8067C215.01 67.6726 214.979 67.5401 214.949 67.4095ZM258.961 72.0647C258.987 72.2528 258.491 72.5203 257.855 72.6623C257.218 72.8042 256.687 72.7865 256.666 72.6229C256.617 72.2286 256.554 71.8334 256.478 71.4406C256.447 71.2769 256.919 70.9766 257.537 70.769C258.155 70.5614 258.692 70.5446 258.732 70.7323C258.823 71.1746 258.9 71.6202 258.961 72.0647ZM203.521 64.3988C203.509 64.0366 204.016 63.8629 204.639 64.0206C205.263 64.1782 205.773 64.5892 205.79 64.9295C205.799 65.11 205.825 65.4105 205.87 65.8117C206.075 67.8732 206.892 72.4733 208.396 77C208.997 78.8741 209.677 80.753 210.339 82.5944C210.53 83.1261 210.724 83.5979 210.918 84.036C211.795 85.9319 213.764 86.8981 215.388 90.0702C219.741 98.5002 228.582 105.471 239 105.812C245.01 106.077 251.175 103.982 255.495 99.8895C258.856 96.7258 261.69 93.2176 263.723 89.2132C265.625 86.0352 267.968 79.2626 267.933 77.4788C267.956 77.2142 268.501 76.9988 269.154 77C269.806 77.0013 270.318 77.2385 270.294 77.5275C270.343 79.4312 267.914 86.7735 265.861 90.2246C263.667 94.5704 260.592 98.372 256.937 101.762C252.227 106.154 245.717 108.826 239 109.063C227.515 109.654 216.09 102.763 210.805 92.586C208.835 88.7413 209.566 86.6829 208.655 84.6988C208.45 84.2225 208.243 83.7099 208.04 83.1279C207.331 81.1028 206.619 79.0407 206.003 77C204.528 72.2688 203.776 67.5425 203.592 65.3692C203.551 64.9317 203.527 64.6007 203.521 64.3988ZM212.625 51.5455C215.07 48.6807 219.619 45.6375 223.95 44.0293C226.052 43.2163 228.071 42.6798 229.685 42.306C232.2 41.7332 233.901 42.0773 235.497 42.4717C235.514 42.4759 235.531 42.48 235.548 42.4842C236.629 42.7621 237.679 43.0745 239 43.3022C239.627 43.411 240.303 43.5026 241.082 43.578C243.517 43.8035 246.931 43.953 250.364 44.7653C250.366 44.7662 250.369 44.7671 250.371 44.768C253.737 45.5197 257.742 45.9522 259.904 47.6247C267.382 53.5202 268.516 59.8721 268.551 62.6658C268.527 67.5539 272.095 72.1786 269.288 76.8549C268.662 77.3305 266.875 76.5449 267.355 75.715C267.368 75.6843 267.381 75.6536 267.394 75.6228C267.516 75.3289 267.61 75.0663 267.671 74.702C267.703 74.1788 267.665 73.791 267.626 73.4389C267.686 72.4889 266.554 66.1763 266.385 63.4952C266.359 60.8881 263.126 56.8272 256.851 51.8684C255.117 50.5048 252.904 47.7512 249.65 47.0183C249.641 47.0162 249.633 47.0141 249.624 47.0121C246.446 46.2812 243.242 46.1574 240.94 45.9386C240.218 45.8667 239.587 45.7773 239 45.671C237.69 45.435 236.656 45.1051 235.611 44.8167C235.596 44.8124 235.581 44.8081 235.566 44.8038C234.087 44.4095 232.561 44.0773 230.299 44.5866C228.758 44.9396 226.85 45.4453 224.871 46.2055C220.838 47.6945 216.626 50.488 214.36 53.1499C214.154 53.3852 213.595 53.2264 213.108 52.7924C212.621 52.3586 212.403 51.7993 212.625 51.5455ZM202.108 41.243C209.81 29.49 225.562 23.4049 239 25.9574C240.011 26.1301 240.999 26.3423 241.983 26.593C245.697 26.8764 250.868 27.8896 255.684 29.817C255.738 29.8393 255.792 29.8616 255.846 29.884C260.623 31.7629 264.943 34.4705 267.814 36.6568C278.06 44.5734 281.245 52.4352 281.833 56.3225C282.281 60.0684 282.503 60.9509 282.981 62.3261C282.993 62.3638 283.004 62.4014 283.016 62.4391C283.018 62.441 283.021 62.4428 283.024 62.4447C283.068 62.4822 283.098 62.5163 283.111 62.5344C283.14 62.5711 283.156 62.6032 283.162 62.6152C283.177 62.6429 283.185 62.6674 283.188 62.6761C283.201 62.7113 283.214 62.7524 283.222 62.7792C283.291 63.0293 283.462 63.8182 283.539 64.4581C283.619 65.1134 283.61 65.5967 283.587 66.1007C283.585 66.1518 283.582 66.203 283.58 66.2542C283.557 66.7092 283.528 67.2035 283.516 67.9014C283.508 68.3258 282.972 68.7227 282.328 68.7924C281.684 68.8613 281.178 68.5984 281.189 68.1966C281.206 67.4983 281.24 66.9981 281.266 66.5627C281.269 66.5143 281.272 66.4659 281.275 66.4175C281.299 65.9585 281.306 65.5502 281.243 64.9985C281.096 64.2146 280.921 63.6486 280.754 63.1334C280.287 61.7805 280.042 60.8134 279.627 57.0596C279.112 53.5436 276.246 46.1977 266.444 38.5807C263.707 36.4906 259.591 33.9028 255.048 32.1069C254.995 32.0858 254.941 32.0649 254.888 32.044C250.302 30.1998 245.383 29.2254 241.849 28.9512C240.898 28.8717 239.955 28.8276 239 28.8169C226.002 28.6946 214.03 34.6195 203.855 42.8349C202.107 44.7671 200.629 46.6309 199.368 48.4342C195.689 53.7411 193.736 58.5455 193.76 63.3678C193.779 64.4203 193.264 67.0242 193.09 70.7726C193.04 71.8715 193.021 73.0682 193.06 74.3615C193.085 75.2051 193.135 76.0803 193.216 77C193.438 79.5135 193.899 82.3015 194.748 85.2246C194.989 86.0561 195.238 86.7983 195.489 87.492C196.627 90.4396 197.455 92.7683 200.138 98.0521C203.215 104.725 211.87 113.834 217.845 117.079C220.717 118.834 222.461 119.672 223.679 120.3C224.02 120.472 224.321 120.623 224.599 120.759C225.33 121.112 225.9 121.372 226.676 121.645C230.993 123.123 234.581 123.492 239 123.2C240.323 123.103 241.714 122.933 243.23 122.661C243.639 122.588 244.058 123.045 244.163 123.688C244.268 124.332 243.998 124.925 243.565 125.002C241.93 125.292 240.428 125.472 239 125.57C234.381 125.857 230.579 125.464 226.01 123.911C225.158 123.614 224.515 123.323 223.733 122.948C223.445 122.809 223.138 122.657 222.798 122.488C221.537 121.843 219.719 120.979 216.709 119.15C210.426 115.759 201.309 106.204 198.068 99.1966C195.263 93.6865 194.417 91.2753 193.232 88.1824C192.969 87.4511 192.706 86.6642 192.452 85.7821C191.552 82.655 191.07 79.6749 190.845 77C190.767 76.0747 190.72 75.1912 190.695 74.3423C190.657 72.9842 190.679 71.7317 190.733 70.5808C190.931 66.5636 191.455 63.9943 191.439 63.0502C191.438 57.8338 193.587 52.5792 197.499 46.9781C198.811 45.1114 200.335 43.2027 202.108 41.243ZM265.899 114.788C265.572 115.063 264.983 114.857 264.591 114.335C264.199 113.813 264.136 113.184 264.444 112.925C266.073 111.549 267.135 110.452 267.944 109.584C269.428 107.964 270.073 107.135 271.148 105.987C273.905 103.006 276.112 99.7124 277.723 96.5611C280.425 91.3111 281.46 86.5426 281.989 84.0606C282.073 83.6691 282.658 83.4316 283.303 83.5286C283.947 83.6258 284.405 84.0406 284.317 84.4565C283.769 87.0556 282.689 92.0484 279.86 97.5695C278.164 100.9 275.84 104.39 272.917 107.556C271.818 108.731 271.174 109.554 269.644 111.221C268.792 112.134 267.663 113.303 265.899 114.788Z" fill="#2D9CDB"/>
<path d="M256.844 80.2313C256.592 81.0758 256.954 82.3453 256.257 83.0645C256.248 83.0744 256.238 83.0842 256.228 83.094C255.947 83.3792 255.587 83.6355 255.145 83.9145C255.089 83.9501 255.03 83.9859 254.971 84.0223C254.446 84.3446 253.805 84.7144 253.002 85.1646C250.361 86.5843 249.723 88.4388 249.395 89.1673C248.819 90.5061 247.602 91.4048 245.838 92.2273C245.676 92.3022 245.507 92.3741 245.334 92.4472C245.193 92.5072 244.884 92.0631 244.645 91.456C244.406 90.8486 244.309 90.3169 244.427 90.2665C244.571 90.205 244.712 90.1423 244.848 90.0796C244.848 90.0793 244.849 90.079 244.85 90.0787C246.369 89.3688 247.394 88.6062 247.821 87.4207C248.088 86.7382 248.507 85.0556 251.008 83.9363C251.759 83.5789 252.366 83.278 252.866 83.0142C252.92 82.9852 252.974 82.9569 253.026 82.9286C253.027 82.928 253.029 82.9273 253.03 82.9267C253.45 82.6979 253.78 82.4928 254.033 82.2623C254.037 82.2572 254.042 82.2521 254.047 82.247C254.71 81.6291 254.295 80.5165 254.52 79.8102C254.564 79.6736 255.121 79.6454 255.765 79.7494C256.408 79.8534 256.892 80.0701 256.844 80.2313ZM214.949 67.4095C214.597 65.9358 215.456 64.3885 216.557 63.3396C217.664 62.265 219.024 61.6499 219.729 61.4607C220.422 61.2709 220.933 60.882 221.514 60.3914C221.647 60.2791 221.784 60.1618 221.926 60.0424C222.396 59.6485 222.937 59.2266 223.62 58.8906C226.128 57.6795 227.61 56.9395 228.677 56.3204C228.896 56.1963 229.1 56.0794 229.291 55.9727C229.292 55.9725 229.292 55.9724 229.292 55.9722C230.018 55.5704 230.586 55.301 231.208 55.3618C232.309 55.477 233.208 55.6613 234.284 56.2659C235.758 57.0939 237.325 56.7754 238.491 55.9708C238.555 55.9262 238.62 55.8791 238.686 55.8332C238.787 55.7638 238.891 55.6932 239 55.6221C239.81 55.0962 240.858 54.5189 242.408 54.2749C243.87 54.0497 245.105 54.3982 246.105 54.8482C246.394 54.9779 246.662 55.1166 246.916 55.2521C247.562 55.5957 248.114 55.9286 248.686 56.1356C252.251 57.4713 253.688 59.4168 254.209 60.7522C254.613 61.8129 254.506 62.6526 254.42 63.2413C254.393 63.4198 254.366 63.5777 254.353 63.7128C254.241 64.915 254.367 65.7227 254.452 66.6917C254.469 66.9059 254.483 67.128 254.489 67.3608C254.506 68.1365 254.788 68.5195 255.115 68.7897C255.257 68.9071 255.405 69.0019 255.545 69.0926C255.547 69.0941 255.55 69.0956 255.553 69.0972C255.573 69.1098 255.591 69.1228 255.61 69.1354C255.625 69.1449 255.641 69.1533 255.655 69.163C255.669 69.1632 255.678 69.1646 255.686 69.1653C255.692 69.1658 255.696 69.1663 255.699 69.1667C255.7 69.1665 255.701 69.1664 255.702 69.1662C255.755 69.1723 255.782 69.1868 255.787 69.1897C255.797 69.1947 255.803 69.2005 255.806 69.2032C255.825 69.2174 255.842 69.2391 255.852 69.2539C255.879 69.292 255.921 69.3602 255.981 69.4686C256.056 69.5529 256.151 69.6243 256.269 69.7155C256.277 69.7212 256.285 69.7268 256.292 69.7325C256.408 69.8212 256.541 69.9276 256.686 70.0736C256.818 70.2079 256.437 70.5205 255.836 70.7646C255.235 71.0089 254.649 71.1103 254.527 70.9986C254.399 70.8811 254.281 70.7973 254.171 70.7226C254.164 70.718 254.157 70.7134 254.15 70.7088C254.036 70.6313 253.929 70.5587 253.844 70.4684C253.816 70.4382 253.79 70.4058 253.767 70.3747C253.713 70.325 253.635 70.2759 253.539 70.2201C253.52 70.2089 253.501 70.1968 253.481 70.1851C253.35 70.1106 253.196 70.0258 253.053 69.919C252.715 69.6665 252.443 69.3047 252.471 68.5395C252.478 68.338 252.476 68.1436 252.471 67.9527C252.442 67.0691 252.363 66.279 252.535 65.0758C252.558 64.9103 252.596 64.7351 252.632 64.5472C252.737 63.9914 252.854 63.3086 252.548 62.3971C252.143 61.2161 250.913 59.4587 247.719 58.291C247.18 58.1005 246.656 57.7732 246.069 57.4512C245.847 57.3287 245.614 57.209 245.372 57.0967C244.492 56.688 243.418 56.3819 242.144 56.6148C240.69 56.8868 239.74 57.4978 239 58.0419C238.951 58.078 238.903 58.114 238.856 58.1497C238.83 58.1703 238.804 58.1909 238.778 58.2116C238.745 58.2365 238.713 58.2613 238.682 58.2858C237.563 59.1346 236.125 59.4635 234.638 58.5246C233.696 57.9334 232.913 57.7351 231.914 57.5904C231.419 57.5231 230.985 57.7315 230.347 58.0869C230.168 58.187 229.973 58.2975 229.756 58.4214C228.783 58.9925 227.438 59.6597 225.112 60.7155C224.504 60.9968 224.033 61.3566 223.607 61.706C223.474 61.8147 223.345 61.9225 223.217 62.0279C222.684 62.4678 222.169 62.857 221.41 63.0336C220.788 63.1744 219.542 63.6803 218.534 64.6174C217.518 65.547 216.821 66.8614 217.155 68.0676C217.189 68.1926 217.223 68.3174 217.259 68.4417C217.565 69.5108 217.958 70.5566 218.898 71.4837C221.985 73.8239 222.886 75.3441 223.053 77C223.218 78.6356 222.701 80.4038 222.904 81.8327C222.908 81.8693 222.913 81.9058 222.919 81.9424C223.393 85.1987 225.059 87.1917 225.568 87.7957C225.593 87.825 225.616 87.8515 225.636 87.8754C225.655 87.8967 225.672 87.9152 225.687 87.9322C225.905 88.1879 226.165 88.3572 226.438 88.5251C226.453 88.5342 226.468 88.5433 226.483 88.5524C226.772 88.7291 227.071 88.9083 227.355 89.1902C228.414 90.2401 229.481 90.8591 230.419 91.2935C230.593 91.3738 230.763 91.45 230.93 91.5195C230.931 91.5198 230.931 91.52 230.932 91.5203C231.667 91.8247 232.329 92.0389 232.936 92.2802C234.049 92.7172 234.878 92.7669 235.51 92.7439C235.71 92.7361 235.894 92.72 236.066 92.7016C236.44 92.6618 236.761 92.6147 237.084 92.6208C237.694 92.6318 238.263 92.503 238.81 92.3519C238.859 92.3384 238.908 92.326 238.957 92.3122C238.971 92.3081 238.986 92.304 239 92.2998C239.58 92.1341 240.121 91.9545 240.695 91.887C240.831 91.871 241.011 92.3827 241.099 93.0295C241.186 93.6757 241.129 94.2172 240.968 94.2361C240.307 94.3136 239.683 94.5007 239 94.6713C239 94.6713 239 94.6713 239 94.6713C238.944 94.6853 238.887 94.7005 238.83 94.7142C238.203 94.8657 237.541 94.9902 236.829 94.969C236.47 94.9579 236.124 94.9967 235.706 95.0279C235.506 95.0426 235.292 95.056 235.051 95.0583C234.319 95.0632 233.362 94.9873 232.074 94.4824C231.387 94.2095 230.643 93.9563 229.809 93.5988C229.618 93.5165 229.422 93.4287 229.223 93.3335C228.156 92.8238 226.943 92.1046 225.728 90.9065C225.422 90.6039 225.107 90.4025 224.788 90.1949C224.771 90.1831 224.753 90.1712 224.736 90.1592C224.436 89.963 224.132 89.7542 223.871 89.447C223.836 89.4059 223.792 89.3529 223.739 89.2897C223.161 88.5988 221.269 86.3358 220.657 82.6247C220.656 82.6132 220.654 82.6018 220.653 82.5903C220.282 80.1225 220.429 78.7847 219.787 77.745C219.631 77.4836 219.515 77.2345 219.429 77C219.244 76.4957 219.195 76.0794 219.179 75.7128C219.175 75.6107 219.172 75.5142 219.17 75.4225C219.166 75.0265 219.172 74.7142 219.05 74.3819C218.684 73.3731 218.017 72.5543 216.777 71.2777C215.729 70.1865 215.321 68.9396 215.044 67.8117C215.044 67.81 215.044 67.8084 215.043 67.8067C215.01 67.6726 214.979 67.5401 214.949 67.4095ZM258.961 72.0647C258.987 72.2528 258.491 72.5203 257.855 72.6623C257.218 72.8042 256.687 72.7865 256.666 72.6229C256.617 72.2286 256.554 71.8334 256.478 71.4406C256.447 71.2769 256.919 70.9766 257.537 70.769C258.155 70.5614 258.692 70.5446 258.732 70.7323C258.823 71.1746 258.9 71.6202 258.961 72.0647ZM203.521 64.3988C203.509 64.0366 204.016 63.8629 204.639 64.0206C205.263 64.1782 205.773 64.5892 205.79 64.9295C205.799 65.11 205.825 65.4105 205.87 65.8117C206.075 67.8732 206.892 72.4733 208.396 77C208.997 78.8741 209.677 80.753 210.339 82.5944C210.53 83.1261 210.724 83.5979 210.918 84.036C211.795 85.9319 213.764 86.8981 215.388 90.0702C219.741 98.5002 228.582 105.471 239 105.812C245.01 106.077 251.175 103.982 255.495 99.8895C258.856 96.7258 261.69 93.2176 263.723 89.2132C265.625 86.0352 267.968 79.2626 267.933 77.4788C267.956 77.2142 268.501 76.9988 269.154 77C269.806 77.0013 270.318 77.2385 270.294 77.5275C270.343 79.4312 267.914 86.7735 265.861 90.2246C263.667 94.5704 260.592 98.372 256.937 101.762C252.227 106.154 245.717 108.826 239 109.063C227.515 109.654 216.09 102.763 210.805 92.586C208.835 88.7413 209.566 86.6829 208.655 84.6988C208.45 84.2225 208.243 83.7099 208.04 83.1279C207.331 81.1028 206.619 79.0407 206.003 77C204.528 72.2688 203.776 67.5425 203.592 65.3692C203.551 64.9317 203.527 64.6007 203.521 64.3988ZM212.625 51.5455C215.07 48.6807 219.619 45.6375 223.95 44.0293C226.052 43.2163 228.071 42.6798 229.685 42.306C232.2 41.7332 233.901 42.0773 235.497 42.4717C235.514 42.4759 235.531 42.48 235.548 42.4842C236.629 42.7621 237.679 43.0745 239 43.3022C239.627 43.411 240.303 43.5026 241.082 43.578C243.517 43.8035 246.931 43.953 250.364 44.7653C250.366 44.7662 250.369 44.7671 250.371 44.768C253.737 45.5197 257.742 45.9522 259.904 47.6247C267.382 53.5202 268.516 59.8721 268.551 62.6658C268.527 67.5539 272.095 72.1786 269.288 76.8549C268.662 77.3305 266.875 76.5449 267.355 75.715C267.368 75.6843 267.381 75.6536 267.394 75.6228C267.516 75.3289 267.61 75.0663 267.671 74.702C267.703 74.1788 267.665 73.791 267.626 73.4389C267.686 72.4889 266.554 66.1763 266.385 63.4952C266.359 60.8881 263.126 56.8272 256.851 51.8684C255.117 50.5048 252.904 47.7512 249.65 47.0183C249.641 47.0162 249.633 47.0141 249.624 47.0121C246.446 46.2812 243.242 46.1574 240.94 45.9386C240.218 45.8667 239.587 45.7773 239 45.671C237.69 45.435 236.656 45.1051 235.611 44.8167C235.596 44.8124 235.581 44.8081 235.566 44.8038C234.087 44.4095 232.561 44.0773 230.299 44.5866C228.758 44.9396 226.85 45.4453 224.871 46.2055C220.838 47.6945 216.626 50.488 214.36 53.1499C214.154 53.3852 213.595 53.2264 213.108 52.7924C212.621 52.3586 212.403 51.7993 212.625 51.5455ZM202.108 41.243C209.81 29.49 225.562 23.4049 239 25.9574C240.011 26.1301 240.999 26.3423 241.983 26.593C245.697 26.8764 250.868 27.8896 255.684 29.817C255.738 29.8393 255.792 29.8616 255.846 29.884C260.623 31.7629 264.943 34.4705 267.814 36.6568C278.06 44.5734 281.245 52.4352 281.833 56.3225C282.281 60.0684 282.503 60.9509 282.981 62.3261C282.993 62.3638 283.004 62.4014 283.016 62.4391C283.018 62.441 283.021 62.4428 283.024 62.4447C283.068 62.4822 283.098 62.5163 283.111 62.5344C283.14 62.5711 283.156 62.6032 283.162 62.6152C283.177 62.6429 283.185 62.6674 283.188 62.6761C283.201 62.7113 283.214 62.7524 283.222 62.7792C283.291 63.0293 283.462 63.8182 283.539 64.4581C283.619 65.1134 283.61 65.5967 283.587 66.1007C283.585 66.1518 283.582 66.203 283.58 66.2542C283.557 66.7092 283.528 67.2035 283.516 67.9014C283.508 68.3258 282.972 68.7227 282.328 68.7924C281.684 68.8613 281.178 68.5984 281.189 68.1966C281.206 67.4983 281.24 66.9981 281.266 66.5627C281.269 66.5143 281.272 66.4659 281.275 66.4175C281.299 65.9585 281.306 65.5502 281.243 64.9985C281.096 64.2146 280.921 63.6486 280.754 63.1334C280.287 61.7805 280.042 60.8134 279.627 57.0596C279.112 53.5436 276.246 46.1977 266.444 38.5807C263.707 36.4906 259.591 33.9028 255.048 32.1069C254.995 32.0858 254.941 32.0649 254.888 32.044C250.302 30.1998 245.383 29.2254 241.849 28.9512C240.898 28.8717 239.955 28.8276 239 28.8169C226.002 28.6946 214.03 34.6195 203.855 42.8349C202.107 44.7671 200.629 46.6309 199.368 48.4342C195.689 53.7411 193.736 58.5455 193.76 63.3678C193.779 64.4203 193.264 67.0242 193.09 70.7726C193.04 71.8715 193.021 73.0682 193.06 74.3615C193.085 75.2051 193.135 76.0803 193.216 77C193.438 79.5135 193.899 82.3015 194.748 85.2246C194.989 86.0561 195.238 86.7983 195.489 87.492C196.627 90.4396 197.455 92.7683 200.138 98.0521C203.215 104.725 211.87 113.834 217.845 117.079C220.717 118.834 222.461 119.672 223.679 120.3C224.02 120.472 224.321 120.623 224.599 120.759C225.33 121.112 225.9 121.372 226.676 121.645C230.993 123.123 234.581 123.492 239 123.2C240.323 123.103 241.714 122.933 243.23 122.661C243.639 122.588 244.058 123.045 244.163 123.688C244.268 124.332 243.998 124.925 243.565 125.002C241.93 125.292 240.428 125.472 239 125.57C234.381 125.857 230.579 125.464 226.01 123.911C225.158 123.614 224.515 123.323 223.733 122.948C223.445 122.809 223.138 122.657 222.798 122.488C221.537 121.843 219.719 120.979 216.709 119.15C210.426 115.759 201.309 106.204 198.068 99.1966C195.263 93.6865 194.417 91.2753 193.232 88.1824C192.969 87.4511 192.706 86.6642 192.452 85.7821C191.552 82.655 191.07 79.6749 190.845 77C190.767 76.0747 190.72 75.1912 190.695 74.3423C190.657 72.9842 190.679 71.7317 190.733 70.5808C190.931 66.5636 191.455 63.9943 191.439 63.0502C191.438 57.8338 193.587 52.5792 197.499 46.9781C198.811 45.1114 200.335 43.2027 202.108 41.243ZM265.899 114.788C265.572 115.063 264.983 114.857 264.591 114.335C264.199 113.813 264.136 113.184 264.444 112.925C266.073 111.549 267.135 110.452 267.944 109.584C269.428 107.964 270.073 107.135 271.148 105.987C273.905 103.006 276.112 99.7124 277.723 96.5611C280.425 91.3111 281.46 86.5426 281.989 84.0606C282.073 83.6691 282.658 83.4316 283.303 83.5286C283.947 83.6258 284.405 84.0406 284.317 84.4565C283.769 87.0556 282.689 92.0484 279.86 97.5695C278.164 100.9 275.84 104.39 272.917 107.556C271.818 108.731 271.174 109.554 269.644 111.221C268.792 112.134 267.663 113.303 265.899 114.788Z" fill="black" fill-opacity="0.2"/>
<path d="M256.844 80.2313C256.592 81.0758 256.954 82.3453 256.257 83.0645C256.248 83.0744 256.238 83.0842 256.228 83.094C255.947 83.3792 255.587 83.6355 255.145 83.9145C255.089 83.9501 255.03 83.9859 254.971 84.0223C254.446 84.3446 253.805 84.7144 253.002 85.1646C250.361 86.5843 249.723 88.4388 249.395 89.1673C248.819 90.5061 247.602 91.4048 245.838 92.2273C245.676 92.3022 245.507 92.3741 245.334 92.4472C245.193 92.5072 244.884 92.0631 244.645 91.456C244.406 90.8486 244.309 90.3169 244.427 90.2665C244.571 90.205 244.712 90.1423 244.848 90.0796C244.848 90.0793 244.849 90.079 244.85 90.0787C246.369 89.3688 247.394 88.6062 247.821 87.4207C248.088 86.7382 248.507 85.0556 251.008 83.9363C251.759 83.5789 252.366 83.278 252.866 83.0142C252.92 82.9852 252.974 82.9569 253.026 82.9286C253.027 82.928 253.029 82.9273 253.03 82.9267C253.45 82.6979 253.78 82.4928 254.033 82.2623C254.037 82.2572 254.042 82.2521 254.047 82.247C254.71 81.6291 254.295 80.5165 254.52 79.8102C254.564 79.6736 255.121 79.6454 255.765 79.7494C256.408 79.8534 256.892 80.0701 256.844 80.2313ZM214.949 67.4095C214.597 65.9358 215.456 64.3885 216.557 63.3396C217.664 62.265 219.024 61.6499 219.729 61.4607C220.422 61.2709 220.933 60.882 221.514 60.3914C221.647 60.2791 221.784 60.1618 221.926 60.0424C222.396 59.6485 222.937 59.2266 223.62 58.8906C226.128 57.6795 227.61 56.9395 228.677 56.3204C228.896 56.1963 229.1 56.0794 229.291 55.9727C229.292 55.9725 229.292 55.9724 229.292 55.9722C230.018 55.5704 230.586 55.301 231.208 55.3618C232.309 55.477 233.208 55.6613 234.284 56.2659C235.758 57.0939 237.325 56.7754 238.491 55.9708C238.555 55.9262 238.62 55.8791 238.686 55.8332C238.787 55.7638 238.891 55.6932 239 55.6221C239.81 55.0962 240.858 54.5189 242.408 54.2749C243.87 54.0497 245.105 54.3982 246.105 54.8482C246.394 54.9779 246.662 55.1166 246.916 55.2521C247.562 55.5957 248.114 55.9286 248.686 56.1356C252.251 57.4713 253.688 59.4168 254.209 60.7522C254.613 61.8129 254.506 62.6526 254.42 63.2413C254.393 63.4198 254.366 63.5777 254.353 63.7128C254.241 64.915 254.367 65.7227 254.452 66.6917C254.469 66.9059 254.483 67.128 254.489 67.3608C254.506 68.1365 254.788 68.5195 255.115 68.7897C255.257 68.9071 255.405 69.0019 255.545 69.0926C255.547 69.0941 255.55 69.0956 255.553 69.0972C255.573 69.1098 255.591 69.1228 255.61 69.1354C255.625 69.1449 255.641 69.1533 255.655 69.163C255.669 69.1632 255.678 69.1646 255.686 69.1653C255.692 69.1658 255.696 69.1663 255.699 69.1667C255.7 69.1665 255.701 69.1664 255.702 69.1662C255.755 69.1723 255.782 69.1868 255.787 69.1897C255.797 69.1947 255.803 69.2005 255.806 69.2032C255.825 69.2174 255.842 69.2391 255.852 69.2539C255.879 69.292 255.921 69.3602 255.981 69.4686C256.056 69.5529 256.151 69.6243 256.269 69.7155C256.277 69.7212 256.285 69.7268 256.292 69.7325C256.408 69.8212 256.541 69.9276 256.686 70.0736C256.818 70.2079 256.437 70.5205 255.836 70.7646C255.235 71.0089 254.649 71.1103 254.527 70.9986C254.399 70.8811 254.281 70.7973 254.171 70.7226C254.164 70.718 254.157 70.7134 254.15 70.7088C254.036 70.6313 253.929 70.5587 253.844 70.4684C253.816 70.4382 253.79 70.4058 253.767 70.3747C253.713 70.325 253.635 70.2759 253.539 70.2201C253.52 70.2089 253.501 70.1968 253.481 70.1851C253.35 70.1106 253.196 70.0258 253.053 69.919C252.715 69.6665 252.443 69.3047 252.471 68.5395C252.478 68.338 252.476 68.1436 252.471 67.9527C252.442 67.0691 252.363 66.279 252.535 65.0758C252.558 64.9103 252.596 64.7351 252.632 64.5472C252.737 63.9914 252.854 63.3086 252.548 62.3971C252.143 61.2161 250.913 59.4587 247.719 58.291C247.18 58.1005 246.656 57.7732 246.069 57.4512C245.847 57.3287 245.614 57.209 245.372 57.0967C244.492 56.688 243.418 56.3819 242.144 56.6148C240.69 56.8868 239.74 57.4978 239 58.0419C238.951 58.078 238.903 58.114 238.856 58.1497C238.83 58.1703 238.804 58.1909 238.778 58.2116C238.745 58.2365 238.713 58.2613 238.682 58.2858C237.563 59.1346 236.125 59.4635 234.638 58.5246C233.696 57.9334 232.913 57.7351 231.914 57.5904C231.419 57.5231 230.985 57.7315 230.347 58.0869C230.168 58.187 229.973 58.2975 229.756 58.4214C228.783 58.9925 227.438 59.6597 225.112 60.7155C224.504 60.9968 224.033 61.3566 223.607 61.706C223.474 61.8147 223.345 61.9225 223.217 62.0279C222.684 62.4678 222.169 62.857 221.41 63.0336C220.788 63.1744 219.542 63.6803 218.534 64.6174C217.518 65.547 216.821 66.8614 217.155 68.0676C217.189 68.1926 217.223 68.3174 217.259 68.4417C217.565 69.5108 217.958 70.5566 218.898 71.4837C221.985 73.8239 222.886 75.3441 223.053 77C223.218 78.6356 222.701 80.4038 222.904 81.8327C222.908 81.8693 222.913 81.9058 222.919 81.9424C223.393 85.1987 225.059 87.1917 225.568 87.7957C225.593 87.825 225.616 87.8515 225.636 87.8754C225.655 87.8967 225.672 87.9152 225.687 87.9322C225.905 88.1879 226.165 88.3572 226.438 88.5251C226.453 88.5342 226.468 88.5433 226.483 88.5524C226.772 88.7291 227.071 88.9083 227.355 89.1902C228.414 90.2401 229.481 90.8591 230.419 91.2935C230.593 91.3738 230.763 91.45 230.93 91.5195C230.931 91.5198 230.931 91.52 230.932 91.5203C231.667 91.8247 232.329 92.0389 232.936 92.2802C234.049 92.7172 234.878 92.7669 235.51 92.7439C235.71 92.7361 235.894 92.72 236.066 92.7016C236.44 92.6618 236.761 92.6147 237.084 92.6208C237.694 92.6318 238.263 92.503 238.81 92.3519C238.859 92.3384 238.908 92.326 238.957 92.3122C238.971 92.3081 238.986 92.304 239 92.2998C239.58 92.1341 240.121 91.9545 240.695 91.887C240.831 91.871 241.011 92.3827 241.099 93.0295C241.186 93.6757 241.129 94.2172 240.968 94.2361C240.307 94.3136 239.683 94.5007 239 94.6713C239 94.6713 239 94.6713 239 94.6713C238.944 94.6853 238.887 94.7005 238.83 94.7142C238.203 94.8657 237.541 94.9902 236.829 94.969C236.47 94.9579 236.124 94.9967 235.706 95.0279C235.506 95.0426 235.292 95.056 235.051 95.0583C234.319 95.0632 233.362 94.9873 232.074 94.4824C231.387 94.2095 230.643 93.9563 229.809 93.5988C229.618 93.5165 229.422 93.4287 229.223 93.3335C228.156 92.8238 226.943 92.1046 225.728 90.9065C225.422 90.6039 225.107 90.4025 224.788 90.1949C224.771 90.1831 224.753 90.1712 224.736 90.1592C224.436 89.963 224.132 89.7542 223.871 89.447C223.836 89.4059 223.792 89.3529 223.739 89.2897C223.161 88.5988 221.269 86.3358 220.657 82.6247C220.656 82.6132 220.654 82.6018 220.653 82.5903C220.282 80.1225 220.429 78.7847 219.787 77.745C219.631 77.4836 219.515 77.2345 219.429 77C219.244 76.4957 219.195 76.0794 219.179 75.7128C219.175 75.6107 219.172 75.5142 219.17 75.4225C219.166 75.0265 219.172 74.7142 219.05 74.3819C218.684 73.3731 218.017 72.5543 216.777 71.2777C215.729 70.1865 215.321 68.9396 215.044 67.8117C215.044 67.81 215.044 67.8084 215.043 67.8067C215.01 67.6726 214.979 67.5401 214.949 67.4095ZM258.961 72.0647C258.987 72.2528 258.491 72.5203 257.855 72.6623C257.218 72.8042 256.687 72.7865 256.666 72.6229C256.617 72.2286 256.554 71.8334 256.478 71.4406C256.447 71.2769 256.919 70.9766 257.537 70.769C258.155 70.5614 258.692 70.5446 258.732 70.7323C258.823 71.1746 258.9 71.6202 258.961 72.0647ZM203.521 64.3988C203.509 64.0366 204.016 63.8629 204.639 64.0206C205.263 64.1782 205.773 64.5892 205.79 64.9295C205.799 65.11 205.825 65.4105 205.87 65.8117C206.075 67.8732 206.892 72.4733 208.396 77C208.997 78.8741 209.677 80.753 210.339 82.5944C210.53 83.1261 210.724 83.5979 210.918 84.036C211.795 85.9319 213.764 86.8981 215.388 90.0702C219.741 98.5002 228.582 105.471 239 105.812C245.01 106.077 251.175 103.982 255.495 99.8895C258.856 96.7258 261.69 93.2176 263.723 89.2132C265.625 86.0352 267.968 79.2626 267.933 77.4788C267.956 77.2142 268.501 76.9988 269.154 77C269.806 77.0013 270.318 77.2385 270.294 77.5275C270.343 79.4312 267.914 86.7735 265.861 90.2246C263.667 94.5704 260.592 98.372 256.937 101.762C252.227 106.154 245.717 108.826 239 109.063C227.515 109.654 216.09 102.763 210.805 92.586C208.835 88.7413 209.566 86.6829 208.655 84.6988C208.45 84.2225 208.243 83.7099 208.04 83.1279C207.331 81.1028 206.619 79.0407 206.003 77C204.528 72.2688 203.776 67.5425 203.592 65.3692C203.551 64.9317 203.527 64.6007 203.521 64.3988ZM212.625 51.5455C215.07 48.6807 219.619 45.6375 223.95 44.0293C226.052 43.2163 228.071 42.6798 229.685 42.306C232.2 41.7332 233.901 42.0773 235.497 42.4717C235.514 42.4759 235.531 42.48 235.548 42.4842C236.629 42.7621 237.679 43.0745 239 43.3022C239.627 43.411 240.303 43.5026 241.082 43.578C243.517 43.8035 246.931 43.953 250.364 44.7653C250.366 44.7662 250.369 44.7671 250.371 44.768C253.737 45.5197 257.742 45.9522 259.904 47.6247C267.382 53.5202 268.516 59.8721 268.551 62.6658C268.527 67.5539 272.095 72.1786 269.288 76.8549C268.662 77.3305 266.875 76.5449 267.355 75.715C267.368 75.6843 267.381 75.6536 267.394 75.6228C267.516 75.3289 267.61 75.0663 267.671 74.702C267.703 74.1788 267.665 73.791 267.626 73.4389C267.686 72.4889 266.554 66.1763 266.385 63.4952C266.359 60.8881 263.126 56.8272 256.851 51.8684C255.117 50.5048 252.904 47.7512 249.65 47.0183C249.641 47.0162 249.633 47.0141 249.624 47.0121C246.446 46.2812 243.242 46.1574 240.94 45.9386C240.218 45.8667 239.587 45.7773 239 45.671C237.69 45.435 236.656 45.1051 235.611 44.8167C235.596 44.8124 235.581 44.8081 235.566 44.8038C234.087 44.4095 232.561 44.0773 230.299 44.5866C228.758 44.9396 226.85 45.4453 224.871 46.2055C220.838 47.6945 216.626 50.488 214.36 53.1499C214.154 53.3852 213.595 53.2264 213.108 52.7924C212.621 52.3586 212.403 51.7993 212.625 51.5455ZM202.108 41.243C209.81 29.49 225.562 23.4049 239 25.9574C240.011 26.1301 240.999 26.3423 241.983 26.593C245.697 26.8764 250.868 27.8896 255.684 29.817C255.738 29.8393 255.792 29.8616 255.846 29.884C260.623 31.7629 264.943 34.4705 267.814 36.6568C278.06 44.5734 281.245 52.4352 281.833 56.3225C282.281 60.0684 282.503 60.9509 282.981 62.3261C282.993 62.3638 283.004 62.4014 283.016 62.4391C283.018 62.441 283.021 62.4428 283.024 62.4447C283.068 62.4822 283.098 62.5163 283.111 62.5344C283.14 62.5711 283.156 62.6032 283.162 62.6152C283.177 62.6429 283.185 62.6674 283.188 62.6761C283.201 62.7113 283.214 62.7524 283.222 62.7792C283.291 63.0293 283.462 63.8182 283.539 64.4581C283.619 65.1134 283.61 65.5967 283.587 66.1007C283.585 66.1518 283.582 66.203 283.58 66.2542C283.557 66.7092 283.528 67.2035 283.516 67.9014C283.508 68.3258 282.972 68.7227 282.328 68.7924C281.684 68.8613 281.178 68.5984 281.189 68.1966C281.206 67.4983 281.24 66.9981 281.266 66.5627C281.269 66.5143 281.272 66.4659 281.275 66.4175C281.299 65.9585 281.306 65.5502 281.243 64.9985C281.096 64.2146 280.921 63.6486 280.754 63.1334C280.287 61.7805 280.042 60.8134 279.627 57.0596C279.112 53.5436 276.246 46.1977 266.444 38.5807C263.707 36.4906 259.591 33.9028 255.048 32.1069C254.995 32.0858 254.941 32.0649 254.888 32.044C250.302 30.1998 245.383 29.2254 241.849 28.9512C240.898 28.8717 239.955 28.8276 239 28.8169C226.002 28.6946 214.03 34.6195 203.855 42.8349C202.107 44.7671 200.629 46.6309 199.368 48.4342C195.689 53.7411 193.736 58.5455 193.76 63.3678C193.779 64.4203 193.264 67.0242 193.09 70.7726C193.04 71.8715 193.021 73.0682 193.06 74.3615C193.085 75.2051 193.135 76.0803 193.216 77C193.438 79.5135 193.899 82.3015 194.748 85.2246C194.989 86.0561 195.238 86.7983 195.489 87.492C196.627 90.4396 197.455 92.7683 200.138 98.0521C203.215 104.725 211.87 113.834 217.845 117.079C220.717 118.834 222.461 119.672 223.679 120.3C224.02 120.472 224.321 120.623 224.599 120.759C225.33 121.112 225.9 121.372 226.676 121.645C230.993 123.123 234.581 123.492 239 123.2C240.323 123.103 241.714 122.933 243.23 122.661C243.639 122.588 244.058 123.045 244.163 123.688C244.268 124.332 243.998 124.925 243.565 125.002C241.93 125.292 240.428 125.472 239 125.57C234.381 125.857 230.579 125.464 226.01 123.911C225.158 123.614 224.515 123.323 223.733 122.948C223.445 122.809 223.138 122.657 222.798 122.488C221.537 121.843 219.719 120.979 216.709 119.15C210.426 115.759 201.309 106.204 198.068 99.1966C195.263 93.6865 194.417 91.2753 193.232 88.1824C192.969 87.4511 192.706 86.6642 192.452 85.7821C191.552 82.655 191.07 79.6749 190.845 77C190.767 76.0747 190.72 75.1912 190.695 74.3423C190.657 72.9842 190.679 71.7317 190.733 70.5808C190.931 66.5636 191.455 63.9943 191.439 63.0502C191.438 57.8338 193.587 52.5792 197.499 46.9781C198.811 45.1114 200.335 43.2027 202.108 41.243ZM265.899 114.788C265.572 115.063 264.983 114.857 264.591 114.335C264.199 113.813 264.136 113.184 264.444 112.925C266.073 111.549 267.135 110.452 267.944 109.584C269.428 107.964 270.073 107.135 271.148 105.987C273.905 103.006 276.112 99.7124 277.723 96.5611C280.425 91.3111 281.46 86.5426 281.989 84.0606C282.073 83.6691 282.658 83.4316 283.303 83.5286C283.947 83.6258 284.405 84.0406 284.317 84.4565C283.769 87.0556 282.689 92.0484 279.86 97.5695C278.164 100.9 275.84 104.39 272.917 107.556C271.818 108.731 271.174 109.554 269.644 111.221C268.792 112.134 267.663 113.303 265.899 114.788Z" fill="black" fill-opacity="0.2"/>
<path d="M256.844 80.2313C256.592 81.0758 256.954 82.3453 256.257 83.0645C256.248 83.0744 256.238 83.0842 256.228 83.094C255.947 83.3792 255.587 83.6355 255.145 83.9145C255.089 83.9501 255.03 83.9859 254.971 84.0223C254.446 84.3446 253.805 84.7144 253.002 85.1646C250.361 86.5843 249.723 88.4388 249.395 89.1673C248.819 90.5061 247.602 91.4048 245.838 92.2273C245.676 92.3022 245.507 92.3741 245.334 92.4472C245.193 92.5072 244.884 92.0631 244.645 91.456C244.406 90.8486 244.309 90.3169 244.427 90.2665C244.571 90.205 244.712 90.1423 244.848 90.0796C244.848 90.0793 244.849 90.079 244.85 90.0787C246.369 89.3688 247.394 88.6062 247.821 87.4207C248.088 86.7382 248.507 85.0556 251.008 83.9363C251.759 83.5789 252.366 83.278 252.866 83.0142C252.92 82.9852 252.974 82.9569 253.026 82.9286C253.027 82.928 253.029 82.9273 253.03 82.9267C253.45 82.6979 253.78 82.4928 254.033 82.2623C254.037 82.2572 254.042 82.2521 254.047 82.247C254.71 81.6291 254.295 80.5165 254.52 79.8102C254.564 79.6736 255.121 79.6454 255.765 79.7494C256.408 79.8534 256.892 80.0701 256.844 80.2313ZM214.949 67.4095C214.597 65.9358 215.456 64.3885 216.557 63.3396C217.664 62.265 219.024 61.6499 219.729 61.4607C220.422 61.2709 220.933 60.882 221.514 60.3914C221.647 60.2791 221.784 60.1618 221.926 60.0424C222.396 59.6485 222.937 59.2266 223.62 58.8906C226.128 57.6795 227.61 56.9395 228.677 56.3204C228.896 56.1963 229.1 56.0794 229.291 55.9727C229.292 55.9725 229.292 55.9724 229.292 55.9722C230.018 55.5704 230.586 55.301 231.208 55.3618C232.309 55.477 233.208 55.6613 234.284 56.2659C235.758 57.0939 237.325 56.7754 238.491 55.9708C238.555 55.9262 238.62 55.8791 238.686 55.8332C238.787 55.7638 238.891 55.6932 239 55.6221C239.81 55.0962 240.858 54.5189 242.408 54.2749C243.87 54.0497 245.105 54.3982 246.105 54.8482C246.394 54.9779 246.662 55.1166 246.916 55.2521C247.562 55.5957 248.114 55.9286 248.686 56.1356C252.251 57.4713 253.688 59.4168 254.209 60.7522C254.613 61.8129 254.506 62.6526 254.42 63.2413C254.393 63.4198 254.366 63.5777 254.353 63.7128C254.241 64.915 254.367 65.7227 254.452 66.6917C254.469 66.9059 254.483 67.128 254.489 67.3608C254.506 68.1365 254.788 68.5195 255.115 68.7897C255.257 68.9071 255.405 69.0019 255.545 69.0926C255.547 69.0941 255.55 69.0956 255.553 69.0972C255.573 69.1098 255.591 69.1228 255.61 69.1354C255.625 69.1449 255.641 69.1533 255.655 69.163C255.669 69.1632 255.678 69.1646 255.686 69.1653C255.692 69.1658 255.696 69.1663 255.699 69.1667C255.7 69.1665 255.701 69.1664 255.702 69.1662C255.755 69.1723 255.782 69.1868 255.787 69.1897C255.797 69.1947 255.803 69.2005 255.806 69.2032C255.825 69.2174 255.842 69.2391 255.852 69.2539C255.879 69.292 255.921 69.3602 255.981 69.4686C256.056 69.5529 256.151 69.6243 256.269 69.7155C256.277 69.7212 256.285 69.7268 256.292 69.7325C256.408 69.8212 256.541 69.9276 256.686 70.0736C256.818 70.2079 256.437 70.5205 255.836 70.7646C255.235 71.0089 254.649 71.1103 254.527 70.9986C254.399 70.8811 254.281 70.7973 254.171 70.7226C254.164 70.718 254.157 70.7134 254.15 70.7088C254.036 70.6313 253.929 70.5587 253.844 70.4684C253.816 70.4382 253.79 70.4058 253.767 70.3747C253.713 70.325 253.635 70.2759 253.539 70.2201C253.52 70.2089 253.501 70.1968 253.481 70.1851C253.35 70.1106 253.196 70.0258 253.053 69.919C252.715 69.6665 252.443 69.3047 252.471 68.5395C252.478 68.338 252.476 68.1436 252.471 67.9527C252.442 67.0691 252.363 66.279 252.535 65.0758C252.558 64.9103 252.596 64.7351 252.632 64.5472C252.737 63.9914 252.854 63.3086 252.548 62.3971C252.143 61.2161 250.913 59.4587 247.719 58.291C247.18 58.1005 246.656 57.7732 246.069 57.4512C245.847 57.3287 245.614 57.209 245.372 57.0967C244.492 56.688 243.418 56.3819 242.144 56.6148C240.69 56.8868 239.74 57.4978 239 58.0419C238.951 58.078 238.903 58.114 238.856 58.1497C238.83 58.1703 238.804 58.1909 238.778 58.2116C238.745 58.2365 238.713 58.2613 238.682 58.2858C237.563 59.1346 236.125 59.4635 234.638 58.5246C233.696 57.9334 232.913 57.7351 231.914 57.5904C231.419 57.5231 230.985 57.7315 230.347 58.0869C230.168 58.187 229.973 58.2975 229.756 58.4214C228.783 58.9925 227.438 59.6597 225.112 60.7155C224.504 60.9968 224.033 61.3566 223.607 61.706C223.474 61.8147 223.345 61.9225 223.217 62.0279C222.684 62.4678 222.169 62.857 221.41 63.0336C220.788 63.1744 219.542 63.6803 218.534 64.6174C217.518 65.547 216.821 66.8614 217.155 68.0676C217.189 68.1926 217.223 68.3174 217.259 68.4417C217.565 69.5108 217.958 70.5566 218.898 71.4837C221.985 73.8239 222.886 75.3441 223.053 77C223.218 78.6356 222.701 80.4038 222.904 81.8327C222.908 81.8693 222.913 81.9058 222.919 81.9424C223.393 85.1987 225.059 87.1917 225.568 87.7957C225.593 87.825 225.616 87.8515 225.636 87.8754C225.655 87.8967 225.672 87.9152 225.687 87.9322C225.905 88.1879 226.165 88.3572 226.438 88.5251C226.453 88.5342 226.468 88.5433 226.483 88.5524C226.772 88.7291 227.071 88.9083 227.355 89.1902C228.414 90.2401 229.481 90.8591 230.419 91.2935C230.593 91.3738 230.763 91.45 230.93 91.5195C230.931 91.5198 230.931 91.52 230.932 91.5203C231.667 91.8247 232.329 92.0389 232.936 92.2802C234.049 92.7172 234.878 92.7669 235.51 92.7439C235.71 92.7361 235.894 92.72 236.066 92.7016C236.44 92.6618 236.761 92.6147 237.084 92.6208C237.694 92.6318 238.263 92.503 238.81 92.3519C238.859 92.3384 238.908 92.326 238.957 92.3122C238.971 92.3081 238.986 92.304 239 92.2998C239.58 92.1341 240.121 91.9545 240.695 91.887C240.831 91.871 241.011 92.3827 241.099 93.0295C241.186 93.6757 241.129 94.2172 240.968 94.2361C240.307 94.3136 239.683 94.5007 239 94.6713C239 94.6713 239 94.6713 239 94.6713C238.944 94.6853 238.887 94.7005 238.83 94.7142C238.203 94.8657 237.541 94.9902 236.829 94.969C236.47 94.9579 236.124 94.9967 235.706 95.0279C235.506 95.0426 235.292 95.056 235.051 95.0583C234.319 95.0632 233.362 94.9873 232.074 94.4824C231.387 94.2095 230.643 93.9563 229.809 93.5988C229.618 93.5165 229.422 93.4287 229.223 93.3335C228.156 92.8238 226.943 92.1046 225.728 90.9065C225.422 90.6039 225.107 90.4025 224.788 90.1949C224.771 90.1831 224.753 90.1712 224.736 90.1592C224.436 89.963 224.132 89.7542 223.871 89.447C223.836 89.4059 223.792 89.3529 223.739 89.2897C223.161 88.5988 221.269 86.3358 220.657 82.6247C220.656 82.6132 220.654 82.6018 220.653 82.5903C220.282 80.1225 220.429 78.7847 219.787 77.745C219.631 77.4836 219.515 77.2345 219.429 77C219.244 76.4957 219.195 76.0794 219.179 75.7128C219.175 75.6107 219.172 75.5142 219.17 75.4225C219.166 75.0265 219.172 74.7142 219.05 74.3819C218.684 73.3731 218.017 72.5543 216.777 71.2777C215.729 70.1865 215.321 68.9396 215.044 67.8117C215.044 67.81 215.044 67.8084 215.043 67.8067C215.01 67.6726 214.979 67.5401 214.949 67.4095ZM258.961 72.0647C258.987 72.2528 258.491 72.5203 257.855 72.6623C257.218 72.8042 256.687 72.7865 256.666 72.6229C256.617 72.2286 256.554 71.8334 256.478 71.4406C256.447 71.2769 256.919 70.9766 257.537 70.769C258.155 70.5614 258.692 70.5446 258.732 70.7323C258.823 71.1746 258.9 71.6202 258.961 72.0647ZM203.521 64.3988C203.509 64.0366 204.016 63.8629 204.639 64.0206C205.263 64.1782 205.773 64.5892 205.79 64.9295C205.799 65.11 205.825 65.4105 205.87 65.8117C206.075 67.8732 206.892 72.4733 208.396 77C208.997 78.8741 209.677 80.753 210.339 82.5944C210.53 83.1261 210.724 83.5979 210.918 84.036C211.795 85.9319 213.764 86.8981 215.388 90.0702C219.741 98.5002 228.582 105.471 239 105.812C245.01 106.077 251.175 103.982 255.495 99.8895C258.856 96.7258 261.69 93.2176 263.723 89.2132C265.625 86.0352 267.968 79.2626 267.933 77.4788C267.956 77.2142 268.501 76.9988 269.154 77C269.806 77.0013 270.318 77.2385 270.294 77.5275C270.343 79.4312 267.914 86.7735 265.861 90.2246C263.667 94.5704 260.592 98.372 256.937 101.762C252.227 106.154 245.717 108.826 239 109.063C227.515 109.654 216.09 102.763 210.805 92.586C208.835 88.7413 209.566 86.6829 208.655 84.6988C208.45 84.2225 208.243 83.7099 208.04 83.1279C207.331 81.1028 206.619 79.0407 206.003 77C204.528 72.2688 203.776 67.5425 203.592 65.3692C203.551 64.9317 203.527 64.6007 203.521 64.3988ZM212.625 51.5455C215.07 48.6807 219.619 45.6375 223.95 44.0293C226.052 43.2163 228.071 42.6798 229.685 42.306C232.2 41.7332 233.901 42.0773 235.497 42.4717C235.514 42.4759 235.531 42.48 235.548 42.4842C236.629 42.7621 237.679 43.0745 239 43.3022C239.627 43.411 240.303 43.5026 241.082 43.578C243.517 43.8035 246.931 43.953 250.364 44.7653C250.366 44.7662 250.369 44.7671 250.371 44.768C253.737 45.5197 257.742 45.9522 259.904 47.6247C267.382 53.5202 268.516 59.8721 268.551 62.6658C268.527 67.5539 272.095 72.1786 269.288 76.8549C268.662 77.3305 266.875 76.5449 267.355 75.715C267.368 75.6843 267.381 75.6536 267.394 75.6228C267.516 75.3289 267.61 75.0663 267.671 74.702C267.703 74.1788 267.665 73.791 267.626 73.4389C267.686 72.4889 266.554 66.1763 266.385 63.4952C266.359 60.8881 263.126 56.8272 256.851 51.8684C255.117 50.5048 252.904 47.7512 249.65 47.0183C249.641 47.0162 249.633 47.0141 249.624 47.0121C246.446 46.2812 243.242 46.1574 240.94 45.9386C240.218 45.8667 239.587 45.7773 239 45.671C237.69 45.435 236.656 45.1051 235.611 44.8167C235.596 44.8124 235.581 44.8081 235.566 44.8038C234.087 44.4095 232.561 44.0773 230.299 44.5866C228.758 44.9396 226.85 45.4453 224.871 46.2055C220.838 47.6945 216.626 50.488 214.36 53.1499C214.154 53.3852 213.595 53.2264 213.108 52.7924C212.621 52.3586 212.403 51.7993 212.625 51.5455ZM202.108 41.243C209.81 29.49 225.562 23.4049 239 25.9574C240.011 26.1301 240.999 26.3423 241.983 26.593C245.697 26.8764 250.868 27.8896 255.684 29.817C255.738 29.8393 255.792 29.8616 255.846 29.884C260.623 31.7629 264.943 34.4705 267.814 36.6568C278.06 44.5734 281.245 52.4352 281.833 56.3225C282.281 60.0684 282.503 60.9509 282.981 62.3261C282.993 62.3638 283.004 62.4014 283.016 62.4391C283.018 62.441 283.021 62.4428 283.024 62.4447C283.068 62.4822 283.098 62.5163 283.111 62.5344C283.14 62.5711 283.156 62.6032 283.162 62.6152C283.177 62.6429 283.185 62.6674 283.188 62.6761C283.201 62.7113 283.214 62.7524 283.222 62.7792C283.291 63.0293 283.462 63.8182 283.539 64.4581C283.619 65.1134 283.61 65.5967 283.587 66.1007C283.585 66.1518 283.582 66.203 283.58 66.2542C283.557 66.7092 283.528 67.2035 283.516 67.9014C283.508 68.3258 282.972 68.7227 282.328 68.7924C281.684 68.8613 281.178 68.5984 281.189 68.1966C281.206 67.4983 281.24 66.9981 281.266 66.5627C281.269 66.5143 281.272 66.4659 281.275 66.4175C281.299 65.9585 281.306 65.5502 281.243 64.9985C281.096 64.2146 280.921 63.6486 280.754 63.1334C280.287 61.7805 280.042 60.8134 279.627 57.0596C279.112 53.5436 276.246 46.1977 266.444 38.5807C263.707 36.4906 259.591 33.9028 255.048 32.1069C254.995 32.0858 254.941 32.0649 254.888 32.044C250.302 30.1998 245.383 29.2254 241.849 28.9512C240.898 28.8717 239.955 28.8276 239 28.8169C226.002 28.6946 214.03 34.6195 203.855 42.8349C202.107 44.7671 200.629 46.6309 199.368 48.4342C195.689 53.7411 193.736 58.5455 193.76 63.3678C193.779 64.4203 193.264 67.0242 193.09 70.7726C193.04 71.8715 193.021 73.0682 193.06 74.3615C193.085 75.2051 193.135 76.0803 193.216 77C193.438 79.5135 193.899 82.3015 194.748 85.2246C194.989 86.0561 195.238 86.7983 195.489 87.492C196.627 90.4396 197.455 92.7683 200.138 98.0521C203.215 104.725 211.87 113.834 217.845 117.079C220.717 118.834 222.461 119.672 223.679 120.3C224.02 120.472 224.321 120.623 224.599 120.759C225.33 121.112 225.9 121.372 226.676 121.645C230.993 123.123 234.581 123.492 239 123.2C240.323 123.103 241.714 122.933 243.23 122.661C243.639 122.588 244.058 123.045 244.163 123.688C244.268 124.332 243.998 124.925 243.565 125.002C241.93 125.292 240.428 125.472 239 125.57C234.381 125.857 230.579 125.464 226.01 123.911C225.158 123.614 224.515 123.323 223.733 122.948C223.445 122.809 223.138 122.657 222.798 122.488C221.537 121.843 219.719 120.979 216.709 119.15C210.426 115.759 201.309 106.204 198.068 99.1966C195.263 93.6865 194.417 91.2753 193.232 88.1824C192.969 87.4511 192.706 86.6642 192.452 85.7821C191.552 82.655 191.07 79.6749 190.845 77C190.767 76.0747 190.72 75.1912 190.695 74.3423C190.657 72.9842 190.679 71.7317 190.733 70.5808C190.931 66.5636 191.455 63.9943 191.439 63.0502C191.438 57.8338 193.587 52.5792 197.499 46.9781C198.811 45.1114 200.335 43.2027 202.108 41.243ZM265.899 114.788C265.572 115.063 264.983 114.857 264.591 114.335C264.199 113.813 264.136 113.184 264.444 112.925C266.073 111.549 267.135 110.452 267.944 109.584C269.428 107.964 270.073 107.135 271.148 105.987C273.905 103.006 276.112 99.7124 277.723 96.5611C280.425 91.3111 281.46 86.5426 281.989 84.0606C282.073 83.6691 282.658 83.4316 283.303 83.5286C283.947 83.6258 284.405 84.0406 284.317 84.4565C283.769 87.0556 282.689 92.0484 279.86 97.5695C278.164 100.9 275.84 104.39 272.917 107.556C271.818 108.731 271.174 109.554 269.644 111.221C268.792 112.134 267.663 113.303 265.899 114.788Z" fill="black" fill-opacity="0.2"/>
<path d="M256.844 80.2313C256.592 81.0758 256.954 82.3453 256.257 83.0645C256.248 83.0744 256.238 83.0842 256.228 83.094C255.947 83.3792 255.587 83.6355 255.145 83.9145C255.089 83.9501 255.03 83.9859 254.971 84.0223C254.446 84.3446 253.805 84.7144 253.002 85.1646C250.361 86.5843 249.723 88.4388 249.395 89.1673C248.819 90.5061 247.602 91.4048 245.838 92.2273C245.676 92.3022 245.507 92.3741 245.334 92.4472C245.193 92.5072 244.884 92.0631 244.645 91.456C244.406 90.8486 244.309 90.3169 244.427 90.2665C244.571 90.205 244.712 90.1423 244.848 90.0796C244.848 90.0793 244.849 90.079 244.85 90.0787C246.369 89.3688 247.394 88.6062 247.821 87.4207C248.088 86.7382 248.507 85.0556 251.008 83.9363C251.759 83.5789 252.366 83.278 252.866 83.0142C252.92 82.9852 252.974 82.9569 253.026 82.9286C253.027 82.928 253.029 82.9273 253.03 82.9267C253.45 82.6979 253.78 82.4928 254.033 82.2623C254.037 82.2572 254.042 82.2521 254.047 82.247C254.71 81.6291 254.295 80.5165 254.52 79.8102C254.564 79.6736 255.121 79.6454 255.765 79.7494C256.408 79.8534 256.892 80.0701 256.844 80.2313ZM214.949 67.4095C214.597 65.9358 215.456 64.3885 216.557 63.3396C217.664 62.265 219.024 61.6499 219.729 61.4607C220.422 61.2709 220.933 60.882 221.514 60.3914C221.647 60.2791 221.784 60.1618 221.926 60.0424C222.396 59.6485 222.937 59.2266 223.62 58.8906C226.128 57.6795 227.61 56.9395 228.677 56.3204C228.896 56.1963 229.1 56.0794 229.291 55.9727C229.292 55.9725 229.292 55.9724 229.292 55.9722C230.018 55.5704 230.586 55.301 231.208 55.3618C232.309 55.477 233.208 55.6613 234.284 56.2659C235.758 57.0939 237.325 56.7754 238.491 55.9708C238.555 55.9262 238.62 55.8791 238.686 55.8332C238.787 55.7638 238.891 55.6932 239 55.6221C239.81 55.0962 240.858 54.5189 242.408 54.2749C243.87 54.0497 245.105 54.3982 246.105 54.8482C246.394 54.9779 246.662 55.1166 246.916 55.2521C247.562 55.5957 248.114 55.9286 248.686 56.1356C252.251 57.4713 253.688 59.4168 254.209 60.7522C254.613 61.8129 254.506 62.6526 254.42 63.2413C254.393 63.4198 254.366 63.5777 254.353 63.7128C254.241 64.915 254.367 65.7227 254.452 66.6917C254.469 66.9059 254.483 67.128 254.489 67.3608C254.506 68.1365 254.788 68.5195 255.115 68.7897C255.257 68.9071 255.405 69.0019 255.545 69.0926C255.547 69.0941 255.55 69.0956 255.553 69.0972C255.573 69.1098 255.591 69.1228 255.61 69.1354C255.625 69.1449 255.641 69.1533 255.655 69.163C255.669 69.1632 255.678 69.1646 255.686 69.1653C255.692 69.1658 255.696 69.1663 255.699 69.1667C255.7 69.1665 255.701 69.1664 255.702 69.1662C255.755 69.1723 255.782 69.1868 255.787 69.1897C255.797 69.1947 255.803 69.2005 255.806 69.2032C255.825 69.2174 255.842 69.2391 255.852 69.2539C255.879 69.292 255.921 69.3602 255.981 69.4686C256.056 69.5529 256.151 69.6243 256.269 69.7155C256.277 69.7212 256.285 69.7268 256.292 69.7325C256.408 69.8212 256.541 69.9276 256.686 70.0736C256.818 70.2079 256.437 70.5205 255.836 70.7646C255.235 71.0089 254.649 71.1103 254.527 70.9986C254.399 70.8811 254.281 70.7973 254.171 70.7226C254.164 70.718 254.157 70.7134 254.15 70.7088C254.036 70.6313 253.929 70.5587 253.844 70.4684C253.816 70.4382 253.79 70.4058 253.767 70.3747C253.713 70.325 253.635 70.2759 253.539 70.2201C253.52 70.2089 253.501 70.1968 253.481 70.1851C253.35 70.1106 253.196 70.0258 253.053 69.919C252.715 69.6665 252.443 69.3047 252.471 68.5395C252.478 68.338 252.476 68.1436 252.471 67.9527C252.442 67.0691 252.363 66.279 252.535 65.0758C252.558 64.9103 252.596 64.7351 252.632 64.5472C252.737 63.9914 252.854 63.3086 252.548 62.3971C252.143 61.2161 250.913 59.4587 247.719 58.291C247.18 58.1005 246.656 57.7732 246.069 57.4512C245.847 57.3287 245.614 57.209 245.372 57.0967C244.492 56.688 243.418 56.3819 242.144 56.6148C240.69 56.8868 239.74 57.4978 239 58.0419C238.951 58.078 238.903 58.114 238.856 58.1497C238.83 58.1703 238.804 58.1909 238.778 58.2116C238.745 58.2365 238.713 58.2613 238.682 58.2858C237.563 59.1346 236.125 59.4635 234.638 58.5246C233.696 57.9334 232.913 57.7351 231.914 57.5904C231.419 57.5231 230.985 57.7315 230.347 58.0869C230.168 58.187 229.973 58.2975 229.756 58.4214C228.783 58.9925 227.438 59.6597 225.112 60.7155C224.504 60.9968 224.033 61.3566 223.607 61.706C223.474 61.8147 223.345 61.9225 223.217 62.0279C222.684 62.4678 222.169 62.857 221.41 63.0336C220.788 63.1744 219.542 63.6803 218.534 64.6174C217.518 65.547 216.821 66.8614 217.155 68.0676C217.189 68.1926 217.223 68.3174 217.259 68.4417C217.565 69.5108 217.958 70.5566 218.898 71.4837C221.985 73.8239 222.886 75.3441 223.053 77C223.218 78.6356 222.701 80.4038 222.904 81.8327C222.908 81.8693 222.913 81.9058 222.919 81.9424C223.393 85.1987 225.059 87.1917 225.568 87.7957C225.593 87.825 225.616 87.8515 225.636 87.8754C225.655 87.8967 225.672 87.9152 225.687 87.9322C225.905 88.1879 226.165 88.3572 226.438 88.5251C226.453 88.5342 226.468 88.5433 226.483 88.5524C226.772 88.7291 227.071 88.9083 227.355 89.1902C228.414 90.2401 229.481 90.8591 230.419 91.2935C230.593 91.3738 230.763 91.45 230.93 91.5195C230.931 91.5198 230.931 91.52 230.932 91.5203C231.667 91.8247 232.329 92.0389 232.936 92.2802C234.049 92.7172 234.878 92.7669 235.51 92.7439C235.71 92.7361 235.894 92.72 236.066 92.7016C236.44 92.6618 236.761 92.6147 237.084 92.6208C237.694 92.6318 238.263 92.503 238.81 92.3519C238.859 92.3384 238.908 92.326 238.957 92.3122C238.971 92.3081 238.986 92.304 239 92.2998C239.58 92.1341 240.121 91.9545 240.695 91.887C240.831 91.871 241.011 92.3827 241.099 93.0295C241.186 93.6757 241.129 94.2172 240.968 94.2361C240.307 94.3136 239.683 94.5007 239 94.6713C239 94.6713 239 94.6713 239 94.6713C238.944 94.6853 238.887 94.7005 238.83 94.7142C238.203 94.8657 237.541 94.9902 236.829 94.969C236.47 94.9579 236.124 94.9967 235.706 95.0279C235.506 95.0426 235.292 95.056 235.051 95.0583C234.319 95.0632 233.362 94.9873 232.074 94.4824C231.387 94.2095 230.643 93.9563 229.809 93.5988C229.618 93.5165 229.422 93.4287 229.223 93.3335C228.156 92.8238 226.943 92.1046 225.728 90.9065C225.422 90.6039 225.107 90.4025 224.788 90.1949C224.771 90.1831 224.753 90.1712 224.736 90.1592C224.436 89.963 224.132 89.7542 223.871 89.447C223.836 89.4059 223.792 89.3529 223.739 89.2897C223.161 88.5988 221.269 86.3358 220.657 82.6247C220.656 82.6132 220.654 82.6018 220.653 82.5903C220.282 80.1225 220.429 78.7847 219.787 77.745C219.631 77.4836 219.515 77.2345 219.429 77C219.244 76.4957 219.195 76.0794 219.179 75.7128C219.175 75.6107 219.172 75.5142 219.17 75.4225C219.166 75.0265 219.172 74.7142 219.05 74.3819C218.684 73.3731 218.017 72.5543 216.777 71.2777C215.729 70.1865 215.321 68.9396 215.044 67.8117C215.044 67.81 215.044 67.8084 215.043 67.8067C215.01 67.6726 214.979 67.5401 214.949 67.4095ZM258.961 72.0647C258.987 72.2528 258.491 72.5203 257.855 72.6623C257.218 72.8042 256.687 72.7865 256.666 72.6229C256.617 72.2286 256.554 71.8334 256.478 71.4406C256.447 71.2769 256.919 70.9766 257.537 70.769C258.155 70.5614 258.692 70.5446 258.732 70.7323C258.823 71.1746 258.9 71.6202 258.961 72.0647ZM203.521 64.3988C203.509 64.0366 204.016 63.8629 204.639 64.0206C205.263 64.1782 205.773 64.5892 205.79 64.9295C205.799 65.11 205.825 65.4105 205.87 65.8117C206.075 67.8732 206.892 72.4733 208.396 77C208.997 78.8741 209.677 80.753 210.339 82.5944C210.53 83.1261 210.724 83.5979 210.918 84.036C211.795 85.9319 213.764 86.8981 215.388 90.0702C219.741 98.5002 228.582 105.471 239 105.812C245.01 106.077 251.175 103.982 255.495 99.8895C258.856 96.7258 261.69 93.2176 263.723 89.2132C265.625 86.0352 267.968 79.2626 267.933 77.4788C267.956 77.2142 268.501 76.9988 269.154 77C269.806 77.0013 270.318 77.2385 270.294 77.5275C270.343 79.4312 267.914 86.7735 265.861 90.2246C263.667 94.5704 260.592 98.372 256.937 101.762C252.227 106.154 245.717 108.826 239 109.063C227.515 109.654 216.09 102.763 210.805 92.586C208.835 88.7413 209.566 86.6829 208.655 84.6988C208.45 84.2225 208.243 83.7099 208.04 83.1279C207.331 81.1028 206.619 79.0407 206.003 77C204.528 72.2688 203.776 67.5425 203.592 65.3692C203.551 64.9317 203.527 64.6007 203.521 64.3988ZM212.625 51.5455C215.07 48.6807 219.619 45.6375 223.95 44.0293C226.052 43.2163 228.071 42.6798 229.685 42.306C232.2 41.7332 233.901 42.0773 235.497 42.4717C235.514 42.4759 235.531 42.48 235.548 42.4842C236.629 42.7621 237.679 43.0745 239 43.3022C239.627 43.411 240.303 43.5026 241.082 43.578C243.517 43.8035 246.931 43.953 250.364 44.7653C250.366 44.7662 250.369 44.7671 250.371 44.768C253.737 45.5197 257.742 45.9522 259.904 47.6247C267.382 53.5202 268.516 59.8721 268.551 62.6658C268.527 67.5539 272.095 72.1786 269.288 76.8549C268.662 77.3305 266.875 76.5449 267.355 75.715C267.368 75.6843 267.381 75.6536 267.394 75.6228C267.516 75.3289 267.61 75.0663 267.671 74.702C267.703 74.1788 267.665 73.791 267.626 73.4389C267.686 72.4889 266.554 66.1763 266.385 63.4952C266.359 60.8881 263.126 56.8272 256.851 51.8684C255.117 50.5048 252.904 47.7512 249.65 47.0183C249.641 47.0162 249.633 47.0141 249.624 47.0121C246.446 46.2812 243.242 46.1574 240.94 45.9386C240.218 45.8667 239.587 45.7773 239 45.671C237.69 45.435 236.656 45.1051 235.611 44.8167C235.596 44.8124 235.581 44.8081 235.566 44.8038C234.087 44.4095 232.561 44.0773 230.299 44.5866C228.758 44.9396 226.85 45.4453 224.871 46.2055C220.838 47.6945 216.626 50.488 214.36 53.1499C214.154 53.3852 213.595 53.2264 213.108 52.7924C212.621 52.3586 212.403 51.7993 212.625 51.5455ZM202.108 41.243C209.81 29.49 225.562 23.4049 239 25.9574C240.011 26.1301 240.999 26.3423 241.983 26.593C245.697 26.8764 250.868 27.8896 255.684 29.817C255.738 29.8393 255.792 29.8616 255.846 29.884C260.623 31.7629 264.943 34.4705 267.814 36.6568C278.06 44.5734 281.245 52.4352 281.833 56.3225C282.281 60.0684 282.503 60.9509 282.981 62.3261C282.993 62.3638 283.004 62.4014 283.016 62.4391C283.018 62.441 283.021 62.4428 283.024 62.4447C283.068 62.4822 283.098 62.5163 283.111 62.5344C283.14 62.5711 283.156 62.6032 283.162 62.6152C283.177 62.6429 283.185 62.6674 283.188 62.6761C283.201 62.7113 283.214 62.7524 283.222 62.7792C283.291 63.0293 283.462 63.8182 283.539 64.4581C283.619 65.1134 283.61 65.5967 283.587 66.1007C283.585 66.1518 283.582 66.203 283.58 66.2542C283.557 66.7092 283.528 67.2035 283.516 67.9014C283.508 68.3258 282.972 68.7227 282.328 68.7924C281.684 68.8613 281.178 68.5984 281.189 68.1966C281.206 67.4983 281.24 66.9981 281.266 66.5627C281.269 66.5143 281.272 66.4659 281.275 66.4175C281.299 65.9585 281.306 65.5502 281.243 64.9985C281.096 64.2146 280.921 63.6486 280.754 63.1334C280.287 61.7805 280.042 60.8134 279.627 57.0596C279.112 53.5436 276.246 46.1977 266.444 38.5807C263.707 36.4906 259.591 33.9028 255.048 32.1069C254.995 32.0858 254.941 32.0649 254.888 32.044C250.302 30.1998 245.383 29.2254 241.849 28.9512C240.898 28.8717 239.955 28.8276 239 28.8169C226.002 28.6946 214.03 34.6195 203.855 42.8349C202.107 44.7671 200.629 46.6309 199.368 48.4342C195.689 53.7411 193.736 58.5455 193.76 63.3678C193.779 64.4203 193.264 67.0242 193.09 70.7726C193.04 71.8715 193.021 73.0682 193.06 74.3615C193.085 75.2051 193.135 76.0803 193.216 77C193.438 79.5135 193.899 82.3015 194.748 85.2246C194.989 86.0561 195.238 86.7983 195.489 87.492C196.627 90.4396 197.455 92.7683 200.138 98.0521C203.215 104.725 211.87 113.834 217.845 117.079C220.717 118.834 222.461 119.672 223.679 120.3C224.02 120.472 224.321 120.623 224.599 120.759C225.33 121.112 225.9 121.372 226.676 121.645C230.993 123.123 234.581 123.492 239 123.2C240.323 123.103 241.714 122.933 243.23 122.661C243.639 122.588 244.058 123.045 244.163 123.688C244.268 124.332 243.998 124.925 243.565 125.002C241.93 125.292 240.428 125.472 239 125.57C234.381 125.857 230.579 125.464 226.01 123.911C225.158 123.614 224.515 123.323 223.733 122.948C223.445 122.809 223.138 122.657 222.798 122.488C221.537 121.843 219.719 120.979 216.709 119.15C210.426 115.759 201.309 106.204 198.068 99.1966C195.263 93.6865 194.417 91.2753 193.232 88.1824C192.969 87.4511 192.706 86.6642 192.452 85.7821C191.552 82.655 191.07 79.6749 190.845 77C190.767 76.0747 190.72 75.1912 190.695 74.3423C190.657 72.9842 190.679 71.7317 190.733 70.5808C190.931 66.5636 191.455 63.9943 191.439 63.0502C191.438 57.8338 193.587 52.5792 197.499 46.9781C198.811 45.1114 200.335 43.2027 202.108 41.243ZM265.899 114.788C265.572 115.063 264.983 114.857 264.591 114.335C264.199 113.813 264.136 113.184 264.444 112.925C266.073 111.549 267.135 110.452 267.944 109.584C269.428 107.964 270.073 107.135 271.148 105.987C273.905 103.006 276.112 99.7124 277.723 96.5611C280.425 91.3111 281.46 86.5426 281.989 84.0606C282.073 83.6691 282.658 83.4316 283.303 83.5286C283.947 83.6258 284.405 84.0406 284.317 84.4565C283.769 87.0556 282.689 92.0484 279.86 97.5695C278.164 100.9 275.84 104.39 272.917 107.556C271.818 108.731 271.174 109.554 269.644 111.221C268.792 112.134 267.663 113.303 265.899 114.788Z" fill="black" fill-opacity="0.2"/>
<path d="M398 109V94.3644H357.864V82.3423H398V68.4744H344V109H398Z" fill="#2D9CDB"/>
<path d="M398 109V94.3644H357.864V82.3423H398V68.4744H344V109H398Z" fill="black" fill-opacity="0.2"/>
<path d="M398 109V94.3644H357.864V82.3423H398V68.4744H344V109H398Z" fill="black" fill-opacity="0.2"/>
<path d="M398 109V94.3644H357.864V82.3423H398V68.4744H344V109H398Z" fill="black" fill-opacity="0.2"/>
<path d="M398 109V94.3644H357.864V82.3423H398V68.4744H344V109H398Z" fill="black" fill-opacity="0.2"/>
<path d="M398 41H344V56.73H398V41Z" fill="#2D9CDB"/>
<path d="M398 41H344V56.73H398V41Z" fill="black" fill-opacity="0.2"/>
<path d="M398 41H344V56.73H398V41Z" fill="black" fill-opacity="0.2"/>
<path d="M398 41H344V56.73H398V41Z" fill="black" fill-opacity="0.2"/>
<path d="M398 41H344V56.73H398V41Z" fill="black" fill-opacity="0.2"/>
<path d="M398 109V94.3644H357.864V82.3423H398V68.4744H344V109H398Z" stroke="#2D9CDB"/>
<path d="M398 109V94.3644H357.864V82.3423H398V68.4744H344V109H398Z" stroke="black" stroke-opacity="0.2"/>
<path d="M398 109V94.3644H357.864V82.3423H398V68.4744H344V109H398Z" stroke="black" stroke-opacity="0.2"/>
<path d="M398 109V94.3644H357.864V82.3423H398V68.4744H344V109H398Z" stroke="black" stroke-opacity="0.2"/>
<path d="M398 109V94.3644H357.864V82.3423H398V68.4744H344V109H398Z" stroke="black" stroke-opacity="0.2"/>
<path d="M398 41H344V56.73H398V41Z" stroke="#2D9CDB"/>
<path d="M398 41H344V56.73H398V41Z" stroke="black" stroke-opacity="0.2"/>
<path d="M398 41H344V56.73H398V41Z" stroke="black" stroke-opacity="0.2"/>
<path d="M398 41H344V56.73H398V41Z" stroke="black" stroke-opacity="0.2"/>
<path d="M398 41H344V56.73H398V41Z" stroke="black" stroke-opacity="0.2"/>
<path d="M484.721 79.4216V109H471V40H484.721V67.4727H513.279V40H527V109H513.279V79.4216H484.721Z" fill="#FAF9F6"/>
<path d="M436.453 97.8C444.859 97.8 450.677 93.4874 453.908 84.8621L466 89.5448C463.397 96.1103 459.57 101.002 454.52 104.221C449.501 107.407 443.479 109 436.453 109C429.364 109 423.326 107.616 418.338 104.848C413.351 102.048 409.54 98.0092 406.905 92.731C404.302 87.4529 403 81.1126 403 73.7103C403 66.2437 404.255 59.9356 406.764 54.7862C409.273 49.6368 412.975 45.7264 417.868 43.0552C422.761 40.3517 428.752 39 435.841 39C443.62 39 449.956 40.6092 454.849 43.8276C459.742 47.0138 463.177 51.7126 465.153 57.9241L452.92 61.3517C451.885 57.9402 449.846 55.2368 446.804 53.2414C443.792 51.2138 440.232 50.2 436.123 50.2C429.85 50.2 425.082 52.1954 421.82 56.1862C418.589 60.177 416.974 66.0184 416.974 73.7103C416.974 78.9241 417.711 83.3172 419.185 86.8897C420.691 90.4621 422.886 93.1816 425.772 95.0483C428.689 96.8828 432.249 97.8 436.453 97.8Z" fill="#FAF9F6"/>
<path d="M326.053 2L363 46.8381H335.238V109H315.555V46.8381H288L326.053 2Z" fill="#2D9CDB"/>
<path d="M326.053 2L363 46.8381H335.238V109H315.555V46.8381H288L326.053 2Z" fill="black" fill-opacity="0.2"/>
<path d="M326.053 2L363 46.8381H335.238V109H315.555V46.8381H288L326.053 2Z" fill="black" fill-opacity="0.2"/>
<path d="M326.053 2L363 46.8381H335.238V109H315.555V46.8381H288L326.053 2Z" fill="black" fill-opacity="0.2"/>
<path d="M326.053 2L363 46.8381H335.238V109H315.555V46.8381H288L326.053 2Z" fill="black" fill-opacity="0.2"/>
<path d="M154.281 70.0938V109.047H142V43H157.797L187 94.2812C186.438 89.5312 186.156 85.2344 186.156 81.3906V43H198.438V109.047H182.219L153.438 58.1875C153.719 60.6562 153.922 62.8906 154.047 64.8906C154.203 66.8594 154.281 68.5938 154.281 70.0938Z" fill="#FAF9F6"/>
<path d="M133.828 43V109.047H120V43H133.828Z" fill="#FAF9F6"/>
<path d="M85.6094 42H1V53.5H21.3281V75.5V108.316L36 108.5V53.5H84.5312C88.5937 53.5 91.2656 53.5312 93.2969 55.125C95.3281 56.7188 96.3437 59.0938 96.3437 62.25C96.3437 65.4062 95.3437 67.8594 93.3437 69.6094C91.3437 71.3594 88.4062 72.2344 84.5312 72.2344H68.5703H52.6094V82.9688V95V109H66.4375V95.5078V82.9688H82.6562L98.4375 109H114L95.6875 80.2969C100.156 79.2344 103.703 77.0312 106.328 73.6875C108.953 70.3125 110.266 66.3125 110.266 61.6875C110.266 55.3438 108.125 50.4844 103.844 47.1094C99.5625 43.7031 93.4844 42 85.6094 42Z" fill="#FAF9F6"/>
<path d="M320.719 43L296.438 109.047H282.422L258 43H272.438L286.031 85.4219C286.469 86.7969 286.969 88.5312 287.531 90.625C288.125 92.6875 288.781 95.1094 289.5 97.8906C290.531 93.9844 291.266 91.1562 291.703 89.4062C292.172 87.6562 292.562 86.3281 292.875 85.4219L306.422 43H320.719Z" fill="#FAF9F6"/>
<path d="M257.941 73.0853L230 87.4423L230.386 58L257.941 73.0853Z" fill="#2D9CDB"/>
<path d="M257.941 73.0853L230 87.4423L230.386 58L257.941 73.0853Z" fill="black" fill-opacity="0.2"/>
<path d="M257.941 73.0853L230 87.4423L230.386 58L257.941 73.0853Z" fill="black" fill-opacity="0.2"/>
<path d="M257.941 73.0853L230 87.4423L230.386 58L257.941 73.0853Z" fill="black" fill-opacity="0.2"/>
<path d="M257.941 73.0853L230 87.4423L230.386 58L257.941 73.0853Z" fill="black" fill-opacity="0.2"/>
<path d="M253.745 70.6433C253.085 70.9499 252.369 71.5262 251.677 71.7535C251.668 71.7567 251.658 71.7599 251.648 71.763C251.365 71.8559 251.068 71.9329 250.709 72.0261C250.663 72.038 250.616 72.05 250.568 72.0624C250.142 72.1732 249.62 72.3119 248.922 72.5266C246.577 73.2475 245.014 74.372 244.528 74.7219C243.553 75.4236 242.428 76.0061 240.893 76.8007C240.752 76.8734 240.608 76.9472 240.461 77.0236C240.341 77.0856 240.176 77.0079 240.091 76.8497C240.006 76.6914 240.034 76.5129 240.154 76.4509C240.298 76.376 240.439 76.3031 240.576 76.2321C240.577 76.2317 240.578 76.2314 240.578 76.2311C242.123 75.4314 243.224 74.8615 244.176 74.1763C244.673 73.8188 246.274 72.6673 248.676 71.9286C249.382 71.7116 249.91 71.5707 250.338 71.4592C250.385 71.447 250.431 71.4353 250.475 71.4238C250.477 71.4235 250.478 71.4233 250.479 71.423C250.841 71.3292 251.125 71.2557 251.396 71.1668C251.402 71.1648 251.407 71.1628 251.413 71.1608C252.113 70.931 252.812 70.3607 253.452 70.0634C253.575 70.0067 253.739 70.0906 253.82 70.2508C253.901 70.4109 253.867 70.5865 253.745 70.6433ZM232.223 67.1743C231.994 66.4692 232.033 65.5358 232.15 64.7127C232.267 63.8839 232.469 63.135 232.591 62.7829C232.711 62.4387 232.753 62.0551 232.782 61.5971C232.789 61.4921 232.795 61.3831 232.801 61.2705C232.821 60.8983 232.844 60.4842 232.901 60.03C233 59.2468 233.058 58.5912 233.09 58.0355L229.088 60.3716C229.626 60.6981 230.065 60.9365 230.432 61.1268C230.574 61.2005 230.707 61.2678 230.831 61.3308C230.831 61.3309 230.831 61.331 230.832 61.3311C231.301 61.5689 231.651 61.7466 231.932 61.9848C232.432 62.4088 232.836 62.7631 233.282 63.2672C233.897 63.9623 235.006 64.5268 235.819 64.7256C235.864 64.7365 235.91 64.7473 235.956 64.7585C236.547 64.9019 237.273 65.0785 238.293 65.4717C239.14 65.7984 239.824 66.1834 240.416 66.5464C240.586 66.6505 240.747 66.7522 240.901 66.8495C241.291 67.0949 241.64 67.3146 241.988 67.4881C244.141 68.5634 245.301 69.3325 245.981 69.9062C246.504 70.3474 246.748 70.6808 246.925 70.9214C246.978 70.9941 247.025 71.0588 247.071 71.1149C247.487 71.6157 247.923 71.977 248.448 72.4117C248.564 72.5081 248.685 72.6086 248.811 72.7146C249.232 73.0692 249.593 73.2458 249.892 73.3568C250.023 73.4053 250.141 73.4418 250.253 73.4758C250.255 73.4763 250.257 73.4769 250.259 73.4774C250.275 73.4822 250.29 73.4871 250.305 73.4918C250.317 73.4953 250.329 73.4983 250.34 73.5019C250.346 73.5012 250.351 73.5014 250.354 73.5013C250.357 73.5012 250.359 73.5012 250.361 73.5012C250.361 73.501 250.362 73.5009 250.362 73.5008C250.388 73.5006 250.407 73.5056 250.411 73.5066C250.418 73.5083 250.424 73.5106 250.427 73.5116C250.443 73.5169 250.462 73.5256 250.475 73.5317C250.508 73.5471 250.565 73.5752 250.652 73.6196C250.732 73.6523 250.811 73.6776 250.911 73.709C250.917 73.7109 250.923 73.7128 250.929 73.7147C251.027 73.7453 251.14 73.7815 251.279 73.8324C251.406 73.8787 251.452 74.0498 251.383 74.2148C251.313 74.3798 251.153 74.4759 251.026 74.4297C250.895 74.3818 250.789 74.3481 250.691 74.3176C250.685 74.3157 250.679 74.3138 250.673 74.312C250.571 74.28 250.476 74.2496 250.377 74.2084C250.344 74.1946 250.31 74.1795 250.279 74.1649C250.221 74.1423 250.153 74.1207 250.071 74.0956C250.054 74.0906 250.037 74.085 250.02 74.0797C249.908 74.0459 249.778 74.0065 249.636 73.9536C249.304 73.83 248.904 73.6332 248.446 73.2473C248.326 73.1461 248.209 73.0491 248.095 72.9544C247.568 72.5183 247.1 72.1305 246.658 71.599C246.597 71.526 246.542 71.4505 246.483 71.37C246.308 71.1316 246.099 70.8466 245.616 70.4387C244.968 69.8922 243.837 69.1384 241.696 68.0691C241.332 67.8871 240.96 67.6525 240.563 67.4029C240.412 67.3077 240.256 67.2106 240.096 67.1128C239.513 66.7554 238.851 66.3827 238.033 66.0672C237.036 65.6828 236.33 65.5106 235.742 65.3679C235.721 65.3631 235.701 65.3584 235.681 65.3536C235.655 65.3475 235.63 65.3414 235.606 65.3354C234.738 65.1235 233.556 64.5281 232.877 63.7601C232.451 63.2782 232.064 62.9386 231.567 62.5169C231.322 62.3096 231.022 62.1577 230.563 61.9243C230.434 61.8588 230.292 61.7863 230.135 61.7049C229.764 61.512 229.318 61.2708 228.776 60.9417L233.74 58.044C233.707 58.6089 233.649 59.275 233.549 60.0702C233.493 60.51 233.472 60.9061 233.451 61.2762C233.445 61.3911 233.439 61.5039 233.432 61.6144C233.403 62.0746 233.359 62.5027 233.221 62.9006C233.107 63.2276 232.911 63.9523 232.796 64.7585C232.681 65.5704 232.654 66.4337 232.855 67.0534C232.876 67.1179 232.896 67.1829 232.917 67.2478C233.096 67.8068 233.279 68.3768 233.589 68.8379C235.55 70.9119 234.744 74.6113 234.592 77.0566C234.59 77.0888 234.588 77.1209 234.586 77.153C234.411 79.9755 234.402 82.0283 234.399 82.728C234.398 82.7606 234.398 82.7903 234.398 82.817C234.398 82.8408 234.398 82.8624 234.398 82.8814C234.396 83.1664 234.416 83.4189 234.437 83.6835C234.438 83.6979 234.439 83.7123 234.44 83.7268C234.462 84.0063 234.483 84.2997 234.476 84.646C234.454 85.7528 234.463 86.6842 234.478 87.5011L227.953 83.4587C228.07 83.394 228.184 83.3305 228.295 83.2682C228.442 83.1862 228.585 83.1067 228.725 83.0288C228.725 83.0285 228.725 83.0283 228.726 83.0281C229.337 82.6859 229.878 82.3821 230.402 82.1127C231.357 81.6215 231.984 81.2534 232.466 80.9561C232.617 80.8628 232.755 80.7757 232.886 80.6932C233.169 80.515 233.415 80.3593 233.678 80.2143C234.172 79.9416 234.613 79.6648 235.048 79.3926C235.086 79.3683 235.125 79.3444 235.164 79.3202C235.635 79.0254 236.104 78.736 236.619 78.4699C236.739 78.4081 236.905 78.4869 236.989 78.6453C237.074 78.8035 237.045 78.9819 236.925 79.0437C236.425 79.3022 235.968 79.584 235.496 79.8787C235.458 79.903 235.419 79.9278 235.38 79.9523C234.946 80.2238 234.496 80.5048 233.993 80.7826C233.74 80.9224 233.507 81.0694 233.23 81.2441C233.098 81.3275 232.956 81.4173 232.796 81.5156C232.307 81.8174 231.673 82.1907 230.708 82.6866C230.191 82.9528 229.656 83.2523 229.045 83.5943C228.905 83.6727 228.761 83.7535 228.612 83.8365C228.495 83.9022 228.374 83.9693 228.251 84.0378L233.827 87.4926C233.812 86.678 233.804 85.7483 233.826 84.6448C233.832 84.3176 233.812 84.0395 233.791 83.7612C233.79 83.7456 233.788 83.73 233.787 83.7144C233.767 83.4521 233.746 83.1856 233.748 82.8845C233.748 82.8443 233.749 82.7929 233.749 82.7311C233.752 82.0303 233.761 79.9692 233.937 77.1364C233.938 77.1276 233.938 77.1188 233.939 77.11C234.057 75.2119 234.123 74.141 233.973 73.3321C233.855 72.6936 233.829 72.2173 233.818 71.8265C233.816 71.752 233.815 71.6815 233.813 71.6143C233.807 71.3238 233.803 71.0943 233.761 70.8645C233.633 70.1691 233.417 69.6687 233.008 69.0615C232.662 68.5466 232.461 67.9189 232.285 67.369C232.285 67.3682 232.285 67.3673 232.285 67.3665C232.264 67.3013 232.243 67.237 232.223 67.1743ZM253.182 74.3816C253.297 74.451 253.32 74.6339 253.233 74.7905C253.146 74.9472 252.981 75.0183 252.865 74.949C252.59 74.7837 252.315 74.6185 252.04 74.4532C251.924 74.3839 251.901 74.201 251.988 74.0443C252.076 73.8877 252.241 73.8166 252.356 73.8858C252.631 74.0511 252.906 74.2164 253.182 74.3816ZM228.983 67.6933C228.948 67.5615 229.063 67.4322 229.24 67.4047C229.416 67.3773 229.586 67.462 229.621 67.5937C229.639 67.6633 229.672 67.7779 229.717 67.932C230.041 69.0422 230.964 72.2121 231.202 75.5628C231.222 75.845 231.242 76.0978 231.262 76.3388C231.344 77.3692 231.795 78.2014 231.75 80.1696C231.695 82.6014 231.576 85.0317 231.446 87.4613L229.339 86.1559C234.643 83.6947 239.971 81.2874 244.98 78.2647C247.028 77.0284 249.133 75.9192 251.263 74.8372C253.038 73.9354 256.436 72.5638 257.215 72.2017C257.338 72.1449 257.502 72.229 257.583 72.3892C257.664 72.5493 257.63 72.7249 257.508 72.7817C256.734 73.1412 253.347 74.5077 251.578 75.4062C249.453 76.4861 247.352 77.5927 245.307 78.8265C240.293 81.8529 235.131 84.6168 229.921 87.2888L230.173 87.4446C230.206 85.0092 230.258 82.574 230.313 80.1399C230.357 78.1908 230.696 77.4016 230.613 76.3749C230.594 76.1334 230.573 75.8792 230.553 75.5944C230.318 72.2906 229.41 69.1689 229.083 68.0455C229.037 67.8864 229.002 67.767 228.983 67.6933ZM229.336 61.4358C229.317 60.4679 229.358 59.2383 229.417 57.9873L229.278 56.4944L230.852 57.1498C231.448 57.5032 232.048 57.8644 232.619 58.208C233.4 58.6782 234.125 59.1159 234.712 59.4546C235.622 59.9794 236.128 60.4332 236.629 60.8835C236.634 60.8883 236.639 60.893 236.645 60.8978C237.145 61.3477 237.648 61.7958 238.572 62.3289C239.503 62.8664 240.859 63.4882 242.227 64.1155C242.228 64.116 242.229 64.1166 242.23 64.1172C243.59 64.741 245.128 65.0854 246.076 65.6329C249.379 67.5407 251.227 69.0614 252.101 69.9397C253.631 71.4761 256.03 72.0057 257.521 73.706C257.644 73.9691 257.06 74.213 256.75 73.8808C256.738 73.8698 256.726 73.8588 256.715 73.8477C256.602 73.7437 256.503 73.6547 256.354 73.5453C256.131 73.4003 255.958 73.3043 255.801 73.2169C255.387 72.9876 252.566 71.3083 251.712 70.4505C250.882 69.617 248.7 68.8087 245.376 66.8887C244.446 66.3513 243.313 65.3293 241.946 64.7021C241.942 64.7004 241.938 64.6986 241.935 64.6969C240.577 64.0743 239.208 63.4465 238.261 62.9C237.303 62.3476 236.778 61.8786 236.271 61.4228C236.266 61.4183 236.261 61.4138 236.256 61.4093C235.76 60.9632 235.278 60.5304 234.402 60.0251C233.802 59.6789 233.067 59.237 232.281 58.7637C231.717 58.4239 231.126 58.068 230.54 57.7202L230.021 57.5044L230.067 57.9958C230.009 59.2398 229.967 60.4596 229.986 61.4228C229.989 61.5574 229.845 61.6694 229.666 61.673C229.486 61.6765 229.339 61.5702 229.336 61.4358ZM225.288 61.3517C225.109 60.2108 224.997 59.0691 224.945 57.9286L224.16 49.5468L233 53.2265C235.797 54.55 238.38 56.2581 240.782 58.2066C241.724 58.75 243.03 59.5227 244.335 60.2949C244.349 60.3038 244.364 60.3127 244.378 60.3217C245.669 61.0855 246.953 61.8458 247.881 62.3817C251.184 64.2895 253.198 65.5257 254.072 66.404C254.888 67.223 255.157 67.3716 255.556 67.5927C255.567 67.5989 255.578 67.6051 255.589 67.6113C255.59 67.6112 255.591 67.6111 255.592 67.6111C255.609 67.6112 255.623 67.6134 255.63 67.6148C255.644 67.6177 255.655 67.6217 255.659 67.6232C255.668 67.6266 255.675 67.6305 255.678 67.6317C255.688 67.637 255.7 67.6436 255.708 67.6481C255.777 67.69 255.991 67.8294 256.155 67.9497C256.323 68.073 256.435 68.1747 256.553 68.2834C256.565 68.2945 256.576 68.3055 256.588 68.3166C256.694 68.4147 256.809 68.5215 256.982 68.6634C257.087 68.7499 257.091 68.9398 256.991 69.0877C256.892 69.2355 256.726 69.2853 256.621 69.199C256.439 69.0497 256.317 68.9361 256.211 68.8375C256.199 68.8265 256.187 68.8154 256.175 68.8044C256.063 68.7004 255.963 68.6113 255.814 68.5018C255.591 68.3568 255.419 68.261 255.262 68.1736C254.848 67.9445 254.537 67.772 253.683 66.9143C252.854 66.0808 250.895 64.8722 247.57 62.9521C246.641 62.4152 245.355 61.6541 244.066 60.8909C244.05 60.882 244.035 60.8731 244.02 60.8642C242.715 60.0916 241.411 59.3192 240.471 58.777C237.79 57.2303 235.043 55.9034 232.39 54.3404L225.613 51.5194L226.215 57.9452C226.164 59.0716 226.08 60.2015 225.938 61.3384C225.953 62.1204 225.954 62.8349 225.955 63.497C225.956 65.4453 225.958 66.9405 226.334 68.3708C226.416 68.6843 226.479 69.5043 226.555 70.6889C226.577 71.0361 226.6 71.4169 226.626 71.8285C226.688 72.8375 226.761 74.0329 226.857 75.3798C226.877 75.662 226.897 75.9149 226.916 76.1558C226.999 77.1862 227.065 77.9996 227.02 79.9679C226.974 81.9889 226.817 85.1481 226.678 87.3987L227.223 93.2185L231.518 90.3973C231.926 90.2126 232.301 90.0439 232.63 89.898C233.625 89.4564 234.197 89.227 234.605 89.0712C234.719 89.0278 234.819 88.9906 234.911 88.9562C235.151 88.8663 235.338 88.7962 235.576 88.6913C237.287 87.936 238.416 87.2706 240.249 86.1505C240.364 86.0804 240.531 86.1492 240.621 86.3039C240.712 86.4587 240.693 86.6413 240.578 86.7116C238.742 87.8333 237.597 88.5089 235.862 89.2745C235.614 89.384 235.414 89.4587 235.169 89.5502C235.079 89.5842 234.982 89.6203 234.874 89.6615C234.473 89.8148 233.907 90.0416 232.917 90.4809C232.591 90.6256 232.219 90.7926 231.816 90.9756L226.679 94.3488L226.028 87.3902C226.167 85.1428 226.324 81.9829 226.37 79.9653C226.414 78.0163 226.35 77.2187 226.268 76.1919C226.249 75.9505 226.228 75.6965 226.208 75.4118C226.112 74.063 226.038 72.8643 225.976 71.8548C225.95 71.4438 225.927 71.0639 225.905 70.7181C225.827 69.5095 225.766 68.739 225.696 68.4704C225.307 66.99 225.305 65.4298 225.304 63.4634C225.304 62.8086 225.303 62.1086 225.288 61.3517ZM247.182 82.7509C247.067 82.8204 246.9 82.7507 246.81 82.5956C246.719 82.4405 246.739 82.2584 246.855 82.1889C247.464 81.8214 247.899 81.5527 248.239 81.3425C248.869 80.9534 249.173 80.7652 249.65 80.5255C250.883 79.9068 252.07 79.3041 253.138 78.7615C254.913 77.8597 256.359 77.1246 257.138 76.7625C257.261 76.7057 257.425 76.7897 257.506 76.9499C257.587 77.11 257.553 77.2857 257.431 77.3425C256.657 77.702 255.221 78.4313 253.453 79.3298C252.384 79.873 251.193 80.4784 249.953 81.101C249.49 81.3335 249.203 81.5108 248.587 81.8912C248.247 82.1013 247.807 82.3736 247.182 82.7509Z" fill="#26547C" fill-opacity="0.521569"/>
<path d="M15.5273 153.859C19.0169 153.859 21.4323 152.115 22.7734 148.625L27.793 150.52C26.7122 153.176 25.1237 155.155 23.0273 156.457C20.944 157.746 18.444 158.391 15.5273 158.391C12.5846 158.391 10.0781 157.831 8.00781 156.711C5.9375 155.578 4.35547 153.944 3.26172 151.809C2.18099 149.673 1.64062 147.108 1.64062 144.113C1.64062 141.092 2.16146 138.54 3.20312 136.457C4.24479 134.374 5.78125 132.792 7.8125 131.711C9.84375 130.617 12.3307 130.07 15.2734 130.07C18.5026 130.07 21.1328 130.721 23.1641 132.023C25.1953 133.312 26.6211 135.214 27.4414 137.727L22.3633 139.113C21.9336 137.733 21.0872 136.639 19.8242 135.832C18.5742 135.012 17.0964 134.602 15.3906 134.602C12.7865 134.602 10.8073 135.409 9.45312 137.023C8.11198 138.638 7.44141 141.001 7.44141 144.113C7.44141 146.223 7.7474 148 8.35938 149.445C8.98438 150.891 9.89583 151.991 11.0938 152.746C12.3047 153.488 13.7826 153.859 15.5273 153.859ZM74.5437 147.551V158H68.782V130.48H82.532C85.8133 130.48 88.3458 131.19 90.1297 132.609C91.9135 134.016 92.8055 136.04 92.8055 138.684C92.8055 140.611 92.2586 142.277 91.1648 143.684C90.0711 145.077 88.5932 145.995 86.7312 146.438L94.1727 158H87.6883L81.3016 147.551H74.5437ZM87.0047 138.918C87.0047 137.603 86.5815 136.613 85.7352 135.949C84.8888 135.285 83.6193 134.953 81.9266 134.953H74.5437V143.078H82.0828C83.6974 143.078 84.9214 142.714 85.7547 141.984C86.588 141.255 87.0047 140.233 87.0047 138.918ZM157.33 153.547V158H134.888V130.48H156.529V134.934H140.65V141.848H155.337V146.301H140.65V153.547H157.33ZM205.291 150.969L202.85 158H197.088L207.127 130.48H213.924L223.924 158H218.221L215.78 150.969H205.291ZM210.526 134.719C210.396 135.24 210.213 135.865 209.979 136.594C209.745 137.323 209.575 137.837 209.471 138.137L206.58 146.633H214.491L211.522 137.961C211.34 137.427 211.17 136.887 211.014 136.34C210.858 135.793 210.695 135.253 210.526 134.719ZM274.327 134.934V158H268.566V134.934H259.679V130.48H283.234V134.934H274.327ZM329.32 130.48V158H323.559V130.48H329.32ZM398.649 144.113C398.649 146.978 398.07 149.484 396.911 151.633C395.765 153.768 394.144 155.428 392.048 156.613C389.964 157.798 387.516 158.391 384.704 158.391C381.826 158.391 379.352 157.818 377.282 156.672C375.212 155.513 373.623 153.866 372.516 151.73C371.41 149.595 370.856 147.056 370.856 144.113C370.856 141.171 371.403 138.651 372.497 136.555C373.604 134.458 375.192 132.857 377.263 131.75C379.346 130.63 381.839 130.07 384.743 130.07C387.66 130.07 390.153 130.637 392.223 131.77C394.294 132.889 395.882 134.497 396.989 136.594C398.096 138.69 398.649 141.197 398.649 144.113ZM392.77 144.113C392.77 141.145 392.067 138.82 390.661 137.141C389.255 135.448 387.282 134.602 384.743 134.602C382.165 134.602 380.173 135.441 378.766 137.121C377.36 138.788 376.657 141.118 376.657 144.113C376.657 146.118 376.983 147.85 377.634 149.309C378.285 150.767 379.209 151.893 380.407 152.688C381.618 153.469 383.05 153.859 384.704 153.859C387.282 153.859 389.268 153.013 390.661 151.32C392.067 149.628 392.77 147.225 392.77 144.113ZM445.341 141.77V158H440.224V130.48H446.806L458.974 151.848C458.74 149.868 458.623 148.078 458.623 146.477V130.48H463.74V158H456.982L444.99 136.809C445.107 137.837 445.192 138.768 445.244 139.602C445.309 140.422 445.341 141.145 445.341 141.77ZM528.772 150.07C528.772 152.766 527.769 154.829 525.764 156.262C523.772 157.681 520.842 158.391 516.975 158.391C510.009 158.391 505.953 155.871 504.807 150.832L510.373 149.914C510.751 151.372 511.487 152.434 512.58 153.098C513.674 153.749 515.191 154.074 517.131 154.074C519.149 154.074 520.66 153.768 521.663 153.156C522.665 152.544 523.166 151.626 523.166 150.402C523.166 149.621 522.939 148.977 522.483 148.469C522.027 147.961 521.376 147.538 520.53 147.199C520.113 147.03 519.501 146.848 518.694 146.652C517.886 146.444 516.884 146.216 515.686 145.969C514.306 145.643 513.225 145.37 512.444 145.148C511.663 144.914 511.038 144.693 510.569 144.484C510.1 144.263 509.644 144.022 509.202 143.762C508.225 143.176 507.463 142.395 506.916 141.418C506.37 140.441 506.096 139.224 506.096 137.766C506.096 135.279 507.027 133.378 508.889 132.062C510.764 130.734 513.485 130.07 517.053 130.07C520.465 130.07 523.023 130.604 524.729 131.672C526.448 132.74 527.554 134.504 528.049 136.965L522.463 137.727C522.177 136.542 521.591 135.65 520.705 135.051C519.833 134.452 518.577 134.152 516.936 134.152C515.191 134.152 513.883 134.426 513.01 134.973C512.138 135.52 511.702 136.34 511.702 137.434C511.702 138.15 511.884 138.736 512.248 139.191C512.626 139.647 513.179 140.038 513.909 140.363C514.599 140.676 516.077 141.073 518.342 141.555C519.657 141.841 520.79 142.115 521.741 142.375C522.691 142.622 523.453 142.863 524.026 143.098C524.599 143.345 525.107 143.605 525.549 143.879C526.005 144.152 526.396 144.445 526.721 144.758C527.385 145.396 527.893 146.158 528.245 147.043C528.596 147.915 528.772 148.924 528.772 150.07Z" fill="#1A1A1A"/>
</svg>
