<svg width="100" height="100" viewBox="0 0 100 100" fill="none" xmlns="http://www.w3.org/2000/svg">
<g clip-path="url(#clip0_169_747)">
<mask id="mask0_169_747" style="mask-type:luminance" maskUnits="userSpaceOnUse" x="0" y="0" width="100" height="100">
<path d="M100 50C100 22.3858 77.6142 0 50 0C22.3858 0 0 22.3858 0 50C0 77.6142 22.3858 100 50 100C77.6142 100 100 77.6142 100 50Z" fill="white"/>
</mask>
<g mask="url(#mask0_169_747)">
<path d="M100 50C100 22.3858 77.6142 0 50 0C22.3858 0 0 22.3858 0 50C0 77.6142 22.3858 100 50 100C77.6142 100 100 77.6142 100 50Z" fill="#F0F6FF"/>
<path d="M86.0258 59.7309L80.5491 64.4309L87.3575 66.8238L86.0258 59.7309ZM54.4 14.872C55.3021 16.4768 57.3341 17.0464 58.9391 16.1443C60.5437 15.2422 61.1133 13.2099 60.2112 11.6052C59.3091 10.0004 57.2771 9.43078 55.6721 10.3329C54.0675 11.235 53.4979 13.2672 54.4 14.872ZM84.1604 65.0379L83.5879 64.7867C80.4975 71.8375 75.2546 77.7909 68.5437 81.7475L68.8612 82.2863L69.1783 82.8246C76.1171 78.7334 81.5375 72.5784 84.7329 65.2888L84.1604 65.0379ZM68.8612 82.2863L68.5437 81.7475C60.2325 86.6479 50.3321 88.0959 40.9657 85.7804L40.8157 86.3871L40.6657 86.9938C50.3496 89.3875 60.5858 87.8909 69.1783 82.8246L68.8612 82.2863ZM40.8157 86.3871L40.9657 85.7804C31.5995 83.465 23.5138 77.5709 18.4431 69.3625L17.9114 69.6909L17.3797 70.0196C22.6222 78.5059 30.982 84.6 40.6657 86.9938L40.8157 86.3871ZM17.9114 69.6909L18.4431 69.3625C13.3726 61.1542 11.721 51.2854 13.8427 41.8738L13.233 41.7363L12.6233 41.5987C10.4296 51.3296 12.1372 61.5329 17.3797 70.0196L17.9114 69.6909ZM13.233 41.7363L13.8427 41.8738C15.9645 32.4617 21.6905 24.2561 29.7925 19.0173L29.4531 18.4925L29.1138 17.9677C20.7371 23.384 14.817 31.8677 12.6233 41.5987L13.233 41.7363ZM29.4531 18.4925L29.7925 19.0173C37.8945 13.7785 47.7271 11.9238 57.1808 13.851L57.3054 13.2386L57.4304 12.6262C47.6562 10.6337 37.4904 12.5513 29.1138 17.9677L29.4531 18.4925Z" fill="#2E8B57"/>
<path d="M45.1421 34.7873C45.1488 36.6282 46.6463 38.1152 48.4875 38.1086C50.3283 38.102 51.8154 36.6043 51.8088 34.7633C51.8021 32.9224 50.3042 31.4354 48.4633 31.442C46.6225 31.4486 45.1354 32.9464 45.1421 34.7873ZM68.8917 34.7019C68.8983 36.5429 70.3963 38.0299 72.2371 38.0233C74.0779 38.0167 75.565 36.5189 75.5583 34.678C75.5521 32.837 74.0542 31.35 72.2133 31.3567C70.3721 31.3632 68.8854 32.861 68.8917 34.7019ZM25.1422 34.8592L25.1444 35.4842L48.4775 35.4003L48.4754 34.7753L48.4729 34.1503L25.1399 34.2342L25.1422 34.8592ZM24.3315 41.1536L24.9564 41.1513L24.9368 35.6932L24.3118 35.6955L23.6868 35.6977L23.7065 41.1558L24.3315 41.1536ZM32.963 41.9558L32.9608 41.3309L25.1655 41.3589L25.1678 41.9837L25.17 42.6087L32.9653 42.5808L32.963 41.9558ZM42.8608 43.9808L42.2358 43.9762L42.0538 68.5646L42.6788 68.5691L43.3038 68.5737L43.4858 43.9854L42.8608 43.9808ZM40.6029 70.6371L40.6007 70.0121L36.9609 70.0254L36.9632 70.6504L36.9654 71.2754L40.6051 71.2621L40.6029 70.6371ZM34.8724 68.5517L35.4974 68.5562L35.6788 44.0592L35.0538 44.0546L34.4288 44.05L34.2474 68.5471L34.8724 68.5517ZM50.6442 41.8925L50.6417 41.2673L44.9342 41.2878L44.9367 41.9129L44.9388 42.5379L50.6463 42.5175L50.6442 41.8925ZM72.225 34.6899L72.2229 34.0649L57.355 34.1184L57.3571 34.7434L57.3592 35.3684L72.2275 35.3149L72.225 34.6899ZM55.5904 35.7348L55.0579 35.4072L51.8783 40.5734L52.4108 40.9009L52.9429 41.2285L56.1225 36.0624L55.5904 35.7348ZM57.3571 34.7434L57.355 34.1184C56.4179 34.1218 55.5492 34.6092 55.0579 35.4072L55.5904 35.7348L56.1225 36.0624C56.3871 35.6327 56.8546 35.3702 57.3592 35.3684L57.3571 34.7434ZM50.6442 41.8925L50.6463 42.5175C51.5833 42.5142 52.4521 42.0267 52.9429 41.2285L52.4108 40.9009L51.8783 40.5734C51.6142 41.003 51.1463 41.2655 50.6417 41.2673L50.6442 41.8925ZM36.9632 70.6504L36.9609 70.0254C36.1493 70.0283 35.4914 69.3679 35.4974 68.5562L34.8724 68.5517L34.2474 68.5471C34.2363 70.0541 35.458 71.2808 36.9654 71.2754L36.9632 70.6504ZM42.8608 43.9808L43.4858 43.9854C43.4917 43.1862 44.1396 42.5408 44.9388 42.5379L44.9367 41.9129L44.9342 41.2878C43.45 41.2932 42.2467 42.4921 42.2358 43.9762L42.8608 43.9808ZM32.963 41.9558L32.9653 42.5808C33.7769 42.5779 34.4348 43.2383 34.4288 44.05L35.0538 44.0546L35.6788 44.0592C35.6899 42.5517 34.4682 41.3254 32.9608 41.3309L32.963 41.9558ZM24.3315 41.1536L23.7065 41.1558C23.7093 41.9612 24.3646 42.6117 25.17 42.6087L25.1678 41.9837L25.1655 41.3589C25.0505 41.3593 24.9568 41.2664 24.9564 41.1513L24.3315 41.1536ZM42.6788 68.5691L42.0538 68.5646C42.0479 69.3637 41.3998 70.0092 40.6007 70.0121L40.6029 70.6371L40.6051 71.2621C42.0892 71.2567 43.2925 70.0579 43.3038 68.5737L42.6788 68.5691ZM25.1422 34.8592L25.1399 34.2342C24.3345 34.2371 23.6839 34.8923 23.6868 35.6977L24.3118 35.6955L24.9368 35.6932C24.9364 35.5782 25.0293 35.4846 25.1444 35.4842L25.1422 34.8592Z" fill="#2C3E91"/>
<g filter="url(#filter0_d_169_747)">
<path d="M45.5821 41.2441C45.2367 41.2453 44.9579 41.5261 44.9592 41.8712C44.9604 42.2166 45.2413 42.4954 45.5863 42.4941L45.5842 41.8691L45.5821 41.2441ZM77.0421 41.7558C77.0488 43.5971 78.5467 45.0841 80.3875 45.0775C82.2283 45.0708 83.7154 43.5729 83.7088 41.7321C83.7025 39.8911 82.2046 38.4041 80.3638 38.4107C78.5225 38.4173 77.0358 39.9151 77.0421 41.7558ZM57.7038 41.8254L57.7017 41.2005L45.5821 41.2441L45.5842 41.8691L45.5863 42.4941L57.7058 42.4504L57.7038 41.8254ZM80.3754 41.7441L80.3733 41.119L69.7204 41.1573L69.7229 41.7825L69.725 42.4075L80.3779 42.3691L80.3754 41.7441ZM67.6471 43.845L67.0221 43.8387L66.7783 68.4796L67.4029 68.4854L68.0279 68.4916L68.2721 43.8512L67.6471 43.845ZM65.3275 70.5483L65.325 69.9233L61.64 69.9366L61.6425 70.5616L61.6446 71.1866L65.3296 71.1733L65.3275 70.5483ZM59.5517 68.4575L60.1767 68.4637L60.4196 43.9358L59.7946 43.9296L59.1696 43.9233L58.9267 68.4512L59.5517 68.4575ZM61.6425 70.5616L61.64 69.9366C60.8271 69.9396 60.1688 69.2771 60.1767 68.4637L59.5517 68.4575L58.9267 68.4512C58.9117 69.9612 60.1346 71.1921 61.6446 71.1866L61.6425 70.5616ZM67.4029 68.4854L66.7783 68.4796C66.7704 69.2771 66.1229 69.9204 65.325 69.9233L65.3275 70.5483L65.3296 71.1733C66.8113 71.1679 68.0133 69.9733 68.0279 68.4916L67.4029 68.4854ZM69.7229 41.7825L69.7204 41.1573C68.2392 41.1626 67.0367 42.3575 67.0221 43.8387L67.6471 43.845L68.2721 43.8512C68.28 43.0533 68.9271 42.41 69.725 42.4075L69.7229 41.7825ZM57.7038 41.8254L57.7058 42.4504C58.5192 42.4475 59.1775 43.1104 59.1696 43.9233L59.7946 43.9296L60.4196 43.9358C60.4346 42.4258 59.2117 41.1951 57.7017 41.2005L57.7038 41.8254Z" fill="#2C3E91"/>
</g>
</g>
</g>
<defs>
<filter id="filter0_d_169_747" x="40.9592" y="38.4107" width="46.7496" height="40.7759" filterUnits="userSpaceOnUse" color-interpolation-filters="sRGB">
<feFlood flood-opacity="0" result="BackgroundImageFix"/>
<feColorMatrix in="SourceAlpha" type="matrix" values="0 0 0 0 0 0 0 0 0 0 0 0 0 0 0 0 0 0 127 0" result="hardAlpha"/>
<feOffset dy="4"/>
<feGaussianBlur stdDeviation="2"/>
<feComposite in2="hardAlpha" operator="out"/>
<feColorMatrix type="matrix" values="0 0 0 0 0 0 0 0 0 0 0 0 0 0 0 0 0 0 0.25 0"/>
<feBlend mode="normal" in2="BackgroundImageFix" result="effect1_dropShadow_169_747"/>
<feBlend mode="normal" in="SourceGraphic" in2="effect1_dropShadow_169_747" result="shape"/>
</filter>
<clipPath id="clip0_169_747">
<rect width="100" height="100" fill="white"/>
</clipPath>
</defs>
</svg>
