<svg width="40" height="40" viewBox="0 0 40 40" fill="none" xmlns="http://www.w3.org/2000/svg">
<g clip-path="url(#clip0_501_1428)">
<path d="M0.833333 40.0034C0.611667 40.0034 0.396667 39.9151 0.238333 39.7517C0.01 39.5184 -0.0616667 39.1751 0.0566667 38.8701L3.16167 30.7951C1.09 27.5767 0 23.8551 0 20.0034C0 8.97508 8.97167 0.00341797 20 0.00341797C31.0283 0.00341797 40 8.97508 40 20.0034C40 31.0318 31.0283 40.0034 20 40.0034C16.26 40.0034 12.6183 38.9601 9.445 36.9801L1.11333 39.9551C1.02167 39.9884 0.928333 40.0034 0.833333 40.0034ZM9.55 35.2251C9.71 35.2251 9.86833 35.2701 10.005 35.3601C12.9883 37.3084 16.445 38.3384 20 38.3384C30.1083 38.3384 38.3333 30.1134 38.3333 20.0051C38.3333 9.89675 30.1083 1.67175 20 1.67175C9.89167 1.67175 1.66667 9.89675 1.66667 20.0051C1.66667 23.6684 2.74333 27.2051 4.78333 30.2317C4.935 30.4567 4.96667 30.7434 4.87 30.9967L2.26333 37.7751L9.27 35.2734C9.36 35.2417 9.455 35.2251 9.55 35.2251Z" fill="#F1F5F9"/>
<path d="M25 30.0034C22.3817 30.0034 17.355 26.8718 15.2433 24.7601C13.1317 22.6468 10 17.6201 10 15.0034C10 12.3101 12.2917 10.0034 14.1667 10.0034H15.8333C16.15 10.0034 16.44 10.1834 16.58 10.4684C16.5817 10.4701 17.585 12.5101 18.2417 13.7901C18.9817 15.2351 17.59 16.9351 16.7983 17.7368C17.0817 18.4634 17.7433 19.9034 18.9217 21.0818C20.1 22.2601 21.54 22.9234 22.2667 23.2051C23.0667 22.4118 24.7667 21.0184 26.2133 21.7618C27.4933 22.4201 29.5317 23.4218 29.5333 23.4218C29.82 23.5634 30 23.8534 30 24.1701V25.8368C30 27.7134 27.6917 30.0034 25 30.0034ZM14.1667 11.6701C13.225 11.6701 11.6667 13.2284 11.6667 15.0034C11.6667 16.9351 14.39 21.5468 16.4233 23.5801C18.645 25.8018 23.2133 28.3368 25 28.3368C26.775 28.3368 28.3333 26.7784 28.3333 25.8368V24.6884C27.65 24.3518 26.36 23.7118 25.4517 23.2451C25.0617 23.0351 23.8767 23.8701 23.125 24.7218C22.91 24.9651 22.575 25.0584 22.2683 24.9701C22.1633 24.9401 19.695 24.2101 17.7433 22.2584C15.7917 20.3068 15.0633 17.8384 15.0317 17.7334C14.9417 17.4234 15.04 17.0901 15.28 16.8768C16.13 16.1251 16.96 14.9451 16.7567 14.5484C16.2917 13.6434 15.6533 12.3534 15.3167 11.6701H14.1667Z" fill="#F1F5F9"/>
</g>
<defs>
<clipPath id="clip0_501_1428">
<rect width="40" height="40" fill="white"/>
</clipPath>
</defs>
</svg>
