<svg width="50" height="50" viewBox="0 0 50 50" fill="none" xmlns="http://www.w3.org/2000/svg">
<path d="M42.3263 8.11748C42.2497 8.04004 42.2497 8.04004 42.173 8.04004C42.173 8.04004 42.173 8.04004 42.0963 8.04004C42.0963 8.04004 42.0963 8.04004 42.0197 8.04004C41.943 8.04004 41.8663 8.04004 41.7897 8.04004H14.9566C14.8033 8.04004 14.6499 8.11748 14.4966 8.19492L7.74999 12.7639C7.67332 12.8414 7.51999 12.8414 7.44332 12.9963C7.21333 13.1511 7.21333 13.4609 7.28999 13.7707V41.2622C7.28999 41.7268 7.59666 42.0366 8.05665 42.0366H35.6564C35.8864 42.0366 36.1164 41.9591 36.1931 41.8042L42.2497 37.2352C42.4797 37.0804 42.5563 36.848 42.5563 36.6157V8.73701C42.633 8.50468 42.5563 8.27236 42.3263 8.11748ZM15.2632 9.51141H39.5664L35.5031 12.609H10.6633L15.2632 9.51141ZM8.89998 14.1579H34.9664V40.4878H8.89998V14.1579ZM41.0997 36.2285L36.4997 39.7133V13.7707L41.0997 10.2858V36.2285Z" fill="white"/>
<path d="M11.9669 15.707H10.4336V17.2558H11.9669V15.707Z" fill="white"/>
<path d="M11.9669 37.3896H10.4336V38.9385H11.9669V37.3896Z" fill="white"/>
<path d="M33.4337 37.3896H31.9004V38.9385H33.4337V37.3896Z" fill="white"/>
<path d="M33.4337 15.707H31.9004V17.2558H33.4337V15.707Z" fill="white"/>
<path d="M29.599 30.7296C29.6757 30.6521 29.6757 30.4973 29.7524 30.4198H31.899C32.359 30.4198 32.6657 30.1101 32.6657 29.6454V24.999C32.6657 24.5343 32.359 24.2246 31.899 24.2246H29.7524C29.6757 24.1471 29.6757 23.9922 29.599 23.9148L31.1324 22.5209C31.2857 22.366 31.3624 22.2111 31.3624 21.9788C31.3624 21.7464 31.2857 21.5916 31.1324 21.4367L27.9124 18.1842C27.6057 17.8744 27.1457 17.8744 26.8391 18.1842L25.3824 19.6555C25.2291 19.5781 25.1524 19.5781 25.0758 19.5007V17.2549C25.0758 16.7902 24.7691 16.4805 24.3091 16.4805H19.7091C19.2491 16.4805 18.9425 16.7902 18.9425 17.2549V19.3458C18.8658 19.4232 18.7125 19.4232 18.6358 19.5007L17.1792 18.0293C17.0258 17.8744 16.8725 17.797 16.6425 17.797C16.4125 17.797 16.2592 17.8744 16.1058 18.0293L12.8859 21.2818C12.7325 21.4367 12.6559 21.5916 12.6559 21.8239C12.6559 22.0562 12.7325 22.2111 12.8859 22.366L14.3425 23.8373C14.2659 23.9922 14.2659 24.0697 14.1892 24.1471H11.9659C11.5059 24.1471 11.1992 24.4569 11.1992 24.9215V29.568C11.1992 30.0326 11.5059 30.3424 11.9659 30.3424H14.1125C14.1892 30.4198 14.1892 30.5747 14.2659 30.6521L12.8092 32.1235C12.6559 32.2784 12.5792 32.4333 12.5792 32.6656C12.5792 32.8979 12.6559 33.0528 12.8092 33.2077L16.0292 36.4602C16.3358 36.77 16.7958 36.77 17.1025 36.4602L18.5591 34.9888C18.7125 35.0663 18.7891 35.0663 18.8658 35.1437V37.3895C18.8658 37.8541 19.1725 38.1639 19.6325 38.1639H24.2324C24.6924 38.1639 24.9991 37.8541 24.9991 37.3895V35.2212C25.0758 35.1437 25.2291 35.1437 25.3057 35.0663L26.7624 36.5376C27.0691 36.8474 27.5291 36.8474 27.8357 36.5376L31.0557 33.2851C31.209 33.1302 31.2857 32.9754 31.2857 32.743C31.2857 32.5107 31.209 32.3558 31.0557 32.201L29.599 30.7296ZM27.2991 34.9114L25.9957 33.5949C25.8424 33.44 25.6891 33.3626 25.4591 33.3626C25.3057 33.3626 25.1524 33.44 24.9991 33.5175C24.8458 33.5949 24.2324 33.8272 24.0791 33.9047C23.6958 33.9821 23.4658 34.2919 23.4658 34.6791V36.6151H20.3991V34.6791C20.3991 34.4467 20.3225 34.2919 20.1691 34.137C20.0158 33.9047 18.7125 33.3626 18.4058 33.3626C18.1758 33.3626 18.0225 33.44 17.8692 33.5949L16.5658 34.9114L14.4192 32.743L15.7225 31.4265C15.8758 31.2717 15.9525 31.1168 15.9525 30.8845C15.9525 30.7296 15.8758 30.5747 15.7992 30.4198C15.7225 30.2649 15.4925 29.6454 15.4158 29.4905C15.3392 29.1033 15.0325 28.871 14.6492 28.871H12.7325V25.7734H14.6492C14.8792 25.7734 15.0325 25.6959 15.1858 25.541C15.4158 25.3862 15.9525 24.0697 15.9525 23.7599C15.9525 23.5276 15.8758 23.3727 15.7225 23.2178L14.4192 21.9013L16.5658 19.733L17.8692 21.0495C18.0225 21.2044 18.1758 21.2818 18.4058 21.2818C18.5591 21.2818 18.7125 21.2044 18.8658 21.1269C19.0191 21.0495 19.6325 20.8172 19.7858 20.7397C20.1691 20.6623 20.3991 20.3525 20.3991 19.9653V18.0293H23.4658V19.9653C23.4658 20.1976 23.5424 20.3525 23.6958 20.5074C23.8491 20.7397 25.1524 21.2818 25.4591 21.2818C25.6891 21.2818 25.8424 21.2044 25.9957 21.0495L27.2991 19.733L29.4457 21.9013L28.1424 23.2178C27.9891 23.3727 27.9124 23.5276 27.9124 23.7599C27.9124 23.9148 27.9891 24.0697 28.0657 24.2246C28.1424 24.3794 28.3724 24.999 28.4491 25.1538C28.5257 25.541 28.8324 25.7734 29.2157 25.7734H31.1324V28.871H29.2157C28.8324 28.871 28.5257 29.1808 28.4491 29.4905C28.4491 29.6454 28.1424 30.2649 28.0657 30.4198C27.9891 30.5747 27.9124 30.7296 27.9124 30.8845C27.9124 31.1168 27.9891 31.2717 28.1424 31.4265L29.4457 32.743L27.2991 34.9114Z" fill="white"/>
<path d="M21.9338 24.2266C20.2472 24.2266 18.8672 25.6205 18.8672 27.3242C18.8672 29.0279 20.2472 30.4218 21.9338 30.4218C23.6205 30.4218 25.0005 29.0279 25.0005 27.3242C25.0005 25.6205 23.6205 24.2266 21.9338 24.2266ZM21.9338 28.873C21.0905 28.873 20.4005 28.176 20.4005 27.3242C20.4005 26.4723 21.0905 25.7754 21.9338 25.7754C22.7772 25.7754 23.4671 26.4723 23.4671 27.3242C23.4671 28.176 22.7772 28.873 21.9338 28.873Z" fill="white"/>
<path d="M47.7691 4.32323L45.4691 2L44.3958 3.08417L45.3925 4.0909H8.13281V5.63972H45.3925L44.3958 6.64645L45.4691 7.73062L47.7691 5.4074C48.0758 5.09763 48.0758 4.63299 47.7691 4.32323Z" fill="white"/>
<path d="M3.53332 4.09082H2V5.63964H3.53332V4.09082Z" fill="white"/>
<path d="M6.59972 4.09082H5.06641V5.63964H6.59972V4.09082Z" fill="white"/>
<path d="M5.6033 43.3537L4.52998 42.2695L2.23 44.5928C1.92333 44.9025 1.92333 45.3672 2.23 45.6769L4.52998 48.0002L5.6033 46.916L4.60664 45.9093H41.8663V44.3604H4.60664L5.6033 43.3537Z" fill="white"/>
<path d="M48.0001 44.3604H46.4668V45.9092H48.0001V44.3604Z" fill="white"/>
<path d="M44.9337 44.3604H43.4004V45.9092H44.9337V44.3604Z" fill="white"/>
</svg>
