<svg width="50" height="50" viewBox="0 0 50 50" fill="none" xmlns="http://www.w3.org/2000/svg">
<path fill-rule="evenodd" clip-rule="evenodd" d="M24.9963 31.9712C27.642 31.9712 28.9592 28.7675 27.0983 26.9066C25.9398 25.7481 24.0611 25.7481 22.9026 26.9066C21.7441 28.0651 21.7441 29.9438 22.9026 31.1023C23.4385 31.6382 24.1786 31.97 24.9963 31.9712ZM25.0048 33.3384H23.0938C21.5383 33.3384 20.2631 34.6136 20.2631 36.1691V38.9999H29.7378V36.1691C29.7378 34.6136 28.4626 33.3384 26.907 33.3384H25.0048ZM32.5669 26.851L40.6088 19.9391L30.3965 23.0479C31.5066 24.0437 32.274 25.3758 32.5669 26.851ZM12.9014 14.7541L9.75576 11.0976C6.16377 14.782 3.89648 19.764 3.72266 25.274H8.5248C8.69023 21.2181 10.3207 17.5397 12.9014 14.7541ZM24.3169 9.48193C20.2968 9.6459 16.6476 11.2491 13.871 13.7903L10.7398 10.1507C14.3569 6.88555 19.1002 4.84424 24.3169 4.67969V9.48193ZM36.1956 13.8526L39.3282 10.2113C35.7028 6.91074 30.9331 4.84531 25.6841 4.67969V9.48184C29.671 9.64473 33.362 11.2307 36.1956 13.8526ZM40.3083 11.1629C43.8637 14.8408 46.1056 19.7964 46.2783 25.274H41.4762C41.4234 23.9947 41.2233 22.7275 40.8806 21.5035L43.9538 18.8621L43.9532 18.8614C44.5085 18.3858 44.0153 17.4791 43.3129 17.6925L39.8348 18.7513C39.1343 17.312 38.2303 15.9898 37.1603 14.822L40.3083 11.1629ZM36.9242 43.4068H13.5455C13.5039 43.4068 13.4673 43.4435 13.4673 43.4851V45.2428C13.4673 45.2845 13.5038 45.321 13.5455 45.321H36.9243C36.966 45.321 37.0025 45.2845 37.0025 45.2428V43.4851C37.0024 43.4434 36.9659 43.4068 36.9242 43.4068Z" fill="white"/>
</svg>
