<svg width="150" height="150" viewBox="0 0 150 150" fill="none" xmlns="http://www.w3.org/2000/svg">
<path d="M105.993 130.348H105.493C99.9268 130.056 94.4547 128.793 89.3244 126.614C76.4336 121.499 62.5581 111.71 50.2406 98.878C37.9231 86.046 28.6041 71.9059 23.9594 58.8682C19.3881 46.0656 19.8143 35.7913 25.1059 30.6908C25.7085 30.1029 26.3405 29.4708 26.9873 28.8094C31.2058 24.5468 36.4679 19.2259 43.6262 19.6668C48.5502 19.9608 53.1215 22.9152 57.5899 28.6771C70.8187 45.7276 63.4694 52.6213 57.149 58.6918L56.5757 59.2357L56.3405 59.9265C56.6051 61.7344 58.56 66.879 70.5542 79.3728C74.8086 83.9805 79.4999 88.1647 84.562 91.8667C86.0198 92.9585 87.656 93.7891 89.3979 94.3214L90.8677 93.3219C97.1441 87.1485 104.361 80.4605 120.677 94.0715C126.277 98.7457 129.055 103.42 129.172 108.373C129.334 115.561 123.852 120.603 119.442 124.645L119.06 124.939C118.501 125.453 117.943 125.953 117.443 126.409C114.841 129.025 110.887 130.348 105.993 130.348ZM42.7884 25.5169C38.467 25.5169 34.5718 29.4561 31.1323 32.9397L29.148 34.924C25.7379 38.2019 25.8555 46.83 29.442 56.9721C33.8516 69.2308 42.6708 82.6948 54.4297 94.88C66.1887 107.065 79.3734 116.34 91.441 121.161C95.9308 123.079 100.721 124.198 105.596 124.468C109.182 124.468 111.828 123.778 113.401 122.264L115.121 120.661L115.444 120.367C119.368 116.781 123.396 113.018 123.293 108.609C123.293 105.463 121.132 102.215 116.914 98.7016C104.435 88.2949 100.745 91.8373 94.7923 97.7168C94.6639 97.85 94.5209 97.9683 94.366 98.0696L91.8084 99.7599C91.399 100.028 90.9292 100.19 90.4415 100.23C88.0603 100.436 85.0324 99.3043 81.2548 96.732C75.8517 92.827 70.8492 88.3957 66.3209 83.5032C55.6938 72.3763 50.4905 64.6742 50.4317 59.6031C50.4204 59.2735 50.4703 58.9446 50.5787 58.633L51.2254 56.6928C51.3763 56.2373 51.6332 55.8242 51.975 55.4875L53.0921 54.4292C59.2068 48.5497 62.8815 45.1249 52.9451 32.2783C49.5792 27.8687 46.4042 25.7227 43.2587 25.5316L42.7884 25.5169Z" fill="#2E8B57"/>
</svg>
