<svg width="150" height="150" viewBox="0 0 150 150" fill="none" xmlns="http://www.w3.org/2000/svg">
<g clip-path="url(#clip0_378_136)">
<path d="M3.125 150.013C2.29375 150.013 1.4875 149.682 0.89375 149.069C0.0375001 148.194 -0.23125 146.907 0.2125 145.763L11.8562 115.481C4.0875 103.413 0 89.4565 0 75.0128C0 33.6565 33.6437 0.0127563 75 0.0127563C116.356 0.0127563 150 33.6565 150 75.0128C150 116.369 116.356 150.013 75 150.013C60.975 150.013 47.3187 146.1 35.4187 138.675L4.175 149.831C3.83125 149.956 3.48125 150.013 3.125 150.013ZM35.8125 132.094C36.4125 132.094 37.0062 132.263 37.5187 132.6C48.7062 139.906 61.6688 143.769 75 143.769C112.906 143.769 143.75 112.925 143.75 75.019C143.75 37.1128 112.906 6.26901 75 6.26901C37.0938 6.26901 6.25 37.1128 6.25 75.019C6.25 88.7565 10.2875 102.019 17.9375 113.369C18.5062 114.213 18.625 115.288 18.2625 116.238L8.4875 141.657L34.7625 132.275C35.1 132.156 35.4562 132.094 35.8125 132.094Z" fill="#2E8B57"/>
<path d="M93.75 112.513C83.9313 112.513 65.0812 100.769 57.1625 92.85C49.2437 84.925 37.5 66.075 37.5 56.2625C37.5 46.1625 46.0938 37.5125 53.125 37.5125H59.375C60.5625 37.5125 61.65 38.1875 62.175 39.2563C62.1812 39.2625 65.9437 46.9125 68.4062 51.7125C71.1812 57.1313 65.9625 63.5063 62.9938 66.5125C64.0563 69.2375 66.5375 74.6375 70.9562 79.0563C75.375 83.475 80.775 85.9625 83.5 87.0188C86.5 84.0438 92.875 78.8188 98.3 81.6063C103.1 84.075 110.744 87.8313 110.75 87.8313C111.825 88.3625 112.5 89.45 112.5 90.6375V96.8875C112.5 103.925 103.844 112.513 93.75 112.513ZM53.125 43.7625C49.5938 43.7625 43.75 49.6063 43.75 56.2625C43.75 63.5063 53.9625 80.8 61.5875 88.425C69.9188 96.7563 87.05 106.263 93.75 106.263C100.406 106.263 106.25 100.419 106.25 96.8875V92.5813C103.688 91.3188 98.85 88.9188 95.4437 87.1688C93.9813 86.3813 89.5375 89.5125 86.7188 92.7063C85.9125 93.6188 84.6562 93.9688 83.5062 93.6375C83.1125 93.525 73.8563 90.7875 66.5375 83.4688C59.2188 76.15 56.4875 66.8938 56.3687 66.5C56.0312 65.3375 56.4 64.0875 57.3 63.2875C60.4875 60.4688 63.6 56.0438 62.8375 54.5563C61.0938 51.1625 58.7 46.325 57.4375 43.7625H53.125Z" fill="#2E8B57"/>
</g>
<defs>
<clipPath id="clip0_378_136">
<rect width="150" height="150" fill="white"/>
</clipPath>
</defs>
</svg>
