<svg width="150" height="150" viewBox="0 0 150 150" fill="none" xmlns="http://www.w3.org/2000/svg">
<g clip-path="url(#clip0_378_143)">
<path d="M146.341 24.5071L146.339 24.5051L146.335 24.5021C144.093 22.3194 141.086 21.1013 137.956 21.1087H12.044C8.9477 21.1018 5.96908 22.2946 3.73339 24.4368L3.72929 24.4406L3.72695 24.4427L3.72548 24.4441L3.72284 24.4471C2.54114 25.5671 1.60122 26.9173 0.960983 28.4143C0.320745 29.9113 -0.00626525 31.5236 9.09103e-05 33.1517V116.849C0.00210881 120.042 1.27167 123.104 3.52991 125.363C5.78815 127.621 8.8504 128.89 12.044 128.892H137.956C141.15 128.891 144.212 127.621 146.47 125.363C148.729 123.105 149.998 120.042 150 116.849V33.1517C150.006 31.5384 149.684 29.9406 149.055 28.4548C148.426 26.9691 147.503 25.6262 146.341 24.5071ZM96.3601 74.9191L143.914 30.8039C144.208 31.5518 144.358 32.3483 144.356 33.1517V116.849C144.357 117.647 144.208 118.439 143.917 119.183L96.3601 74.9191ZM137.956 26.7501C138.553 26.7505 139.147 26.8343 139.721 26.9988L75.0493 86.9935L40.9038 55.3186L10.3595 26.9786C10.9084 26.8282 11.4749 26.7513 12.044 26.7501H137.956ZM6.08095 119.183C5.78996 118.439 5.6409 117.647 5.6415 116.849V33.1517C5.63953 32.3232 5.79874 31.5022 6.11025 30.7345L37.0659 59.4551L53.6866 74.8731L6.08095 119.183ZM12.044 123.25C11.4423 123.25 10.8437 123.165 10.2657 122.997L57.8348 78.7207L73.1307 92.91C73.6525 93.394 74.3379 93.6629 75.0496 93.6629C75.7613 93.6629 76.4467 93.394 76.9685 92.91L92.2141 78.767L139.734 122.998C139.155 123.165 138.557 123.25 137.955 123.25H12.044Z" fill="#2E8B57"/>
</g>
<defs>
<clipPath id="clip0_378_143">
<rect width="150" height="150" fill="white"/>
</clipPath>
</defs>
</svg>
