<svg width="240" height="240" viewBox="0 0 240 240" fill="none" xmlns="http://www.w3.org/2000/svg">
<rect width="240" height="240" rx="120" fill="#F0F6FF"/>
<path d="M96.9997 78.6191C97.0156 83.0374 100.61 86.6062 105.028 86.5903C109.447 86.5744 113.015 82.9799 113 78.5616C112.984 74.1434 109.389 70.5745 104.971 70.5904C100.553 70.6063 96.9838 74.2009 96.9997 78.6191ZM91.5246 100.683L90.0246 100.672V100.672L91.5246 100.683ZM91.0877 159.696L89.5877 159.685V159.685L91.0877 159.696ZM72.3526 159.653L70.8526 159.642V159.642L72.3526 159.653ZM72.7878 100.861L74.2878 100.872L74.2878 100.872L72.7878 100.861ZM153.999 78.4143C154.015 82.8325 157.61 86.4013 162.028 86.3855C166.446 86.3696 170.015 82.775 169.999 78.3568C169.983 73.9385 166.389 70.3697 161.971 70.3856C157.552 70.4014 153.983 73.996 153.999 78.4143ZM122.076 80.893L123.353 81.6792L123.353 81.6792L122.076 80.893ZM114.445 93.2919L113.167 92.5057L113.167 92.5057L114.445 93.2919ZM49 78.7916L49.0054 80.2916L105.005 80.0904L105 78.5904L104.994 77.0904L48.9946 77.2916L49 78.7916ZM47.0543 93.8981L48.5543 93.8928L48.5072 80.7934L47.0072 80.7988L45.5072 80.8042L45.5543 93.9035L47.0543 93.8981ZM67.77 95.8237L67.7646 94.3237L49.0561 94.391L49.0614 95.8909L49.0668 97.3909L67.7754 97.3237L67.77 95.8237ZM91.5246 100.683L90.0246 100.672L89.5877 159.685L91.0877 159.696L92.5876 159.707L93.0245 100.694L91.5246 100.683ZM86.1058 164.659L86.1004 163.159L77.365 163.19L77.3704 164.69L77.3758 166.19L86.1112 166.159L86.1058 164.659ZM72.3526 159.653L73.8525 159.664L74.2878 100.872L72.7878 100.861L71.2879 100.85L70.8526 159.642L72.3526 159.653ZM110.204 95.6712L110.199 94.1712L96.5011 94.2204L96.5064 95.7204L96.5118 97.2204L110.21 97.1712L110.204 95.6712ZM161.999 78.3855L161.994 76.8855L126.31 77.0138L126.316 78.5138L126.321 80.0137L162.005 79.8855L161.999 78.3855ZM122.076 80.893L120.798 80.1068L113.167 92.5057L114.445 93.2919L115.722 94.0781L123.353 81.6792L122.076 80.893ZM126.316 78.5138L126.31 77.0138C124.062 77.0218 121.977 78.1917 120.798 80.1068L122.076 80.893L123.353 81.6792C123.988 80.648 125.11 80.0181 126.321 80.0137L126.316 78.5138ZM110.204 95.6712L110.21 97.1712C112.459 97.1631 114.543 95.9932 115.722 94.0781L114.445 93.2919L113.167 92.5057C112.533 93.5369 111.41 94.1668 110.199 94.1712L110.204 95.6712ZM77.3704 164.69L77.365 163.19C75.417 163.197 73.8381 161.612 73.8525 159.664L72.3526 159.653L70.8526 159.642C70.8258 163.26 73.758 166.203 77.3758 166.19L77.3704 164.69ZM91.5246 100.683L93.0245 100.694C93.0387 98.7765 94.5939 97.2273 96.5118 97.2204L96.5064 95.7204L96.5011 94.2204C92.9391 94.2332 90.051 97.1104 90.0246 100.672L91.5246 100.683ZM67.77 95.8237L67.7754 97.3237C69.7234 97.3167 71.3023 98.9016 71.2879 100.85L72.7878 100.861L74.2878 100.872C74.3146 97.2541 71.3824 94.3107 67.7646 94.3237L67.77 95.8237ZM47.0543 93.8981L45.5543 93.9035C45.5612 95.8365 47.1339 97.3979 49.0668 97.3909L49.0614 95.8909L49.0561 94.391C48.7799 94.3919 48.5553 94.1689 48.5543 93.8928L47.0543 93.8981ZM91.0877 159.696L89.5877 159.685C89.5735 161.603 88.0183 163.152 86.1004 163.159L86.1058 164.659L86.1112 166.159C89.6731 166.146 92.5612 163.269 92.5876 159.707L91.0877 159.696ZM49 78.7916L48.9946 77.2916C47.0616 77.2986 45.5003 78.8712 45.5072 80.8042L47.0072 80.7988L48.5072 80.7934C48.5062 80.5173 48.7292 80.2926 49.0054 80.2916L49 78.7916Z" fill="#2D9CDB"/>
<path d="M96.9997 78.6191C97.0156 83.0374 100.61 86.6062 105.028 86.5903C109.447 86.5744 113.015 82.9799 113 78.5616C112.984 74.1434 109.389 70.5745 104.971 70.5904C100.553 70.6063 96.9838 74.2009 96.9997 78.6191ZM91.5246 100.683L90.0246 100.672V100.672L91.5246 100.683ZM91.0877 159.696L89.5877 159.685V159.685L91.0877 159.696ZM72.3526 159.653L70.8526 159.642V159.642L72.3526 159.653ZM72.7878 100.861L74.2878 100.872L74.2878 100.872L72.7878 100.861ZM153.999 78.4143C154.015 82.8325 157.61 86.4013 162.028 86.3855C166.446 86.3696 170.015 82.775 169.999 78.3568C169.983 73.9385 166.389 70.3697 161.971 70.3856C157.552 70.4014 153.983 73.996 153.999 78.4143ZM122.076 80.893L123.353 81.6792L123.353 81.6792L122.076 80.893ZM114.445 93.2919L113.167 92.5057L113.167 92.5057L114.445 93.2919ZM49 78.7916L49.0054 80.2916L105.005 80.0904L105 78.5904L104.994 77.0904L48.9946 77.2916L49 78.7916ZM47.0543 93.8981L48.5543 93.8928L48.5072 80.7934L47.0072 80.7988L45.5072 80.8042L45.5543 93.9035L47.0543 93.8981ZM67.77 95.8237L67.7646 94.3237L49.0561 94.391L49.0614 95.8909L49.0668 97.3909L67.7754 97.3237L67.77 95.8237ZM91.5246 100.683L90.0246 100.672L89.5877 159.685L91.0877 159.696L92.5876 159.707L93.0245 100.694L91.5246 100.683ZM86.1058 164.659L86.1004 163.159L77.365 163.19L77.3704 164.69L77.3758 166.19L86.1112 166.159L86.1058 164.659ZM72.3526 159.653L73.8525 159.664L74.2878 100.872L72.7878 100.861L71.2879 100.85L70.8526 159.642L72.3526 159.653ZM110.204 95.6712L110.199 94.1712L96.5011 94.2204L96.5064 95.7204L96.5118 97.2204L110.21 97.1712L110.204 95.6712ZM161.999 78.3855L161.994 76.8855L126.31 77.0138L126.316 78.5138L126.321 80.0137L162.005 79.8855L161.999 78.3855ZM122.076 80.893L120.798 80.1068L113.167 92.5057L114.445 93.2919L115.722 94.0781L123.353 81.6792L122.076 80.893ZM126.316 78.5138L126.31 77.0138C124.062 77.0218 121.977 78.1917 120.798 80.1068L122.076 80.893L123.353 81.6792C123.988 80.648 125.11 80.0181 126.321 80.0137L126.316 78.5138ZM110.204 95.6712L110.21 97.1712C112.459 97.1631 114.543 95.9932 115.722 94.0781L114.445 93.2919L113.167 92.5057C112.533 93.5369 111.41 94.1668 110.199 94.1712L110.204 95.6712ZM77.3704 164.69L77.365 163.19C75.417 163.197 73.8381 161.612 73.8525 159.664L72.3526 159.653L70.8526 159.642C70.8258 163.26 73.758 166.203 77.3758 166.19L77.3704 164.69ZM91.5246 100.683L93.0245 100.694C93.0387 98.7765 94.5939 97.2273 96.5118 97.2204L96.5064 95.7204L96.5011 94.2204C92.9391 94.2332 90.051 97.1104 90.0246 100.672L91.5246 100.683ZM67.77 95.8237L67.7754 97.3237C69.7234 97.3167 71.3023 98.9016 71.2879 100.85L72.7878 100.861L74.2878 100.872C74.3146 97.2541 71.3824 94.3107 67.7646 94.3237L67.77 95.8237ZM47.0543 93.8981L45.5543 93.9035C45.5612 95.8365 47.1339 97.3979 49.0668 97.3909L49.0614 95.8909L49.0561 94.391C48.7799 94.3919 48.5553 94.1689 48.5543 93.8928L47.0543 93.8981ZM91.0877 159.696L89.5877 159.685C89.5735 161.603 88.0183 163.152 86.1004 163.159L86.1058 164.659L86.1112 166.159C89.6731 166.146 92.5612 163.269 92.5876 159.707L91.0877 159.696ZM49 78.7916L48.9946 77.2916C47.0616 77.2986 45.5003 78.8712 45.5072 80.8042L47.0072 80.7988L48.5072 80.7934C48.5062 80.5173 48.7292 80.2926 49.0054 80.2916L49 78.7916Z" fill="black" fill-opacity="0.2"/>
<path d="M96.9997 78.6191C97.0156 83.0374 100.61 86.6062 105.028 86.5903C109.447 86.5744 113.015 82.9799 113 78.5616C112.984 74.1434 109.389 70.5745 104.971 70.5904C100.553 70.6063 96.9838 74.2009 96.9997 78.6191ZM91.5246 100.683L90.0246 100.672V100.672L91.5246 100.683ZM91.0877 159.696L89.5877 159.685V159.685L91.0877 159.696ZM72.3526 159.653L70.8526 159.642V159.642L72.3526 159.653ZM72.7878 100.861L74.2878 100.872L74.2878 100.872L72.7878 100.861ZM153.999 78.4143C154.015 82.8325 157.61 86.4013 162.028 86.3855C166.446 86.3696 170.015 82.775 169.999 78.3568C169.983 73.9385 166.389 70.3697 161.971 70.3856C157.552 70.4014 153.983 73.996 153.999 78.4143ZM122.076 80.893L123.353 81.6792L123.353 81.6792L122.076 80.893ZM114.445 93.2919L113.167 92.5057L113.167 92.5057L114.445 93.2919ZM49 78.7916L49.0054 80.2916L105.005 80.0904L105 78.5904L104.994 77.0904L48.9946 77.2916L49 78.7916ZM47.0543 93.8981L48.5543 93.8928L48.5072 80.7934L47.0072 80.7988L45.5072 80.8042L45.5543 93.9035L47.0543 93.8981ZM67.77 95.8237L67.7646 94.3237L49.0561 94.391L49.0614 95.8909L49.0668 97.3909L67.7754 97.3237L67.77 95.8237ZM91.5246 100.683L90.0246 100.672L89.5877 159.685L91.0877 159.696L92.5876 159.707L93.0245 100.694L91.5246 100.683ZM86.1058 164.659L86.1004 163.159L77.365 163.19L77.3704 164.69L77.3758 166.19L86.1112 166.159L86.1058 164.659ZM72.3526 159.653L73.8525 159.664L74.2878 100.872L72.7878 100.861L71.2879 100.85L70.8526 159.642L72.3526 159.653ZM110.204 95.6712L110.199 94.1712L96.5011 94.2204L96.5064 95.7204L96.5118 97.2204L110.21 97.1712L110.204 95.6712ZM161.999 78.3855L161.994 76.8855L126.31 77.0138L126.316 78.5138L126.321 80.0137L162.005 79.8855L161.999 78.3855ZM122.076 80.893L120.798 80.1068L113.167 92.5057L114.445 93.2919L115.722 94.0781L123.353 81.6792L122.076 80.893ZM126.316 78.5138L126.31 77.0138C124.062 77.0218 121.977 78.1917 120.798 80.1068L122.076 80.893L123.353 81.6792C123.988 80.648 125.11 80.0181 126.321 80.0137L126.316 78.5138ZM110.204 95.6712L110.21 97.1712C112.459 97.1631 114.543 95.9932 115.722 94.0781L114.445 93.2919L113.167 92.5057C112.533 93.5369 111.41 94.1668 110.199 94.1712L110.204 95.6712ZM77.3704 164.69L77.365 163.19C75.417 163.197 73.8381 161.612 73.8525 159.664L72.3526 159.653L70.8526 159.642C70.8258 163.26 73.758 166.203 77.3758 166.19L77.3704 164.69ZM91.5246 100.683L93.0245 100.694C93.0387 98.7765 94.5939 97.2273 96.5118 97.2204L96.5064 95.7204L96.5011 94.2204C92.9391 94.2332 90.051 97.1104 90.0246 100.672L91.5246 100.683ZM67.77 95.8237L67.7754 97.3237C69.7234 97.3167 71.3023 98.9016 71.2879 100.85L72.7878 100.861L74.2878 100.872C74.3146 97.2541 71.3824 94.3107 67.7646 94.3237L67.77 95.8237ZM47.0543 93.8981L45.5543 93.9035C45.5612 95.8365 47.1339 97.3979 49.0668 97.3909L49.0614 95.8909L49.0561 94.391C48.7799 94.3919 48.5553 94.1689 48.5543 93.8928L47.0543 93.8981ZM91.0877 159.696L89.5877 159.685C89.5735 161.603 88.0183 163.152 86.1004 163.159L86.1058 164.659L86.1112 166.159C89.6731 166.146 92.5612 163.269 92.5876 159.707L91.0877 159.696ZM49 78.7916L48.9946 77.2916C47.0616 77.2986 45.5003 78.8712 45.5072 80.8042L47.0072 80.7988L48.5072 80.7934C48.5062 80.5173 48.7292 80.2926 49.0054 80.2916L49 78.7916Z" fill="black" fill-opacity="0.2"/>
<path d="M96.9997 78.6191C97.0156 83.0374 100.61 86.6062 105.028 86.5903C109.447 86.5744 113.015 82.9799 113 78.5616C112.984 74.1434 109.389 70.5745 104.971 70.5904C100.553 70.6063 96.9838 74.2009 96.9997 78.6191ZM91.5246 100.683L90.0246 100.672V100.672L91.5246 100.683ZM91.0877 159.696L89.5877 159.685V159.685L91.0877 159.696ZM72.3526 159.653L70.8526 159.642V159.642L72.3526 159.653ZM72.7878 100.861L74.2878 100.872L74.2878 100.872L72.7878 100.861ZM153.999 78.4143C154.015 82.8325 157.61 86.4013 162.028 86.3855C166.446 86.3696 170.015 82.775 169.999 78.3568C169.983 73.9385 166.389 70.3697 161.971 70.3856C157.552 70.4014 153.983 73.996 153.999 78.4143ZM122.076 80.893L123.353 81.6792L123.353 81.6792L122.076 80.893ZM114.445 93.2919L113.167 92.5057L113.167 92.5057L114.445 93.2919ZM49 78.7916L49.0054 80.2916L105.005 80.0904L105 78.5904L104.994 77.0904L48.9946 77.2916L49 78.7916ZM47.0543 93.8981L48.5543 93.8928L48.5072 80.7934L47.0072 80.7988L45.5072 80.8042L45.5543 93.9035L47.0543 93.8981ZM67.77 95.8237L67.7646 94.3237L49.0561 94.391L49.0614 95.8909L49.0668 97.3909L67.7754 97.3237L67.77 95.8237ZM91.5246 100.683L90.0246 100.672L89.5877 159.685L91.0877 159.696L92.5876 159.707L93.0245 100.694L91.5246 100.683ZM86.1058 164.659L86.1004 163.159L77.365 163.19L77.3704 164.69L77.3758 166.19L86.1112 166.159L86.1058 164.659ZM72.3526 159.653L73.8525 159.664L74.2878 100.872L72.7878 100.861L71.2879 100.85L70.8526 159.642L72.3526 159.653ZM110.204 95.6712L110.199 94.1712L96.5011 94.2204L96.5064 95.7204L96.5118 97.2204L110.21 97.1712L110.204 95.6712ZM161.999 78.3855L161.994 76.8855L126.31 77.0138L126.316 78.5138L126.321 80.0137L162.005 79.8855L161.999 78.3855ZM122.076 80.893L120.798 80.1068L113.167 92.5057L114.445 93.2919L115.722 94.0781L123.353 81.6792L122.076 80.893ZM126.316 78.5138L126.31 77.0138C124.062 77.0218 121.977 78.1917 120.798 80.1068L122.076 80.893L123.353 81.6792C123.988 80.648 125.11 80.0181 126.321 80.0137L126.316 78.5138ZM110.204 95.6712L110.21 97.1712C112.459 97.1631 114.543 95.9932 115.722 94.0781L114.445 93.2919L113.167 92.5057C112.533 93.5369 111.41 94.1668 110.199 94.1712L110.204 95.6712ZM77.3704 164.69L77.365 163.19C75.417 163.197 73.8381 161.612 73.8525 159.664L72.3526 159.653L70.8526 159.642C70.8258 163.26 73.758 166.203 77.3758 166.19L77.3704 164.69ZM91.5246 100.683L93.0245 100.694C93.0387 98.7765 94.5939 97.2273 96.5118 97.2204L96.5064 95.7204L96.5011 94.2204C92.9391 94.2332 90.051 97.1104 90.0246 100.672L91.5246 100.683ZM67.77 95.8237L67.7754 97.3237C69.7234 97.3167 71.3023 98.9016 71.2879 100.85L72.7878 100.861L74.2878 100.872C74.3146 97.2541 71.3824 94.3107 67.7646 94.3237L67.77 95.8237ZM47.0543 93.8981L45.5543 93.9035C45.5612 95.8365 47.1339 97.3979 49.0668 97.3909L49.0614 95.8909L49.0561 94.391C48.7799 94.3919 48.5553 94.1689 48.5543 93.8928L47.0543 93.8981ZM91.0877 159.696L89.5877 159.685C89.5735 161.603 88.0183 163.152 86.1004 163.159L86.1058 164.659L86.1112 166.159C89.6731 166.146 92.5612 163.269 92.5876 159.707L91.0877 159.696ZM49 78.7916L48.9946 77.2916C47.0616 77.2986 45.5003 78.8712 45.5072 80.8042L47.0072 80.7988L48.5072 80.7934C48.5062 80.5173 48.7292 80.2926 49.0054 80.2916L49 78.7916Z" fill="black" fill-opacity="0.2"/>
<path d="M96.9997 78.6191C97.0156 83.0374 100.61 86.6062 105.028 86.5903C109.447 86.5744 113.015 82.9799 113 78.5616C112.984 74.1434 109.389 70.5745 104.971 70.5904C100.553 70.6063 96.9838 74.2009 96.9997 78.6191ZM91.5246 100.683L90.0246 100.672V100.672L91.5246 100.683ZM91.0877 159.696L89.5877 159.685V159.685L91.0877 159.696ZM72.3526 159.653L70.8526 159.642V159.642L72.3526 159.653ZM72.7878 100.861L74.2878 100.872L74.2878 100.872L72.7878 100.861ZM153.999 78.4143C154.015 82.8325 157.61 86.4013 162.028 86.3855C166.446 86.3696 170.015 82.775 169.999 78.3568C169.983 73.9385 166.389 70.3697 161.971 70.3856C157.552 70.4014 153.983 73.996 153.999 78.4143ZM122.076 80.893L123.353 81.6792L123.353 81.6792L122.076 80.893ZM114.445 93.2919L113.167 92.5057L113.167 92.5057L114.445 93.2919ZM49 78.7916L49.0054 80.2916L105.005 80.0904L105 78.5904L104.994 77.0904L48.9946 77.2916L49 78.7916ZM47.0543 93.8981L48.5543 93.8928L48.5072 80.7934L47.0072 80.7988L45.5072 80.8042L45.5543 93.9035L47.0543 93.8981ZM67.77 95.8237L67.7646 94.3237L49.0561 94.391L49.0614 95.8909L49.0668 97.3909L67.7754 97.3237L67.77 95.8237ZM91.5246 100.683L90.0246 100.672L89.5877 159.685L91.0877 159.696L92.5876 159.707L93.0245 100.694L91.5246 100.683ZM86.1058 164.659L86.1004 163.159L77.365 163.19L77.3704 164.69L77.3758 166.19L86.1112 166.159L86.1058 164.659ZM72.3526 159.653L73.8525 159.664L74.2878 100.872L72.7878 100.861L71.2879 100.85L70.8526 159.642L72.3526 159.653ZM110.204 95.6712L110.199 94.1712L96.5011 94.2204L96.5064 95.7204L96.5118 97.2204L110.21 97.1712L110.204 95.6712ZM161.999 78.3855L161.994 76.8855L126.31 77.0138L126.316 78.5138L126.321 80.0137L162.005 79.8855L161.999 78.3855ZM122.076 80.893L120.798 80.1068L113.167 92.5057L114.445 93.2919L115.722 94.0781L123.353 81.6792L122.076 80.893ZM126.316 78.5138L126.31 77.0138C124.062 77.0218 121.977 78.1917 120.798 80.1068L122.076 80.893L123.353 81.6792C123.988 80.648 125.11 80.0181 126.321 80.0137L126.316 78.5138ZM110.204 95.6712L110.21 97.1712C112.459 97.1631 114.543 95.9932 115.722 94.0781L114.445 93.2919L113.167 92.5057C112.533 93.5369 111.41 94.1668 110.199 94.1712L110.204 95.6712ZM77.3704 164.69L77.365 163.19C75.417 163.197 73.8381 161.612 73.8525 159.664L72.3526 159.653L70.8526 159.642C70.8258 163.26 73.758 166.203 77.3758 166.19L77.3704 164.69ZM91.5246 100.683L93.0245 100.694C93.0387 98.7765 94.5939 97.2273 96.5118 97.2204L96.5064 95.7204L96.5011 94.2204C92.9391 94.2332 90.051 97.1104 90.0246 100.672L91.5246 100.683ZM67.77 95.8237L67.7754 97.3237C69.7234 97.3167 71.3023 98.9016 71.2879 100.85L72.7878 100.861L74.2878 100.872C74.3146 97.2541 71.3824 94.3107 67.7646 94.3237L67.77 95.8237ZM47.0543 93.8981L45.5543 93.9035C45.5612 95.8365 47.1339 97.3979 49.0668 97.3909L49.0614 95.8909L49.0561 94.391C48.7799 94.3919 48.5553 94.1689 48.5543 93.8928L47.0543 93.8981ZM91.0877 159.696L89.5877 159.685C89.5735 161.603 88.0183 163.152 86.1004 163.159L86.1058 164.659L86.1112 166.159C89.6731 166.146 92.5612 163.269 92.5876 159.707L91.0877 159.696ZM49 78.7916L48.9946 77.2916C47.0616 77.2986 45.5003 78.8712 45.5072 80.8042L47.0072 80.7988L48.5072 80.7934C48.5062 80.5173 48.7292 80.2926 49.0054 80.2916L49 78.7916Z" fill="black" fill-opacity="0.2"/>
<g filter="url(#filter0_d_254_1329)">
<path d="M98.0552 94.1155C97.2267 94.1185 96.5576 94.7924 96.5606 95.6209C96.5635 96.4493 97.2375 97.1184 98.0659 97.1155L98.0605 95.6155L98.0552 94.1155ZM173.56 95.3441C173.576 99.7624 177.171 103.331 181.589 103.315C186.007 103.299 189.576 99.7049 189.56 95.2866C189.544 90.8684 185.95 87.2995 181.531 87.3154C177.113 87.3313 173.544 90.9259 173.56 95.3441ZM151.011 100.358L152.511 100.373L152.511 100.373L151.011 100.358ZM150.426 159.495L148.926 159.48L148.926 159.48L150.426 159.495ZM131.583 159.428L133.083 159.443V159.443L131.583 159.428ZM132.165 100.56L130.665 100.546V100.546L132.165 100.56ZM127.148 95.5109L127.142 94.0109L98.0552 94.1155L98.0605 95.6155L98.0659 97.1155L127.153 97.0109L127.148 95.5109ZM181.56 95.3154L181.555 93.8154L155.988 93.9073L155.993 95.4073L155.999 96.9073L181.565 96.8154L181.56 95.3154ZM151.011 100.358L149.511 100.343L148.926 159.48L150.426 159.495L151.926 159.51L152.511 100.373L151.011 100.358ZM145.444 164.446L145.439 162.946L136.595 162.977L136.6 164.477L136.606 165.977L145.45 165.946L145.444 164.446ZM131.583 159.428L133.083 159.443L133.665 100.575L132.165 100.56L130.665 100.546L130.083 159.413L131.583 159.428ZM136.6 164.477L136.595 162.977C134.644 162.984 133.063 161.394 133.083 159.443L131.583 159.428L130.083 159.413C130.047 163.037 132.982 165.99 136.606 165.977L136.6 164.477ZM150.426 159.495L148.926 159.48C148.907 161.395 147.353 162.939 145.439 162.946L145.444 164.446L145.45 165.946C149.005 165.933 151.891 163.065 151.926 159.51L150.426 159.495ZM155.993 95.4073L155.988 93.9073C152.432 93.92 149.547 96.7874 149.511 100.343L151.011 100.358L152.511 100.373C152.53 98.4581 154.084 96.9141 155.999 96.9073L155.993 95.4073ZM127.148 95.5109L127.153 97.0109C129.104 97.0039 130.685 98.5942 130.665 100.546L132.165 100.56L133.665 100.575C133.701 96.9513 130.766 93.9979 127.142 94.0109L127.148 95.5109Z" fill="#2D9CDB"/>
<path d="M98.0552 94.1155C97.2267 94.1185 96.5576 94.7924 96.5606 95.6209C96.5635 96.4493 97.2375 97.1184 98.0659 97.1155L98.0605 95.6155L98.0552 94.1155ZM173.56 95.3441C173.576 99.7624 177.171 103.331 181.589 103.315C186.007 103.299 189.576 99.7049 189.56 95.2866C189.544 90.8684 185.95 87.2995 181.531 87.3154C177.113 87.3313 173.544 90.9259 173.56 95.3441ZM151.011 100.358L152.511 100.373L152.511 100.373L151.011 100.358ZM150.426 159.495L148.926 159.48L148.926 159.48L150.426 159.495ZM131.583 159.428L133.083 159.443V159.443L131.583 159.428ZM132.165 100.56L130.665 100.546V100.546L132.165 100.56ZM127.148 95.5109L127.142 94.0109L98.0552 94.1155L98.0605 95.6155L98.0659 97.1155L127.153 97.0109L127.148 95.5109ZM181.56 95.3154L181.555 93.8154L155.988 93.9073L155.993 95.4073L155.999 96.9073L181.565 96.8154L181.56 95.3154ZM151.011 100.358L149.511 100.343L148.926 159.48L150.426 159.495L151.926 159.51L152.511 100.373L151.011 100.358ZM145.444 164.446L145.439 162.946L136.595 162.977L136.6 164.477L136.606 165.977L145.45 165.946L145.444 164.446ZM131.583 159.428L133.083 159.443L133.665 100.575L132.165 100.56L130.665 100.546L130.083 159.413L131.583 159.428ZM136.6 164.477L136.595 162.977C134.644 162.984 133.063 161.394 133.083 159.443L131.583 159.428L130.083 159.413C130.047 163.037 132.982 165.99 136.606 165.977L136.6 164.477ZM150.426 159.495L148.926 159.48C148.907 161.395 147.353 162.939 145.439 162.946L145.444 164.446L145.45 165.946C149.005 165.933 151.891 163.065 151.926 159.51L150.426 159.495ZM155.993 95.4073L155.988 93.9073C152.432 93.92 149.547 96.7874 149.511 100.343L151.011 100.358L152.511 100.373C152.53 98.4581 154.084 96.9141 155.999 96.9073L155.993 95.4073ZM127.148 95.5109L127.153 97.0109C129.104 97.0039 130.685 98.5942 130.665 100.546L132.165 100.56L133.665 100.575C133.701 96.9513 130.766 93.9979 127.142 94.0109L127.148 95.5109Z" fill="black" fill-opacity="0.2"/>
<path d="M98.0552 94.1155C97.2267 94.1185 96.5576 94.7924 96.5606 95.6209C96.5635 96.4493 97.2375 97.1184 98.0659 97.1155L98.0605 95.6155L98.0552 94.1155ZM173.56 95.3441C173.576 99.7624 177.171 103.331 181.589 103.315C186.007 103.299 189.576 99.7049 189.56 95.2866C189.544 90.8684 185.95 87.2995 181.531 87.3154C177.113 87.3313 173.544 90.9259 173.56 95.3441ZM151.011 100.358L152.511 100.373L152.511 100.373L151.011 100.358ZM150.426 159.495L148.926 159.48L148.926 159.48L150.426 159.495ZM131.583 159.428L133.083 159.443V159.443L131.583 159.428ZM132.165 100.56L130.665 100.546V100.546L132.165 100.56ZM127.148 95.5109L127.142 94.0109L98.0552 94.1155L98.0605 95.6155L98.0659 97.1155L127.153 97.0109L127.148 95.5109ZM181.56 95.3154L181.555 93.8154L155.988 93.9073L155.993 95.4073L155.999 96.9073L181.565 96.8154L181.56 95.3154ZM151.011 100.358L149.511 100.343L148.926 159.48L150.426 159.495L151.926 159.51L152.511 100.373L151.011 100.358ZM145.444 164.446L145.439 162.946L136.595 162.977L136.6 164.477L136.606 165.977L145.45 165.946L145.444 164.446ZM131.583 159.428L133.083 159.443L133.665 100.575L132.165 100.56L130.665 100.546L130.083 159.413L131.583 159.428ZM136.6 164.477L136.595 162.977C134.644 162.984 133.063 161.394 133.083 159.443L131.583 159.428L130.083 159.413C130.047 163.037 132.982 165.99 136.606 165.977L136.6 164.477ZM150.426 159.495L148.926 159.48C148.907 161.395 147.353 162.939 145.439 162.946L145.444 164.446L145.45 165.946C149.005 165.933 151.891 163.065 151.926 159.51L150.426 159.495ZM155.993 95.4073L155.988 93.9073C152.432 93.92 149.547 96.7874 149.511 100.343L151.011 100.358L152.511 100.373C152.53 98.4581 154.084 96.9141 155.999 96.9073L155.993 95.4073ZM127.148 95.5109L127.153 97.0109C129.104 97.0039 130.685 98.5942 130.665 100.546L132.165 100.56L133.665 100.575C133.701 96.9513 130.766 93.9979 127.142 94.0109L127.148 95.5109Z" fill="black" fill-opacity="0.2"/>
<path d="M98.0552 94.1155C97.2267 94.1185 96.5576 94.7924 96.5606 95.6209C96.5635 96.4493 97.2375 97.1184 98.0659 97.1155L98.0605 95.6155L98.0552 94.1155ZM173.56 95.3441C173.576 99.7624 177.171 103.331 181.589 103.315C186.007 103.299 189.576 99.7049 189.56 95.2866C189.544 90.8684 185.95 87.2995 181.531 87.3154C177.113 87.3313 173.544 90.9259 173.56 95.3441ZM151.011 100.358L152.511 100.373L152.511 100.373L151.011 100.358ZM150.426 159.495L148.926 159.48L148.926 159.48L150.426 159.495ZM131.583 159.428L133.083 159.443V159.443L131.583 159.428ZM132.165 100.56L130.665 100.546V100.546L132.165 100.56ZM127.148 95.5109L127.142 94.0109L98.0552 94.1155L98.0605 95.6155L98.0659 97.1155L127.153 97.0109L127.148 95.5109ZM181.56 95.3154L181.555 93.8154L155.988 93.9073L155.993 95.4073L155.999 96.9073L181.565 96.8154L181.56 95.3154ZM151.011 100.358L149.511 100.343L148.926 159.48L150.426 159.495L151.926 159.51L152.511 100.373L151.011 100.358ZM145.444 164.446L145.439 162.946L136.595 162.977L136.6 164.477L136.606 165.977L145.45 165.946L145.444 164.446ZM131.583 159.428L133.083 159.443L133.665 100.575L132.165 100.56L130.665 100.546L130.083 159.413L131.583 159.428ZM136.6 164.477L136.595 162.977C134.644 162.984 133.063 161.394 133.083 159.443L131.583 159.428L130.083 159.413C130.047 163.037 132.982 165.99 136.606 165.977L136.6 164.477ZM150.426 159.495L148.926 159.48C148.907 161.395 147.353 162.939 145.439 162.946L145.444 164.446L145.45 165.946C149.005 165.933 151.891 163.065 151.926 159.51L150.426 159.495ZM155.993 95.4073L155.988 93.9073C152.432 93.92 149.547 96.7874 149.511 100.343L151.011 100.358L152.511 100.373C152.53 98.4581 154.084 96.9141 155.999 96.9073L155.993 95.4073ZM127.148 95.5109L127.153 97.0109C129.104 97.0039 130.685 98.5942 130.665 100.546L132.165 100.56L133.665 100.575C133.701 96.9513 130.766 93.9979 127.142 94.0109L127.148 95.5109Z" fill="black" fill-opacity="0.2"/>
<path d="M98.0552 94.1155C97.2267 94.1185 96.5576 94.7924 96.5606 95.6209C96.5635 96.4493 97.2375 97.1184 98.0659 97.1155L98.0605 95.6155L98.0552 94.1155ZM173.56 95.3441C173.576 99.7624 177.171 103.331 181.589 103.315C186.007 103.299 189.576 99.7049 189.56 95.2866C189.544 90.8684 185.95 87.2995 181.531 87.3154C177.113 87.3313 173.544 90.9259 173.56 95.3441ZM151.011 100.358L152.511 100.373L152.511 100.373L151.011 100.358ZM150.426 159.495L148.926 159.48L148.926 159.48L150.426 159.495ZM131.583 159.428L133.083 159.443V159.443L131.583 159.428ZM132.165 100.56L130.665 100.546V100.546L132.165 100.56ZM127.148 95.5109L127.142 94.0109L98.0552 94.1155L98.0605 95.6155L98.0659 97.1155L127.153 97.0109L127.148 95.5109ZM181.56 95.3154L181.555 93.8154L155.988 93.9073L155.993 95.4073L155.999 96.9073L181.565 96.8154L181.56 95.3154ZM151.011 100.358L149.511 100.343L148.926 159.48L150.426 159.495L151.926 159.51L152.511 100.373L151.011 100.358ZM145.444 164.446L145.439 162.946L136.595 162.977L136.6 164.477L136.606 165.977L145.45 165.946L145.444 164.446ZM131.583 159.428L133.083 159.443L133.665 100.575L132.165 100.56L130.665 100.546L130.083 159.413L131.583 159.428ZM136.6 164.477L136.595 162.977C134.644 162.984 133.063 161.394 133.083 159.443L131.583 159.428L130.083 159.413C130.047 163.037 132.982 165.99 136.606 165.977L136.6 164.477ZM150.426 159.495L148.926 159.48C148.907 161.395 147.353 162.939 145.439 162.946L145.444 164.446L145.45 165.946C149.005 165.933 151.891 163.065 151.926 159.51L150.426 159.495ZM155.993 95.4073L155.988 93.9073C152.432 93.92 149.547 96.7874 149.511 100.343L151.011 100.358L152.511 100.373C152.53 98.4581 154.084 96.9141 155.999 96.9073L155.993 95.4073ZM127.148 95.5109L127.153 97.0109C129.104 97.0039 130.685 98.5942 130.665 100.546L132.165 100.56L133.665 100.575C133.701 96.9513 130.766 93.9979 127.142 94.0109L127.148 95.5109Z" fill="black" fill-opacity="0.2"/>
</g>
<path d="M215.735 145.664C210.989 163.626 201.259 179.879 187.67 192.548C174.081 205.217 157.186 213.784 138.936 217.26C120.686 220.737 101.824 218.982 84.5293 212.196C67.2342 205.411 52.2106 193.873 41.1929 178.914C30.1753 163.955 23.6128 146.186 22.2632 127.656C20.9135 109.127 24.8317 90.5936 33.5654 74.196C42.299 57.7984 55.4921 44.205 71.6214 34.9853C87.7507 25.7656 106.159 21.2954 124.72 22.0908" stroke="#1F7A63" stroke-width="2"/>
<defs>
<filter id="filter0_d_254_1329" x="92.5605" y="87.3154" width="101" height="86.6621" filterUnits="userSpaceOnUse" color-interpolation-filters="sRGB">
<feFlood flood-opacity="0" result="BackgroundImageFix"/>
<feColorMatrix in="SourceAlpha" type="matrix" values="0 0 0 0 0 0 0 0 0 0 0 0 0 0 0 0 0 0 127 0" result="hardAlpha"/>
<feOffset dy="4"/>
<feGaussianBlur stdDeviation="2"/>
<feComposite in2="hardAlpha" operator="out"/>
<feColorMatrix type="matrix" values="0 0 0 0 0 0 0 0 0 0 0 0 0 0 0 0 0 0 0.25 0"/>
<feBlend mode="normal" in2="BackgroundImageFix" result="effect1_dropShadow_254_1329"/>
<feBlend mode="normal" in="SourceGraphic" in2="effect1_dropShadow_254_1329" result="shape"/>
</filter>
</defs>
</svg>
