<svg width="240" height="240" viewBox="0 0 240 240" fill="none" xmlns="http://www.w3.org/2000/svg">
<rect width="240" height="240" rx="120" fill="#F0F6FF"/>
<path d="M96.9997 78.619C97.0156 83.0372 100.61 86.6061 105.028 86.5902C109.447 86.5743 113.015 82.9797 113 78.5615C112.984 74.1432 109.389 70.5744 104.971 70.5903C100.553 70.6062 96.9838 74.2007 96.9997 78.619ZM91.5246 100.683L90.0246 100.672V100.672L91.5246 100.683ZM91.0877 159.696L89.5877 159.685V159.685L91.0877 159.696ZM72.3526 159.653L70.8526 159.642V159.642L72.3526 159.653ZM72.7878 100.861L74.2878 100.872L74.2878 100.872L72.7878 100.861ZM153.999 78.4141C154.015 82.8324 157.61 86.4012 162.028 86.3853C166.446 86.3694 170.015 82.7749 169.999 78.3566C169.983 73.9384 166.389 70.3696 161.971 70.3854C157.552 70.4013 153.983 73.9959 153.999 78.4141ZM122.076 80.8929L123.353 81.6791L123.353 81.6791L122.076 80.8929ZM114.445 93.2918L113.167 92.5056L113.167 92.5056L114.445 93.2918ZM49 78.7915L49.0054 80.2915L105.005 80.0902L105 78.5902L104.994 77.0903L48.9946 77.2915L49 78.7915ZM47.0543 93.898L48.5543 93.8926L48.5072 80.7933L47.0072 80.7987L45.5072 80.8041L45.5543 93.9034L47.0543 93.898ZM67.77 95.8236L67.7646 94.3236L49.0561 94.3908L49.0614 95.8908L49.0668 97.3908L67.7754 97.3236L67.77 95.8236ZM91.5246 100.683L90.0246 100.672L89.5877 159.685L91.0877 159.696L92.5876 159.707L93.0245 100.694L91.5246 100.683ZM86.1058 164.659L86.1004 163.159L77.365 163.19L77.3704 164.69L77.3758 166.19L86.1112 166.159L86.1058 164.659ZM72.3526 159.653L73.8525 159.664L74.2878 100.872L72.7878 100.861L71.2879 100.849L70.8526 159.642L72.3526 159.653ZM110.204 95.6711L110.199 94.1711L96.5011 94.2203L96.5064 95.7203L96.5118 97.2203L110.21 97.1711L110.204 95.6711ZM161.999 78.3854L161.994 76.8854L126.31 77.0136L126.316 78.5136L126.321 80.0136L162.005 79.8854L161.999 78.3854ZM122.076 80.8929L120.798 80.1067L113.167 92.5056L114.445 93.2918L115.722 94.078L123.353 81.6791L122.076 80.8929ZM126.316 78.5136L126.31 77.0136C124.062 77.0217 121.977 78.1916 120.798 80.1067L122.076 80.8929L123.353 81.6791C123.988 80.6479 125.11 80.018 126.321 80.0136L126.316 78.5136ZM110.204 95.6711L110.21 97.1711C112.459 97.163 114.543 95.9931 115.722 94.078L114.445 93.2918L113.167 92.5056C112.533 93.5368 111.41 94.1667 110.199 94.1711L110.204 95.6711ZM77.3704 164.69L77.365 163.19C75.417 163.197 73.8381 161.612 73.8525 159.664L72.3526 159.653L70.8526 159.642C70.8258 163.26 73.758 166.203 77.3758 166.19L77.3704 164.69ZM91.5246 100.683L93.0245 100.694C93.0387 98.7764 94.5939 97.2272 96.5118 97.2203L96.5064 95.7203L96.5011 94.2203C92.9391 94.2331 90.051 97.1103 90.0246 100.672L91.5246 100.683ZM67.77 95.8236L67.7754 97.3236C69.7234 97.3166 71.3023 98.9015 71.2879 100.849L72.7878 100.861L74.2878 100.872C74.3146 97.254 71.3824 94.3106 67.7646 94.3236L67.77 95.8236ZM47.0543 93.898L45.5543 93.9034C45.5612 95.8364 47.1339 97.3978 49.0668 97.3908L49.0614 95.8908L49.0561 94.3908C48.7799 94.3918 48.5553 94.1688 48.5543 93.8926L47.0543 93.898ZM91.0877 159.696L89.5877 159.685C89.5735 161.603 88.0183 163.152 86.1004 163.159L86.1058 164.659L86.1112 166.159C89.6731 166.146 92.5612 163.269 92.5876 159.707L91.0877 159.696ZM49 78.7915L48.9946 77.2915C47.0616 77.2985 45.5003 78.8711 45.5072 80.8041L47.0072 80.7987L48.5072 80.7933C48.5062 80.5172 48.7292 80.2925 49.0054 80.2915L49 78.7915Z" fill="#2D9CDB"/>
<path d="M96.9997 78.619C97.0156 83.0372 100.61 86.6061 105.028 86.5902C109.447 86.5743 113.015 82.9797 113 78.5615C112.984 74.1432 109.389 70.5744 104.971 70.5903C100.553 70.6062 96.9838 74.2007 96.9997 78.619ZM91.5246 100.683L90.0246 100.672V100.672L91.5246 100.683ZM91.0877 159.696L89.5877 159.685V159.685L91.0877 159.696ZM72.3526 159.653L70.8526 159.642V159.642L72.3526 159.653ZM72.7878 100.861L74.2878 100.872L74.2878 100.872L72.7878 100.861ZM153.999 78.4141C154.015 82.8324 157.61 86.4012 162.028 86.3853C166.446 86.3694 170.015 82.7749 169.999 78.3566C169.983 73.9384 166.389 70.3696 161.971 70.3854C157.552 70.4013 153.983 73.9959 153.999 78.4141ZM122.076 80.8929L123.353 81.6791L123.353 81.6791L122.076 80.8929ZM114.445 93.2918L113.167 92.5056L113.167 92.5056L114.445 93.2918ZM49 78.7915L49.0054 80.2915L105.005 80.0902L105 78.5902L104.994 77.0903L48.9946 77.2915L49 78.7915ZM47.0543 93.898L48.5543 93.8926L48.5072 80.7933L47.0072 80.7987L45.5072 80.8041L45.5543 93.9034L47.0543 93.898ZM67.77 95.8236L67.7646 94.3236L49.0561 94.3908L49.0614 95.8908L49.0668 97.3908L67.7754 97.3236L67.77 95.8236ZM91.5246 100.683L90.0246 100.672L89.5877 159.685L91.0877 159.696L92.5876 159.707L93.0245 100.694L91.5246 100.683ZM86.1058 164.659L86.1004 163.159L77.365 163.19L77.3704 164.69L77.3758 166.19L86.1112 166.159L86.1058 164.659ZM72.3526 159.653L73.8525 159.664L74.2878 100.872L72.7878 100.861L71.2879 100.849L70.8526 159.642L72.3526 159.653ZM110.204 95.6711L110.199 94.1711L96.5011 94.2203L96.5064 95.7203L96.5118 97.2203L110.21 97.1711L110.204 95.6711ZM161.999 78.3854L161.994 76.8854L126.31 77.0136L126.316 78.5136L126.321 80.0136L162.005 79.8854L161.999 78.3854ZM122.076 80.8929L120.798 80.1067L113.167 92.5056L114.445 93.2918L115.722 94.078L123.353 81.6791L122.076 80.8929ZM126.316 78.5136L126.31 77.0136C124.062 77.0217 121.977 78.1916 120.798 80.1067L122.076 80.8929L123.353 81.6791C123.988 80.6479 125.11 80.018 126.321 80.0136L126.316 78.5136ZM110.204 95.6711L110.21 97.1711C112.459 97.163 114.543 95.9931 115.722 94.078L114.445 93.2918L113.167 92.5056C112.533 93.5368 111.41 94.1667 110.199 94.1711L110.204 95.6711ZM77.3704 164.69L77.365 163.19C75.417 163.197 73.8381 161.612 73.8525 159.664L72.3526 159.653L70.8526 159.642C70.8258 163.26 73.758 166.203 77.3758 166.19L77.3704 164.69ZM91.5246 100.683L93.0245 100.694C93.0387 98.7764 94.5939 97.2272 96.5118 97.2203L96.5064 95.7203L96.5011 94.2203C92.9391 94.2331 90.051 97.1103 90.0246 100.672L91.5246 100.683ZM67.77 95.8236L67.7754 97.3236C69.7234 97.3166 71.3023 98.9015 71.2879 100.849L72.7878 100.861L74.2878 100.872C74.3146 97.254 71.3824 94.3106 67.7646 94.3236L67.77 95.8236ZM47.0543 93.898L45.5543 93.9034C45.5612 95.8364 47.1339 97.3978 49.0668 97.3908L49.0614 95.8908L49.0561 94.3908C48.7799 94.3918 48.5553 94.1688 48.5543 93.8926L47.0543 93.898ZM91.0877 159.696L89.5877 159.685C89.5735 161.603 88.0183 163.152 86.1004 163.159L86.1058 164.659L86.1112 166.159C89.6731 166.146 92.5612 163.269 92.5876 159.707L91.0877 159.696ZM49 78.7915L48.9946 77.2915C47.0616 77.2985 45.5003 78.8711 45.5072 80.8041L47.0072 80.7987L48.5072 80.7933C48.5062 80.5172 48.7292 80.2925 49.0054 80.2915L49 78.7915Z" fill="black" fill-opacity="0.2"/>
<path d="M96.9997 78.619C97.0156 83.0372 100.61 86.6061 105.028 86.5902C109.447 86.5743 113.015 82.9797 113 78.5615C112.984 74.1432 109.389 70.5744 104.971 70.5903C100.553 70.6062 96.9838 74.2007 96.9997 78.619ZM91.5246 100.683L90.0246 100.672V100.672L91.5246 100.683ZM91.0877 159.696L89.5877 159.685V159.685L91.0877 159.696ZM72.3526 159.653L70.8526 159.642V159.642L72.3526 159.653ZM72.7878 100.861L74.2878 100.872L74.2878 100.872L72.7878 100.861ZM153.999 78.4141C154.015 82.8324 157.61 86.4012 162.028 86.3853C166.446 86.3694 170.015 82.7749 169.999 78.3566C169.983 73.9384 166.389 70.3696 161.971 70.3854C157.552 70.4013 153.983 73.9959 153.999 78.4141ZM122.076 80.8929L123.353 81.6791L123.353 81.6791L122.076 80.8929ZM114.445 93.2918L113.167 92.5056L113.167 92.5056L114.445 93.2918ZM49 78.7915L49.0054 80.2915L105.005 80.0902L105 78.5902L104.994 77.0903L48.9946 77.2915L49 78.7915ZM47.0543 93.898L48.5543 93.8926L48.5072 80.7933L47.0072 80.7987L45.5072 80.8041L45.5543 93.9034L47.0543 93.898ZM67.77 95.8236L67.7646 94.3236L49.0561 94.3908L49.0614 95.8908L49.0668 97.3908L67.7754 97.3236L67.77 95.8236ZM91.5246 100.683L90.0246 100.672L89.5877 159.685L91.0877 159.696L92.5876 159.707L93.0245 100.694L91.5246 100.683ZM86.1058 164.659L86.1004 163.159L77.365 163.19L77.3704 164.69L77.3758 166.19L86.1112 166.159L86.1058 164.659ZM72.3526 159.653L73.8525 159.664L74.2878 100.872L72.7878 100.861L71.2879 100.849L70.8526 159.642L72.3526 159.653ZM110.204 95.6711L110.199 94.1711L96.5011 94.2203L96.5064 95.7203L96.5118 97.2203L110.21 97.1711L110.204 95.6711ZM161.999 78.3854L161.994 76.8854L126.31 77.0136L126.316 78.5136L126.321 80.0136L162.005 79.8854L161.999 78.3854ZM122.076 80.8929L120.798 80.1067L113.167 92.5056L114.445 93.2918L115.722 94.078L123.353 81.6791L122.076 80.8929ZM126.316 78.5136L126.31 77.0136C124.062 77.0217 121.977 78.1916 120.798 80.1067L122.076 80.8929L123.353 81.6791C123.988 80.6479 125.11 80.018 126.321 80.0136L126.316 78.5136ZM110.204 95.6711L110.21 97.1711C112.459 97.163 114.543 95.9931 115.722 94.078L114.445 93.2918L113.167 92.5056C112.533 93.5368 111.41 94.1667 110.199 94.1711L110.204 95.6711ZM77.3704 164.69L77.365 163.19C75.417 163.197 73.8381 161.612 73.8525 159.664L72.3526 159.653L70.8526 159.642C70.8258 163.26 73.758 166.203 77.3758 166.19L77.3704 164.69ZM91.5246 100.683L93.0245 100.694C93.0387 98.7764 94.5939 97.2272 96.5118 97.2203L96.5064 95.7203L96.5011 94.2203C92.9391 94.2331 90.051 97.1103 90.0246 100.672L91.5246 100.683ZM67.77 95.8236L67.7754 97.3236C69.7234 97.3166 71.3023 98.9015 71.2879 100.849L72.7878 100.861L74.2878 100.872C74.3146 97.254 71.3824 94.3106 67.7646 94.3236L67.77 95.8236ZM47.0543 93.898L45.5543 93.9034C45.5612 95.8364 47.1339 97.3978 49.0668 97.3908L49.0614 95.8908L49.0561 94.3908C48.7799 94.3918 48.5553 94.1688 48.5543 93.8926L47.0543 93.898ZM91.0877 159.696L89.5877 159.685C89.5735 161.603 88.0183 163.152 86.1004 163.159L86.1058 164.659L86.1112 166.159C89.6731 166.146 92.5612 163.269 92.5876 159.707L91.0877 159.696ZM49 78.7915L48.9946 77.2915C47.0616 77.2985 45.5003 78.8711 45.5072 80.8041L47.0072 80.7987L48.5072 80.7933C48.5062 80.5172 48.7292 80.2925 49.0054 80.2915L49 78.7915Z" fill="black" fill-opacity="0.2"/>
<path d="M96.9997 78.619C97.0156 83.0372 100.61 86.6061 105.028 86.5902C109.447 86.5743 113.015 82.9797 113 78.5615C112.984 74.1432 109.389 70.5744 104.971 70.5903C100.553 70.6062 96.9838 74.2007 96.9997 78.619ZM91.5246 100.683L90.0246 100.672V100.672L91.5246 100.683ZM91.0877 159.696L89.5877 159.685V159.685L91.0877 159.696ZM72.3526 159.653L70.8526 159.642V159.642L72.3526 159.653ZM72.7878 100.861L74.2878 100.872L74.2878 100.872L72.7878 100.861ZM153.999 78.4141C154.015 82.8324 157.61 86.4012 162.028 86.3853C166.446 86.3694 170.015 82.7749 169.999 78.3566C169.983 73.9384 166.389 70.3696 161.971 70.3854C157.552 70.4013 153.983 73.9959 153.999 78.4141ZM122.076 80.8929L123.353 81.6791L123.353 81.6791L122.076 80.8929ZM114.445 93.2918L113.167 92.5056L113.167 92.5056L114.445 93.2918ZM49 78.7915L49.0054 80.2915L105.005 80.0902L105 78.5902L104.994 77.0903L48.9946 77.2915L49 78.7915ZM47.0543 93.898L48.5543 93.8926L48.5072 80.7933L47.0072 80.7987L45.5072 80.8041L45.5543 93.9034L47.0543 93.898ZM67.77 95.8236L67.7646 94.3236L49.0561 94.3908L49.0614 95.8908L49.0668 97.3908L67.7754 97.3236L67.77 95.8236ZM91.5246 100.683L90.0246 100.672L89.5877 159.685L91.0877 159.696L92.5876 159.707L93.0245 100.694L91.5246 100.683ZM86.1058 164.659L86.1004 163.159L77.365 163.19L77.3704 164.69L77.3758 166.19L86.1112 166.159L86.1058 164.659ZM72.3526 159.653L73.8525 159.664L74.2878 100.872L72.7878 100.861L71.2879 100.849L70.8526 159.642L72.3526 159.653ZM110.204 95.6711L110.199 94.1711L96.5011 94.2203L96.5064 95.7203L96.5118 97.2203L110.21 97.1711L110.204 95.6711ZM161.999 78.3854L161.994 76.8854L126.31 77.0136L126.316 78.5136L126.321 80.0136L162.005 79.8854L161.999 78.3854ZM122.076 80.8929L120.798 80.1067L113.167 92.5056L114.445 93.2918L115.722 94.078L123.353 81.6791L122.076 80.8929ZM126.316 78.5136L126.31 77.0136C124.062 77.0217 121.977 78.1916 120.798 80.1067L122.076 80.8929L123.353 81.6791C123.988 80.6479 125.11 80.018 126.321 80.0136L126.316 78.5136ZM110.204 95.6711L110.21 97.1711C112.459 97.163 114.543 95.9931 115.722 94.078L114.445 93.2918L113.167 92.5056C112.533 93.5368 111.41 94.1667 110.199 94.1711L110.204 95.6711ZM77.3704 164.69L77.365 163.19C75.417 163.197 73.8381 161.612 73.8525 159.664L72.3526 159.653L70.8526 159.642C70.8258 163.26 73.758 166.203 77.3758 166.19L77.3704 164.69ZM91.5246 100.683L93.0245 100.694C93.0387 98.7764 94.5939 97.2272 96.5118 97.2203L96.5064 95.7203L96.5011 94.2203C92.9391 94.2331 90.051 97.1103 90.0246 100.672L91.5246 100.683ZM67.77 95.8236L67.7754 97.3236C69.7234 97.3166 71.3023 98.9015 71.2879 100.849L72.7878 100.861L74.2878 100.872C74.3146 97.254 71.3824 94.3106 67.7646 94.3236L67.77 95.8236ZM47.0543 93.898L45.5543 93.9034C45.5612 95.8364 47.1339 97.3978 49.0668 97.3908L49.0614 95.8908L49.0561 94.3908C48.7799 94.3918 48.5553 94.1688 48.5543 93.8926L47.0543 93.898ZM91.0877 159.696L89.5877 159.685C89.5735 161.603 88.0183 163.152 86.1004 163.159L86.1058 164.659L86.1112 166.159C89.6731 166.146 92.5612 163.269 92.5876 159.707L91.0877 159.696ZM49 78.7915L48.9946 77.2915C47.0616 77.2985 45.5003 78.8711 45.5072 80.8041L47.0072 80.7987L48.5072 80.7933C48.5062 80.5172 48.7292 80.2925 49.0054 80.2915L49 78.7915Z" fill="black" fill-opacity="0.2"/>
<path d="M96.9997 78.619C97.0156 83.0372 100.61 86.6061 105.028 86.5902C109.447 86.5743 113.015 82.9797 113 78.5615C112.984 74.1432 109.389 70.5744 104.971 70.5903C100.553 70.6062 96.9838 74.2007 96.9997 78.619ZM91.5246 100.683L90.0246 100.672V100.672L91.5246 100.683ZM91.0877 159.696L89.5877 159.685V159.685L91.0877 159.696ZM72.3526 159.653L70.8526 159.642V159.642L72.3526 159.653ZM72.7878 100.861L74.2878 100.872L74.2878 100.872L72.7878 100.861ZM153.999 78.4141C154.015 82.8324 157.61 86.4012 162.028 86.3853C166.446 86.3694 170.015 82.7749 169.999 78.3566C169.983 73.9384 166.389 70.3696 161.971 70.3854C157.552 70.4013 153.983 73.9959 153.999 78.4141ZM122.076 80.8929L123.353 81.6791L123.353 81.6791L122.076 80.8929ZM114.445 93.2918L113.167 92.5056L113.167 92.5056L114.445 93.2918ZM49 78.7915L49.0054 80.2915L105.005 80.0902L105 78.5902L104.994 77.0903L48.9946 77.2915L49 78.7915ZM47.0543 93.898L48.5543 93.8926L48.5072 80.7933L47.0072 80.7987L45.5072 80.8041L45.5543 93.9034L47.0543 93.898ZM67.77 95.8236L67.7646 94.3236L49.0561 94.3908L49.0614 95.8908L49.0668 97.3908L67.7754 97.3236L67.77 95.8236ZM91.5246 100.683L90.0246 100.672L89.5877 159.685L91.0877 159.696L92.5876 159.707L93.0245 100.694L91.5246 100.683ZM86.1058 164.659L86.1004 163.159L77.365 163.19L77.3704 164.69L77.3758 166.19L86.1112 166.159L86.1058 164.659ZM72.3526 159.653L73.8525 159.664L74.2878 100.872L72.7878 100.861L71.2879 100.849L70.8526 159.642L72.3526 159.653ZM110.204 95.6711L110.199 94.1711L96.5011 94.2203L96.5064 95.7203L96.5118 97.2203L110.21 97.1711L110.204 95.6711ZM161.999 78.3854L161.994 76.8854L126.31 77.0136L126.316 78.5136L126.321 80.0136L162.005 79.8854L161.999 78.3854ZM122.076 80.8929L120.798 80.1067L113.167 92.5056L114.445 93.2918L115.722 94.078L123.353 81.6791L122.076 80.8929ZM126.316 78.5136L126.31 77.0136C124.062 77.0217 121.977 78.1916 120.798 80.1067L122.076 80.8929L123.353 81.6791C123.988 80.6479 125.11 80.018 126.321 80.0136L126.316 78.5136ZM110.204 95.6711L110.21 97.1711C112.459 97.163 114.543 95.9931 115.722 94.078L114.445 93.2918L113.167 92.5056C112.533 93.5368 111.41 94.1667 110.199 94.1711L110.204 95.6711ZM77.3704 164.69L77.365 163.19C75.417 163.197 73.8381 161.612 73.8525 159.664L72.3526 159.653L70.8526 159.642C70.8258 163.26 73.758 166.203 77.3758 166.19L77.3704 164.69ZM91.5246 100.683L93.0245 100.694C93.0387 98.7764 94.5939 97.2272 96.5118 97.2203L96.5064 95.7203L96.5011 94.2203C92.9391 94.2331 90.051 97.1103 90.0246 100.672L91.5246 100.683ZM67.77 95.8236L67.7754 97.3236C69.7234 97.3166 71.3023 98.9015 71.2879 100.849L72.7878 100.861L74.2878 100.872C74.3146 97.254 71.3824 94.3106 67.7646 94.3236L67.77 95.8236ZM47.0543 93.898L45.5543 93.9034C45.5612 95.8364 47.1339 97.3978 49.0668 97.3908L49.0614 95.8908L49.0561 94.3908C48.7799 94.3918 48.5553 94.1688 48.5543 93.8926L47.0543 93.898ZM91.0877 159.696L89.5877 159.685C89.5735 161.603 88.0183 163.152 86.1004 163.159L86.1058 164.659L86.1112 166.159C89.6731 166.146 92.5612 163.269 92.5876 159.707L91.0877 159.696ZM49 78.7915L48.9946 77.2915C47.0616 77.2985 45.5003 78.8711 45.5072 80.8041L47.0072 80.7987L48.5072 80.7933C48.5062 80.5172 48.7292 80.2925 49.0054 80.2915L49 78.7915Z" fill="black" fill-opacity="0.2"/>
<g filter="url(#filter0_d_254_1326)">
<path d="M98.0552 94.1154C97.2267 94.1183 96.5576 94.7923 96.5606 95.6207C96.5635 96.4492 97.2375 97.1183 98.0659 97.1153L98.0605 95.6154L98.0552 94.1154ZM173.56 95.344C173.576 99.7622 177.171 103.331 181.589 103.315C186.007 103.299 189.576 99.7047 189.56 95.2865C189.544 90.8682 185.95 87.2994 181.531 87.3153C177.113 87.3312 173.544 90.9257 173.56 95.344ZM151.011 100.358L152.511 100.372L152.511 100.372L151.011 100.358ZM150.426 159.495L148.926 159.48L148.926 159.48L150.426 159.495ZM131.583 159.428L133.083 159.443V159.443L131.583 159.428ZM132.165 100.56L130.665 100.545V100.545L132.165 100.56ZM127.148 95.5108L127.142 94.0108L98.0552 94.1154L98.0605 95.6154L98.0659 97.1153L127.153 97.0108L127.148 95.5108ZM181.56 95.3152L181.555 93.8153L155.988 93.9071L155.993 95.4071L155.999 96.9071L181.565 96.8152L181.56 95.3152ZM151.011 100.358L149.511 100.343L148.926 159.48L150.426 159.495L151.926 159.51L152.511 100.372L151.011 100.358ZM145.444 164.445L145.439 162.946L136.595 162.977L136.6 164.477L136.606 165.977L145.45 165.945L145.444 164.445ZM131.583 159.428L133.083 159.443L133.665 100.575L132.165 100.56L130.665 100.545L130.083 159.413L131.583 159.428ZM136.6 164.477L136.595 162.977C134.644 162.984 133.063 161.394 133.083 159.443L131.583 159.428L130.083 159.413C130.047 163.037 132.982 165.99 136.606 165.977L136.6 164.477ZM150.426 159.495L148.926 159.48C148.907 161.395 147.353 162.939 145.439 162.946L145.444 164.445L145.45 165.945C149.005 165.933 151.891 163.065 151.926 159.51L150.426 159.495ZM155.993 95.4071L155.988 93.9071C152.432 93.9199 149.547 96.7873 149.511 100.343L151.011 100.358L152.511 100.372C152.53 98.458 154.084 96.914 155.999 96.9071L155.993 95.4071ZM127.148 95.5108L127.153 97.0108C129.104 97.0038 130.685 98.5941 130.665 100.545L132.165 100.56L133.665 100.575C133.701 96.9511 130.766 93.9978 127.142 94.0108L127.148 95.5108Z" fill="#2D9CDB"/>
<path d="M98.0552 94.1154C97.2267 94.1183 96.5576 94.7923 96.5606 95.6207C96.5635 96.4492 97.2375 97.1183 98.0659 97.1153L98.0605 95.6154L98.0552 94.1154ZM173.56 95.344C173.576 99.7622 177.171 103.331 181.589 103.315C186.007 103.299 189.576 99.7047 189.56 95.2865C189.544 90.8682 185.95 87.2994 181.531 87.3153C177.113 87.3312 173.544 90.9257 173.56 95.344ZM151.011 100.358L152.511 100.372L152.511 100.372L151.011 100.358ZM150.426 159.495L148.926 159.48L148.926 159.48L150.426 159.495ZM131.583 159.428L133.083 159.443V159.443L131.583 159.428ZM132.165 100.56L130.665 100.545V100.545L132.165 100.56ZM127.148 95.5108L127.142 94.0108L98.0552 94.1154L98.0605 95.6154L98.0659 97.1153L127.153 97.0108L127.148 95.5108ZM181.56 95.3152L181.555 93.8153L155.988 93.9071L155.993 95.4071L155.999 96.9071L181.565 96.8152L181.56 95.3152ZM151.011 100.358L149.511 100.343L148.926 159.48L150.426 159.495L151.926 159.51L152.511 100.372L151.011 100.358ZM145.444 164.445L145.439 162.946L136.595 162.977L136.6 164.477L136.606 165.977L145.45 165.945L145.444 164.445ZM131.583 159.428L133.083 159.443L133.665 100.575L132.165 100.56L130.665 100.545L130.083 159.413L131.583 159.428ZM136.6 164.477L136.595 162.977C134.644 162.984 133.063 161.394 133.083 159.443L131.583 159.428L130.083 159.413C130.047 163.037 132.982 165.99 136.606 165.977L136.6 164.477ZM150.426 159.495L148.926 159.48C148.907 161.395 147.353 162.939 145.439 162.946L145.444 164.445L145.45 165.945C149.005 165.933 151.891 163.065 151.926 159.51L150.426 159.495ZM155.993 95.4071L155.988 93.9071C152.432 93.9199 149.547 96.7873 149.511 100.343L151.011 100.358L152.511 100.372C152.53 98.458 154.084 96.914 155.999 96.9071L155.993 95.4071ZM127.148 95.5108L127.153 97.0108C129.104 97.0038 130.685 98.5941 130.665 100.545L132.165 100.56L133.665 100.575C133.701 96.9511 130.766 93.9978 127.142 94.0108L127.148 95.5108Z" fill="black" fill-opacity="0.2"/>
<path d="M98.0552 94.1154C97.2267 94.1183 96.5576 94.7923 96.5606 95.6207C96.5635 96.4492 97.2375 97.1183 98.0659 97.1153L98.0605 95.6154L98.0552 94.1154ZM173.56 95.344C173.576 99.7622 177.171 103.331 181.589 103.315C186.007 103.299 189.576 99.7047 189.56 95.2865C189.544 90.8682 185.95 87.2994 181.531 87.3153C177.113 87.3312 173.544 90.9257 173.56 95.344ZM151.011 100.358L152.511 100.372L152.511 100.372L151.011 100.358ZM150.426 159.495L148.926 159.48L148.926 159.48L150.426 159.495ZM131.583 159.428L133.083 159.443V159.443L131.583 159.428ZM132.165 100.56L130.665 100.545V100.545L132.165 100.56ZM127.148 95.5108L127.142 94.0108L98.0552 94.1154L98.0605 95.6154L98.0659 97.1153L127.153 97.0108L127.148 95.5108ZM181.56 95.3152L181.555 93.8153L155.988 93.9071L155.993 95.4071L155.999 96.9071L181.565 96.8152L181.56 95.3152ZM151.011 100.358L149.511 100.343L148.926 159.48L150.426 159.495L151.926 159.51L152.511 100.372L151.011 100.358ZM145.444 164.445L145.439 162.946L136.595 162.977L136.6 164.477L136.606 165.977L145.45 165.945L145.444 164.445ZM131.583 159.428L133.083 159.443L133.665 100.575L132.165 100.56L130.665 100.545L130.083 159.413L131.583 159.428ZM136.6 164.477L136.595 162.977C134.644 162.984 133.063 161.394 133.083 159.443L131.583 159.428L130.083 159.413C130.047 163.037 132.982 165.99 136.606 165.977L136.6 164.477ZM150.426 159.495L148.926 159.48C148.907 161.395 147.353 162.939 145.439 162.946L145.444 164.445L145.45 165.945C149.005 165.933 151.891 163.065 151.926 159.51L150.426 159.495ZM155.993 95.4071L155.988 93.9071C152.432 93.9199 149.547 96.7873 149.511 100.343L151.011 100.358L152.511 100.372C152.53 98.458 154.084 96.914 155.999 96.9071L155.993 95.4071ZM127.148 95.5108L127.153 97.0108C129.104 97.0038 130.685 98.5941 130.665 100.545L132.165 100.56L133.665 100.575C133.701 96.9511 130.766 93.9978 127.142 94.0108L127.148 95.5108Z" fill="black" fill-opacity="0.2"/>
<path d="M98.0552 94.1154C97.2267 94.1183 96.5576 94.7923 96.5606 95.6207C96.5635 96.4492 97.2375 97.1183 98.0659 97.1153L98.0605 95.6154L98.0552 94.1154ZM173.56 95.344C173.576 99.7622 177.171 103.331 181.589 103.315C186.007 103.299 189.576 99.7047 189.56 95.2865C189.544 90.8682 185.95 87.2994 181.531 87.3153C177.113 87.3312 173.544 90.9257 173.56 95.344ZM151.011 100.358L152.511 100.372L152.511 100.372L151.011 100.358ZM150.426 159.495L148.926 159.48L148.926 159.48L150.426 159.495ZM131.583 159.428L133.083 159.443V159.443L131.583 159.428ZM132.165 100.56L130.665 100.545V100.545L132.165 100.56ZM127.148 95.5108L127.142 94.0108L98.0552 94.1154L98.0605 95.6154L98.0659 97.1153L127.153 97.0108L127.148 95.5108ZM181.56 95.3152L181.555 93.8153L155.988 93.9071L155.993 95.4071L155.999 96.9071L181.565 96.8152L181.56 95.3152ZM151.011 100.358L149.511 100.343L148.926 159.48L150.426 159.495L151.926 159.51L152.511 100.372L151.011 100.358ZM145.444 164.445L145.439 162.946L136.595 162.977L136.6 164.477L136.606 165.977L145.45 165.945L145.444 164.445ZM131.583 159.428L133.083 159.443L133.665 100.575L132.165 100.56L130.665 100.545L130.083 159.413L131.583 159.428ZM136.6 164.477L136.595 162.977C134.644 162.984 133.063 161.394 133.083 159.443L131.583 159.428L130.083 159.413C130.047 163.037 132.982 165.99 136.606 165.977L136.6 164.477ZM150.426 159.495L148.926 159.48C148.907 161.395 147.353 162.939 145.439 162.946L145.444 164.445L145.45 165.945C149.005 165.933 151.891 163.065 151.926 159.51L150.426 159.495ZM155.993 95.4071L155.988 93.9071C152.432 93.9199 149.547 96.7873 149.511 100.343L151.011 100.358L152.511 100.372C152.53 98.458 154.084 96.914 155.999 96.9071L155.993 95.4071ZM127.148 95.5108L127.153 97.0108C129.104 97.0038 130.685 98.5941 130.665 100.545L132.165 100.56L133.665 100.575C133.701 96.9511 130.766 93.9978 127.142 94.0108L127.148 95.5108Z" fill="black" fill-opacity="0.2"/>
<path d="M98.0552 94.1154C97.2267 94.1183 96.5576 94.7923 96.5606 95.6207C96.5635 96.4492 97.2375 97.1183 98.0659 97.1153L98.0605 95.6154L98.0552 94.1154ZM173.56 95.344C173.576 99.7622 177.171 103.331 181.589 103.315C186.007 103.299 189.576 99.7047 189.56 95.2865C189.544 90.8682 185.95 87.2994 181.531 87.3153C177.113 87.3312 173.544 90.9257 173.56 95.344ZM151.011 100.358L152.511 100.372L152.511 100.372L151.011 100.358ZM150.426 159.495L148.926 159.48L148.926 159.48L150.426 159.495ZM131.583 159.428L133.083 159.443V159.443L131.583 159.428ZM132.165 100.56L130.665 100.545V100.545L132.165 100.56ZM127.148 95.5108L127.142 94.0108L98.0552 94.1154L98.0605 95.6154L98.0659 97.1153L127.153 97.0108L127.148 95.5108ZM181.56 95.3152L181.555 93.8153L155.988 93.9071L155.993 95.4071L155.999 96.9071L181.565 96.8152L181.56 95.3152ZM151.011 100.358L149.511 100.343L148.926 159.48L150.426 159.495L151.926 159.51L152.511 100.372L151.011 100.358ZM145.444 164.445L145.439 162.946L136.595 162.977L136.6 164.477L136.606 165.977L145.45 165.945L145.444 164.445ZM131.583 159.428L133.083 159.443L133.665 100.575L132.165 100.56L130.665 100.545L130.083 159.413L131.583 159.428ZM136.6 164.477L136.595 162.977C134.644 162.984 133.063 161.394 133.083 159.443L131.583 159.428L130.083 159.413C130.047 163.037 132.982 165.99 136.606 165.977L136.6 164.477ZM150.426 159.495L148.926 159.48C148.907 161.395 147.353 162.939 145.439 162.946L145.444 164.445L145.45 165.945C149.005 165.933 151.891 163.065 151.926 159.51L150.426 159.495ZM155.993 95.4071L155.988 93.9071C152.432 93.9199 149.547 96.7873 149.511 100.343L151.011 100.358L152.511 100.372C152.53 98.458 154.084 96.914 155.999 96.9071L155.993 95.4071ZM127.148 95.5108L127.153 97.0108C129.104 97.0038 130.685 98.5941 130.665 100.545L132.165 100.56L133.665 100.575C133.701 96.9511 130.766 93.9978 127.142 94.0108L127.148 95.5108Z" fill="black" fill-opacity="0.2"/>
</g>
<path d="M95.3363 215.732C77.3744 210.986 61.1208 201.256 48.4522 187.667C35.7835 174.078 27.2163 157.183 23.7396 138.933C20.2629 120.683 22.0184 101.821 28.8036 84.5263C35.5887 67.2312 47.1267 52.2077 62.0857 41.19C77.0446 30.1724 94.8145 23.6099 113.344 22.2603C131.873 20.9106 150.406 24.8288 166.804 33.5624C183.202 42.2961 196.795 55.4891 206.015 71.6185C215.234 87.7478 219.705 106.156 218.909 124.717" stroke="#1F7A63" stroke-width="2"/>
<defs>
<filter id="filter0_d_254_1326" x="92.5605" y="87.3152" width="101" height="86.6621" filterUnits="userSpaceOnUse" color-interpolation-filters="sRGB">
<feFlood flood-opacity="0" result="BackgroundImageFix"/>
<feColorMatrix in="SourceAlpha" type="matrix" values="0 0 0 0 0 0 0 0 0 0 0 0 0 0 0 0 0 0 127 0" result="hardAlpha"/>
<feOffset dy="4"/>
<feGaussianBlur stdDeviation="2"/>
<feComposite in2="hardAlpha" operator="out"/>
<feColorMatrix type="matrix" values="0 0 0 0 0 0 0 0 0 0 0 0 0 0 0 0 0 0 0.25 0"/>
<feBlend mode="normal" in2="BackgroundImageFix" result="effect1_dropShadow_254_1326"/>
<feBlend mode="normal" in="SourceGraphic" in2="effect1_dropShadow_254_1326" result="shape"/>
</filter>
</defs>
</svg>
