<svg width="1019" height="856" viewBox="0 0 1019 856" fill="none" xmlns="http://www.w3.org/2000/svg">
<g clip-path="url(#clip0_338_853)">
<path d="M768.196 291.121H830.97C834.186 291.124 837.269 292.404 839.543 294.678C841.818 296.952 843.097 300.035 843.101 303.252V673.577H867.362V303.252C867.352 293.603 863.514 284.352 856.692 277.53C849.869 270.707 840.618 266.869 830.97 266.859H762.771C767.431 274.034 769.356 282.645 768.196 291.121Z" fill="#2D4356"/>
<path d="M175.899 303.252C175.902 300.035 177.182 296.952 179.456 294.678C181.73 292.404 184.813 291.124 188.03 291.121H250.803C249.643 282.645 251.568 274.034 256.227 266.859H188.03C178.381 266.869 169.13 270.707 162.308 277.53C155.485 284.352 151.647 293.603 151.637 303.252V673.577H175.899V303.252Z" fill="#2D4356"/>
<path d="M373.395 462.737C407.679 504.413 420.082 528.042 426.461 563.878C427.012 566.981 427.901 576.577 428.991 604.689C429.342 612.514 432.258 620.006 437.287 626.009C442.317 632.013 449.182 636.196 456.824 637.913C461.035 648.441 468.304 657.466 477.693 663.823C487.083 670.18 498.162 673.577 509.5 673.577C520.839 673.577 531.918 670.18 541.307 663.823C550.697 657.466 557.966 648.441 562.176 637.913C569.818 636.196 576.683 632.013 581.713 626.009C586.743 620.006 589.659 612.514 590.01 604.689C591.1 576.577 591.988 566.981 592.539 563.878C598.86 528.373 612.726 501.931 645.535 462.826C681.01 420.548 697.53 381.768 697.53 340.782C697.53 250.359 625.586 174.763 530.185 164.939L530.179 164.936C516.808 163.835 503.371 163.796 489.995 164.821C393.919 174.141 321.471 249.788 321.471 340.782C321.471 393.544 351.105 435.653 373.395 462.737ZM492.341 188.97C504.101 187.845 515.943 187.878 527.697 189.071C610.688 197.618 673.268 262.84 673.268 340.782C673.268 375.744 658.549 409.569 626.948 447.236C596.946 483.001 576.73 514.276 568.657 559.625C567.614 565.459 566.726 579.071 565.772 603.753C565.526 606.814 564.104 609.661 561.803 611.695C559.502 613.728 556.502 614.791 553.434 614.658C550.224 614.415 547.043 615.419 544.556 617.463C542.069 619.507 540.466 622.432 540.083 625.628C538.809 638.908 525.375 649.315 509.5 649.315C493.626 649.315 480.192 638.908 478.918 625.628C478.494 622.449 476.881 619.55 474.403 617.514C471.925 615.478 468.768 614.458 465.567 614.658C462.499 614.791 459.499 613.728 457.198 611.695C454.897 609.661 453.474 606.814 453.229 603.753C452.275 579.071 451.387 565.459 450.344 559.625C442.366 514.809 424.477 486.643 392.124 447.325C360.043 408.331 345.733 375.475 345.733 340.782C345.733 262.342 408.763 197.079 492.341 188.97Z" fill="#2D4356"/>
<path d="M509.5 139.815C512.717 139.815 515.803 138.537 518.078 136.262C520.353 133.987 521.631 130.902 521.631 127.685V103.423C521.631 100.205 520.353 97.1197 518.078 94.8447C515.803 92.5697 512.717 91.2917 509.5 91.2917C506.283 91.2917 503.197 92.5697 500.922 94.8447C498.647 97.1197 497.369 100.205 497.369 103.423V127.685C497.369 130.902 498.647 133.987 500.922 136.262C503.197 138.537 506.283 139.815 509.5 139.815Z" fill="#2D4356"/>
<path d="M441.27 138.264C442.136 141.35 444.174 143.976 446.951 145.579C449.727 147.181 453.02 147.634 456.126 146.841C457.665 146.429 459.107 145.718 460.371 144.748C461.636 143.779 462.696 142.57 463.493 141.19C464.289 139.81 464.806 138.287 465.014 136.708C465.221 135.128 465.116 133.524 464.703 131.985L461.563 120.269C461.153 118.728 460.443 117.283 459.474 116.017C458.504 114.752 457.295 113.689 455.915 112.891C454.535 112.093 453.011 111.575 451.43 111.366C449.849 111.157 448.243 111.262 446.703 111.675C445.163 112.087 443.72 112.8 442.455 113.771C441.191 114.742 440.13 115.952 439.334 117.334C438.537 118.715 438.021 120.24 437.815 121.821C437.609 123.402 437.716 125.008 438.131 126.547L441.27 138.264Z" fill="#1F7A63"/>
<path d="M346.521 200.215C348.818 202.449 351.895 203.698 355.098 203.698C358.302 203.698 361.379 202.449 363.675 200.215C364.802 199.089 365.696 197.752 366.306 196.281C366.916 194.809 367.229 193.232 367.229 191.639C367.229 190.046 366.916 188.468 366.306 186.996C365.696 185.525 364.802 184.188 363.675 183.062L355.098 174.485C352.822 172.217 349.739 170.945 346.526 170.948C343.313 170.951 340.233 172.229 337.961 174.501C335.689 176.773 334.411 179.853 334.408 183.066C334.405 186.279 335.677 189.362 337.945 191.639L346.521 200.215Z" fill="#1F7A63"/>
<path d="M301.723 414.272C304.82 413.431 307.458 411.396 309.058 408.614C310.658 405.831 311.09 402.528 310.259 399.427C309.429 396.327 307.403 393.682 304.626 392.073C301.849 390.463 298.547 390.02 295.444 390.84L283.728 393.979C282.189 394.391 280.746 395.102 279.482 396.071C278.218 397.041 277.157 398.25 276.361 399.629C275.564 401.009 275.047 402.532 274.84 404.112C274.632 405.691 274.738 407.296 275.151 408.834C276.04 411.906 278.083 414.514 280.852 416.113C283.621 417.711 286.902 418.177 290.006 417.412L301.723 414.272Z" fill="#1F7A63"/>
<path d="M346.52 491.868L337.943 500.445C336.816 501.571 335.922 502.908 335.312 504.38C334.703 505.851 334.389 507.429 334.389 509.022C334.389 510.615 334.703 512.192 335.312 513.664C335.922 515.136 336.816 516.473 337.943 517.599C340.235 519.84 343.314 521.094 346.52 521.094C349.726 521.094 352.804 519.84 355.097 517.599L363.674 509.022C365.938 506.745 367.208 503.663 367.203 500.452C367.199 497.24 365.921 494.162 363.651 491.891C361.38 489.62 358.301 488.342 355.09 488.338C351.879 488.334 348.796 489.603 346.52 491.868Z" fill="#1F7A63"/>
<path d="M655.327 491.868C654.201 492.994 653.307 494.331 652.697 495.803C652.087 497.274 651.773 498.852 651.773 500.445C651.773 502.038 652.087 503.615 652.697 505.087C653.307 506.559 654.201 507.896 655.327 509.022L663.904 517.599C666.207 519.82 669.282 521.062 672.481 521.062C675.681 521.062 678.756 519.82 681.058 517.599C682.185 516.473 683.079 515.135 683.689 513.664C684.298 512.192 684.612 510.615 684.612 509.022C684.612 507.429 684.298 505.851 683.689 504.38C683.079 502.908 682.185 501.571 681.058 500.445L672.481 491.868C671.355 490.741 670.018 489.847 668.547 489.238C667.075 488.628 665.497 488.314 663.904 488.314C662.311 488.314 660.734 488.628 659.262 489.238C657.791 489.847 656.454 490.741 655.327 491.868Z" fill="#1F7A63"/>
<path d="M743.851 408.835C744.264 407.296 744.37 405.691 744.162 404.112C743.955 402.532 743.438 401.009 742.641 399.63C741.845 398.25 740.784 397.041 739.52 396.071C738.256 395.102 736.813 394.391 735.274 393.979L723.558 390.84C720.451 390.007 717.14 390.443 714.354 392.051C711.568 393.66 709.535 396.309 708.702 399.417C707.87 402.524 708.306 405.835 709.914 408.621C711.523 411.407 714.172 413.44 717.279 414.272L728.996 417.412C732.101 418.204 735.394 417.75 738.169 416.147C740.945 414.545 742.984 411.92 743.851 408.835Z" fill="#1F7A63"/>
<path d="M672.481 200.215L681.058 191.639C683.323 189.362 684.592 186.28 684.588 183.068C684.584 179.857 683.306 176.778 681.035 174.508C678.765 172.237 675.686 170.959 672.475 170.955C669.263 170.951 666.181 172.22 663.904 174.485L655.327 183.062C654.201 184.188 653.307 185.525 652.697 186.996C652.087 188.468 651.773 190.045 651.773 191.638C651.773 193.231 652.087 194.809 652.697 196.28C653.307 197.752 654.201 199.089 655.327 200.215C656.439 201.367 657.772 202.283 659.245 202.909C660.719 203.535 662.303 203.858 663.904 203.858C665.505 203.858 667.09 203.535 668.563 202.909C670.037 202.284 671.37 201.367 672.481 200.215Z" fill="#1F7A63"/>
<path d="M562.876 146.841C565.983 147.642 569.279 147.193 572.057 145.589C574.836 143.985 576.873 141.354 577.732 138.264L580.871 126.547C581.283 125.009 581.388 123.404 581.18 121.825C580.973 120.245 580.456 118.723 579.659 117.343C578.863 115.964 577.802 114.754 576.539 113.785C575.275 112.815 573.833 112.104 572.294 111.692C570.755 111.279 569.151 111.174 567.571 111.382C565.992 111.59 564.469 112.107 563.09 112.903C561.71 113.7 560.501 114.76 559.532 116.024C558.562 117.288 557.851 118.73 557.438 120.269L554.299 131.985C553.886 133.524 553.781 135.129 553.988 136.708C554.196 138.287 554.713 139.811 555.509 141.19C556.306 142.57 557.367 143.779 558.631 144.748C559.895 145.718 561.338 146.429 562.876 146.841Z" fill="#1F7A63"/>
<path d="M612.614 167.445C615.407 169.024 618.709 169.444 621.808 168.614C624.908 167.783 627.557 165.769 629.187 163.005L641.318 141.992C642.925 139.206 643.359 135.895 642.525 132.788C641.692 129.681 639.658 127.032 636.872 125.424C634.087 123.816 630.776 123.38 627.669 124.212C624.561 125.044 621.912 127.076 620.302 129.861L614.237 140.366L608.171 150.874C606.563 153.661 606.128 156.972 606.961 160.08C607.794 163.187 609.827 165.836 612.614 167.445Z" fill="#2D4356"/>
<path d="M389.813 163.005C391.453 165.759 394.103 167.763 397.198 168.592C400.294 169.422 403.59 169.01 406.387 167.445C409.173 165.836 411.207 163.187 412.04 160.08C412.873 156.972 412.437 153.661 410.829 150.874L398.698 129.861C397.089 127.076 394.439 125.044 391.332 124.212C388.224 123.38 384.914 123.816 382.128 125.424C379.342 127.032 377.309 129.681 376.475 132.788C375.641 135.895 376.076 139.206 377.682 141.992L389.813 163.005Z" fill="#2D4356"/>
<path d="M293.322 235.237L314.333 247.368C315.712 248.166 317.235 248.684 318.815 248.892C320.395 249.101 322 248.996 323.54 248.584C325.079 248.172 326.522 247.461 327.787 246.491C329.051 245.521 330.112 244.312 330.909 242.932C331.705 241.552 332.223 240.028 332.43 238.448C332.638 236.868 332.533 235.263 332.12 233.724C331.707 232.185 330.995 230.742 330.025 229.478C329.054 228.214 327.844 227.154 326.463 226.358L305.453 214.227C304.074 213.43 302.551 212.912 300.971 212.703C299.391 212.494 297.786 212.599 296.246 213.011C294.707 213.423 293.264 214.134 291.999 215.104C290.735 216.074 289.674 217.283 288.877 218.663C288.08 220.043 287.563 221.567 287.356 223.147C287.148 224.727 287.253 226.332 287.666 227.871C288.079 229.41 288.791 230.853 289.761 232.117C290.732 233.381 291.942 234.441 293.322 235.237Z" fill="#2D4356"/>
<path d="M283.727 298.104L295.444 301.244C298.547 302.065 301.85 301.623 304.628 300.013C307.406 298.404 309.433 295.759 310.264 292.657C311.095 289.556 310.662 286.252 309.061 283.469C307.46 280.686 304.821 278.651 301.722 277.811L290.006 274.672C286.9 273.844 283.593 274.283 280.811 275.892C278.029 277.501 275.999 280.149 275.167 283.253C274.335 286.358 274.77 289.665 276.375 292.45C277.98 295.234 280.624 297.268 283.727 298.104Z" fill="#1F7A63"/>
<path d="M266.881 358.173H291.143C294.36 358.173 297.446 356.895 299.721 354.62C301.996 352.345 303.274 349.259 303.274 346.042C303.274 342.824 301.996 339.739 299.721 337.464C297.446 335.189 294.36 333.911 291.143 333.911H266.881C263.664 333.911 260.578 335.189 258.303 337.464C256.028 339.739 254.75 342.824 254.75 346.042C254.75 349.259 256.028 352.345 258.303 354.62C260.578 356.895 263.664 358.173 266.881 358.173Z" fill="#2D4356"/>
<path d="M305.453 477.859L326.463 465.728C329.248 464.119 331.28 461.469 332.112 458.362C332.944 455.254 332.508 451.944 330.9 449.158C329.292 446.372 326.643 444.339 323.536 443.505C320.429 442.671 317.119 443.106 314.332 444.712L293.322 456.843C290.537 458.453 288.505 461.102 287.673 464.21C286.841 467.317 287.277 470.628 288.885 473.414C290.493 476.2 293.142 478.233 296.248 479.066C299.355 479.9 302.666 479.466 305.453 477.859Z" fill="#2D4356"/>
<path d="M725.677 456.843L704.667 444.712C703.287 443.915 701.763 443.397 700.183 443.188C698.603 442.98 696.997 443.085 695.457 443.497C693.918 443.909 692.475 444.621 691.21 445.591C689.946 446.561 688.885 447.771 688.088 449.152C687.291 450.532 686.774 452.056 686.566 453.636C686.359 455.216 686.464 456.822 686.877 458.361C687.29 459.901 688.003 461.344 688.974 462.608C689.944 463.872 691.155 464.932 692.536 465.728L713.546 477.859C716.342 479.425 719.64 479.836 722.735 479.007C725.831 478.177 728.48 476.171 730.119 473.417C731.727 470.63 732.162 467.318 731.329 464.21C730.496 461.102 728.463 458.453 725.677 456.843Z" fill="#2D4356"/>
<path d="M715.727 346.042C715.727 349.259 717.005 352.344 719.28 354.619C721.555 356.894 724.64 358.172 727.858 358.173H752.119C755.337 358.173 758.422 356.895 760.697 354.62C762.972 352.345 764.25 349.259 764.25 346.042C764.25 342.824 762.972 339.739 760.697 337.464C758.422 335.189 755.337 333.911 752.119 333.911H727.858C724.64 333.911 721.555 335.189 719.28 337.464C717.005 339.739 715.727 342.824 715.727 346.042Z" fill="#2D4356"/>
<path d="M728.995 274.672L717.278 277.811C715.739 278.223 714.297 278.934 713.033 279.903C711.769 280.873 710.708 282.082 709.912 283.461C709.115 284.841 708.598 286.364 708.391 287.943C708.183 289.523 708.289 291.128 708.701 292.666C709.589 295.739 711.632 298.348 714.402 299.947C717.171 301.546 720.452 302.011 723.557 301.244L735.273 298.104C738.381 297.272 741.03 295.239 742.639 292.453C744.247 289.667 744.683 286.356 743.85 283.249C743.018 280.141 740.985 277.492 738.199 275.883C735.413 274.275 732.102 273.839 728.995 274.672Z" fill="#1F7A63"/>
<path d="M704.666 247.368L725.676 235.237C727.057 234.441 728.267 233.381 729.238 232.117C730.208 230.853 730.92 229.41 731.333 227.871C731.746 226.332 731.851 224.727 731.643 223.147C731.436 221.567 730.918 220.043 730.122 218.663C729.325 217.283 728.264 216.074 727 215.104C725.735 214.134 724.292 213.423 722.753 213.011C721.213 212.599 719.608 212.494 718.028 212.703C716.448 212.912 714.925 213.43 713.546 214.227L692.535 226.358C689.749 227.966 687.716 230.616 686.883 233.723C686.049 236.831 686.485 240.142 688.093 242.928C689.86 245.537 692.508 247.422 695.552 248.238C698.596 249.053 701.832 248.744 704.666 247.368Z" fill="#2D4356"/>
<path d="M497.369 466.737V588.661C497.369 591.878 498.647 594.964 500.922 597.239C503.197 599.514 506.283 600.792 509.5 600.792C512.717 600.792 515.803 599.514 518.078 597.239C520.353 594.964 521.631 591.878 521.631 588.661V466.737C517.639 467.135 513.595 467.351 509.5 467.351C505.405 467.351 501.361 467.135 497.369 466.737Z" fill="#2D4356"/>
<path d="M509.501 443.089C528.695 443.089 547.458 437.398 563.418 426.734C579.377 416.07 591.816 400.913 599.161 383.18C606.506 365.447 608.428 345.934 604.684 327.109C600.939 308.283 591.696 290.991 578.124 277.419C564.551 263.846 547.259 254.603 528.434 250.859C509.608 247.114 490.095 249.036 472.362 256.381C454.629 263.727 439.472 276.166 428.809 292.125C418.145 308.084 412.453 326.847 412.453 346.042C412.483 371.771 422.717 396.439 440.91 414.632C459.104 432.826 483.771 443.06 509.501 443.089ZM509.501 273.256C523.896 273.256 537.969 277.525 549.938 285.523C561.908 293.52 571.237 304.888 576.746 318.188C582.255 331.488 583.696 346.122 580.888 360.241C578.079 374.361 571.147 387.33 560.968 397.509C550.789 407.688 537.82 414.62 523.701 417.429C509.582 420.237 494.947 418.796 481.647 413.287C468.347 407.778 456.979 398.449 448.982 386.479C440.984 374.51 436.715 360.437 436.715 346.042C436.737 326.744 444.412 308.244 458.057 294.598C471.703 280.953 490.203 273.278 509.501 273.256Z" fill="#1F7A63"/>
<path d="M488.07 372.608C489.995 374.86 492.672 376.339 495.603 376.769C498.535 377.199 501.524 376.552 504.015 374.947L542.695 349.548C544.026 348.674 545.173 347.546 546.069 346.228C546.964 344.911 547.592 343.43 547.915 341.87C548.239 340.31 548.252 338.702 547.954 337.137C547.655 335.572 547.052 334.081 546.178 332.75C545.303 331.418 544.175 330.272 542.858 329.376C541.54 328.48 540.06 327.853 538.5 327.529C536.94 327.206 535.332 327.193 533.767 327.491C532.202 327.789 530.711 328.392 529.379 329.267L499.715 348.749L492.252 339.867C491.228 338.644 489.974 337.635 488.56 336.898C487.146 336.161 485.601 335.709 484.012 335.57C482.424 335.43 480.824 335.605 479.303 336.085C477.783 336.565 476.371 337.339 475.15 338.365C473.93 339.39 472.923 340.647 472.188 342.062C471.453 343.476 471.004 345.022 470.867 346.611C470.73 348.2 470.908 349.8 471.39 351.319C471.872 352.839 472.649 354.249 473.676 355.469L488.07 372.608Z" fill="#2D4356"/>
<path d="M231.157 72.7712C234.756 72.7712 238.274 71.704 241.267 69.7046C244.259 67.7051 246.591 64.8632 247.969 61.5383C249.346 58.2133 249.706 54.5546 249.004 51.0248C248.302 47.4951 246.569 44.2528 244.024 41.708C241.479 39.1632 238.237 37.4301 234.707 36.728C231.178 36.0259 227.519 36.3862 224.194 37.7635C220.869 39.1407 218.027 41.473 216.028 44.4654C214.028 47.4578 212.961 50.9759 212.961 54.5748C212.966 59.3991 214.885 64.0242 218.297 67.4355C221.708 70.8468 226.333 72.7657 231.157 72.7712ZM231.157 45.4766C232.957 45.4766 234.716 46.0102 236.212 47.0099C237.708 48.0096 238.874 49.4306 239.563 51.0931C240.252 52.7555 240.432 54.5849 240.081 56.3498C239.73 58.1146 238.863 59.7358 237.591 61.0082C236.318 62.2806 234.697 63.1471 232.932 63.4982C231.167 63.8492 229.338 63.6691 227.676 62.9804C226.013 62.2918 224.592 61.1257 223.592 59.6295C222.593 58.1333 222.059 56.3743 222.059 54.5748C222.062 52.1625 223.021 49.8497 224.727 48.144C226.432 46.4383 228.745 45.479 231.157 45.4766Z" fill="#2D4356"/>
<path d="M965.08 167.779C962.681 167.779 960.336 168.49 958.341 169.823C956.346 171.156 954.791 173.051 953.873 175.267C952.954 177.484 952.714 179.923 953.182 182.276C953.65 184.629 954.806 186.791 956.502 188.487C958.199 190.184 960.36 191.339 962.714 191.807C965.067 192.276 967.506 192.035 969.723 191.117C971.939 190.199 973.834 188.644 975.167 186.649C976.5 184.654 977.211 182.309 977.211 179.91C977.207 176.693 975.928 173.61 973.654 171.336C971.38 169.062 968.296 167.782 965.08 167.779ZM965.08 185.975C963.88 185.975 962.708 185.619 961.71 184.953C960.713 184.286 959.935 183.339 959.476 182.231C959.017 181.122 958.897 179.903 959.131 178.726C959.365 177.55 959.943 176.469 960.791 175.621C961.64 174.772 962.72 174.195 963.897 173.961C965.073 173.727 966.293 173.847 967.401 174.306C968.51 174.765 969.457 175.542 970.123 176.54C970.79 177.537 971.146 178.71 971.146 179.91C971.144 181.518 970.504 183.06 969.367 184.197C968.23 185.334 966.688 185.973 965.08 185.975Z" fill="#2D4356"/>
<path d="M551.289 24.2474C551.289 21.8481 550.578 19.5027 549.245 17.5078C547.912 15.5129 546.017 13.958 543.801 13.0399C541.584 12.1217 539.145 11.8815 536.792 12.3496C534.438 12.8176 532.277 13.973 530.58 15.6695C528.884 17.3661 527.729 19.5276 527.26 21.8808C526.792 24.234 527.033 26.6731 527.951 28.8897C528.869 31.1064 530.424 33.001 532.419 34.3339C534.414 35.6669 536.759 36.3784 539.158 36.3784C542.374 36.3747 545.458 35.0954 547.732 32.8212C550.006 30.547 551.286 27.4636 551.289 24.2474ZM533.093 24.2474C533.093 23.0478 533.449 21.8751 534.115 20.8776C534.782 19.8802 535.729 19.1027 536.837 18.6436C537.945 18.1846 539.165 18.0644 540.342 18.2985C541.518 18.5325 542.599 19.1102 543.447 19.9585C544.296 20.8067 544.873 21.8875 545.107 23.0641C545.341 24.2407 545.221 25.4602 544.762 26.5686C544.303 27.6769 543.526 28.6242 542.528 29.2907C541.531 29.9572 540.358 30.3129 539.158 30.3129C537.55 30.3113 536.008 29.6717 534.871 28.5346C533.734 27.3974 533.094 25.8556 533.093 24.2474Z" fill="#2D4356"/>
<path d="M98.8846 186.04L107.904 174.182L102.209 170.956L96.4221 184.239H96.228L90.3445 171.047L84.5519 174.37L93.4742 185.949V186.137L79.5176 184.336V190.79L93.5652 188.988V189.176L84.5519 200.749L89.9563 204.17L96.1309 190.79H96.319L102.014 204.073L107.995 200.658L98.8846 189.267V189.079L113.211 190.79V184.336L98.8846 186.235V186.04Z" fill="#1F7A63"/>
<path d="M743.713 89.096V82.7636L729.659 84.6257V84.4437L738.503 72.8041L732.916 69.644L727.239 82.6726H727.051L721.283 69.735L715.599 72.9921L724.352 84.3528V84.5347L710.662 82.7636V89.096L724.443 87.3309V87.5129L715.599 98.8675L720.907 102.222L726.96 89.096H727.142L732.728 102.131L738.594 98.7765L729.659 87.6038V87.4219L743.713 89.096Z" fill="#1F7A63"/>
<path d="M12.131 770.625C18.8307 770.625 24.2619 765.194 24.2619 758.494C24.2619 751.794 18.8307 746.363 12.131 746.363C5.43121 746.363 0 751.794 0 758.494C0 765.194 5.43121 770.625 12.131 770.625Z" fill="#2D4356"/>
<path d="M66.72 746.363H48.5235C45.3062 746.363 42.2206 747.641 39.9457 749.916C37.6707 752.191 36.3926 755.277 36.3926 758.494C36.3926 761.711 37.6707 764.797 39.9457 767.072C42.2206 769.347 45.3062 770.625 48.5235 770.625H66.72C69.9373 770.625 73.0228 769.347 75.2978 767.072C77.5728 764.797 78.8509 761.711 78.8509 758.494C78.8509 755.277 77.5728 752.191 75.2978 749.916C73.0228 747.641 69.9373 746.363 66.72 746.363Z" fill="#2D4356"/>
<path d="M970.476 746.363H952.279C949.062 746.363 945.976 747.641 943.702 749.916C941.427 752.191 940.148 755.277 940.148 758.494C940.148 761.711 941.427 764.797 943.702 767.072C945.976 769.347 949.062 770.625 952.279 770.625H970.476C973.693 770.625 976.779 769.347 979.054 767.072C981.329 764.797 982.607 761.711 982.607 758.494C982.607 755.277 981.329 752.191 979.054 749.916C976.779 747.641 973.693 746.363 970.476 746.363Z" fill="#2D4356"/>
<path d="M1006.87 770.625C1013.57 770.625 1019 765.194 1019 758.494C1019 751.794 1013.57 746.363 1006.87 746.363C1000.17 746.363 994.738 751.794 994.738 758.494C994.738 765.194 1000.17 770.625 1006.87 770.625Z" fill="#2D4356"/>
<path d="M716.659 794.887H666.268C663.219 795.131 660.373 796.515 658.298 798.763C656.223 801.011 655.07 803.958 655.07 807.018C655.07 810.077 656.223 813.024 658.298 815.272C660.373 817.52 663.219 818.904 666.268 819.149H716.659C719.708 818.904 722.554 817.52 724.629 815.272C726.704 813.024 727.856 810.077 727.856 807.018C727.856 803.958 726.704 801.011 724.629 798.763C722.554 796.515 719.708 795.131 716.659 794.887Z" fill="#1F7A63"/>
<path d="M352.731 794.887H302.34C299.291 795.131 296.445 796.515 294.37 798.763C292.295 801.011 291.143 803.958 291.143 807.018C291.143 810.077 292.295 813.024 294.37 815.272C296.445 817.52 299.291 818.904 302.34 819.149H352.731C355.78 818.904 358.626 817.52 360.701 815.272C362.776 813.024 363.929 810.077 363.929 807.018C363.929 803.958 362.776 801.011 360.701 798.763C358.626 796.515 355.78 795.131 352.731 794.887Z" fill="#1F7A63"/>
<path d="M630.809 794.887H388.19C384.972 794.887 381.887 796.165 379.612 798.44C377.337 800.715 376.059 803.801 376.059 807.018C376.059 810.235 377.337 813.321 379.612 815.596C381.887 817.871 384.972 819.149 388.19 819.149H484.873V831.28H436.713C433.496 831.28 430.41 832.558 428.135 834.833C425.86 837.108 424.582 840.193 424.582 843.411C424.582 846.628 425.86 849.714 428.135 851.989C430.41 854.264 433.496 855.542 436.713 855.542H588.35C591.568 855.542 594.653 854.264 596.928 851.989C599.203 849.714 600.481 846.628 600.481 843.411C600.481 840.193 599.203 837.108 596.928 834.833C594.653 832.558 591.568 831.28 588.35 831.28H534.125V819.149H630.809C634.026 819.149 637.111 817.871 639.386 815.596C641.661 813.321 642.94 810.235 642.94 807.018C642.94 803.801 641.661 800.715 639.386 798.44C637.111 796.165 634.026 794.887 630.809 794.887Z" fill="#1F7A63"/>
<path d="M914.197 746.363H895.568C896.964 742.471 897.682 738.367 897.69 734.232V709.97C897.69 706.753 896.412 703.668 894.137 701.393C891.862 699.118 888.777 697.839 885.56 697.839H133.44C130.223 697.839 127.138 699.118 124.863 701.393C122.588 703.668 121.31 706.753 121.31 709.97V734.232C121.318 738.367 122.036 742.471 123.432 746.363H104.803C103.078 746.138 101.324 746.283 99.6585 746.789C97.9934 747.296 96.4555 748.152 95.1475 749.3C93.8395 750.448 92.7916 751.862 92.0736 753.448C91.3557 755.033 90.9844 756.754 90.9844 758.494C90.9844 760.235 91.3557 761.955 92.0736 763.54C92.7916 765.126 93.8395 766.54 95.1475 767.688C96.4555 768.836 97.9934 769.692 99.6585 770.199C101.324 770.705 103.078 770.85 104.803 770.625H914.197C915.922 770.85 917.676 770.705 919.342 770.199C921.007 769.692 922.545 768.836 923.853 767.688C925.161 766.54 926.208 765.126 926.926 763.54C927.644 761.955 928.016 760.235 928.016 758.494C928.016 756.754 927.644 755.033 926.926 753.448C926.208 751.862 925.161 750.448 923.853 749.3C922.545 748.152 921.007 747.296 919.342 746.789C917.676 746.283 915.922 746.138 914.197 746.363ZM157.702 746.363C154.486 746.359 151.403 745.079 149.129 742.805C146.855 740.531 145.576 737.448 145.571 734.232V722.101H873.429V734.232C873.424 737.448 872.145 740.531 869.871 742.805C867.597 745.079 864.514 746.359 861.298 746.363H157.702Z" fill="#2D4356"/>
</g>
<defs>
<clipPath id="clip0_338_853">
<rect width="1019" height="1019" fill="white" transform="translate(0 -121)"/>
</clipPath>
</defs>
</svg>
