<svg width="555" height="409" viewBox="0 0 555 409" fill="none" xmlns="http://www.w3.org/2000/svg">
<path d="M508.75 0H46.25C20.7177 0.0316163 0.0316163 20.7177 0 46.25V397.75C0.0316163 423.282 20.7177 443.968 46.25 444H202.271L195.334 499.5H175.75C160.425 499.5 148 511.925 148 527.25C148 542.575 160.425 555 175.75 555H379.25C394.575 555 407 542.575 407 527.25C407 511.925 394.575 499.5 379.25 499.5H359.666L352.729 444H508.75C534.282 443.968 554.968 423.282 555 397.75V46.25C554.968 20.7177 534.282 0.0316163 508.75 0ZM46.25 18.5H508.75C524.075 18.5 536.5 30.9252 536.5 46.25V74H18.5V46.25C18.5 30.9252 30.9252 18.5 46.25 18.5ZM166.5 222H231.25V351.5H166.5V222ZM249.75 222H536.5V351.5H249.75V222ZM166.5 203.5V175.75C166.5 160.425 178.925 148 194.25 148H536.5V203.5H166.5ZM194.25 129.5C168.718 129.532 148.032 150.218 148 175.75V351.5H18.5V92.5H536.5V129.5H194.25ZM388.5 527.25C388.5 532.358 384.358 536.5 379.25 536.5H175.75C170.642 536.5 166.5 532.358 166.5 527.25C166.5 522.142 170.642 518 175.75 518H379.25C384.358 518 388.5 522.142 388.5 527.25ZM341.021 499.5H213.979L220.916 444H334.084L341.021 499.5ZM508.75 425.5H46.25C30.9252 425.5 18.5 413.075 18.5 397.75V370H536.5V397.75C536.5 413.075 524.075 425.5 508.75 425.5Z" fill="#2D9CDB"/>
<path d="M508.75 0H46.25C20.7177 0.0316163 0.0316163 20.7177 0 46.25V397.75C0.0316163 423.282 20.7177 443.968 46.25 444H202.271L195.334 499.5H175.75C160.425 499.5 148 511.925 148 527.25C148 542.575 160.425 555 175.75 555H379.25C394.575 555 407 542.575 407 527.25C407 511.925 394.575 499.5 379.25 499.5H359.666L352.729 444H508.75C534.282 443.968 554.968 423.282 555 397.75V46.25C554.968 20.7177 534.282 0.0316163 508.75 0ZM46.25 18.5H508.75C524.075 18.5 536.5 30.9252 536.5 46.25V74H18.5V46.25C18.5 30.9252 30.9252 18.5 46.25 18.5ZM166.5 222H231.25V351.5H166.5V222ZM249.75 222H536.5V351.5H249.75V222ZM166.5 203.5V175.75C166.5 160.425 178.925 148 194.25 148H536.5V203.5H166.5ZM194.25 129.5C168.718 129.532 148.032 150.218 148 175.75V351.5H18.5V92.5H536.5V129.5H194.25ZM388.5 527.25C388.5 532.358 384.358 536.5 379.25 536.5H175.75C170.642 536.5 166.5 532.358 166.5 527.25C166.5 522.142 170.642 518 175.75 518H379.25C384.358 518 388.5 522.142 388.5 527.25ZM341.021 499.5H213.979L220.916 444H334.084L341.021 499.5ZM508.75 425.5H46.25C30.9252 425.5 18.5 413.075 18.5 397.75V370H536.5V397.75C536.5 413.075 524.075 425.5 508.75 425.5Z" fill="black" fill-opacity="0.2"/>
<path d="M508.75 0H46.25C20.7177 0.0316163 0.0316163 20.7177 0 46.25V397.75C0.0316163 423.282 20.7177 443.968 46.25 444H202.271L195.334 499.5H175.75C160.425 499.5 148 511.925 148 527.25C148 542.575 160.425 555 175.75 555H379.25C394.575 555 407 542.575 407 527.25C407 511.925 394.575 499.5 379.25 499.5H359.666L352.729 444H508.75C534.282 443.968 554.968 423.282 555 397.75V46.25C554.968 20.7177 534.282 0.0316163 508.75 0ZM46.25 18.5H508.75C524.075 18.5 536.5 30.9252 536.5 46.25V74H18.5V46.25C18.5 30.9252 30.9252 18.5 46.25 18.5ZM166.5 222H231.25V351.5H166.5V222ZM249.75 222H536.5V351.5H249.75V222ZM166.5 203.5V175.75C166.5 160.425 178.925 148 194.25 148H536.5V203.5H166.5ZM194.25 129.5C168.718 129.532 148.032 150.218 148 175.75V351.5H18.5V92.5H536.5V129.5H194.25ZM388.5 527.25C388.5 532.358 384.358 536.5 379.25 536.5H175.75C170.642 536.5 166.5 532.358 166.5 527.25C166.5 522.142 170.642 518 175.75 518H379.25C384.358 518 388.5 522.142 388.5 527.25ZM341.021 499.5H213.979L220.916 444H334.084L341.021 499.5ZM508.75 425.5H46.25C30.9252 425.5 18.5 413.075 18.5 397.75V370H536.5V397.75C536.5 413.075 524.075 425.5 508.75 425.5Z" fill="black" fill-opacity="0.2"/>
<path d="M508.75 0H46.25C20.7177 0.0316163 0.0316163 20.7177 0 46.25V397.75C0.0316163 423.282 20.7177 443.968 46.25 444H202.271L195.334 499.5H175.75C160.425 499.5 148 511.925 148 527.25C148 542.575 160.425 555 175.75 555H379.25C394.575 555 407 542.575 407 527.25C407 511.925 394.575 499.5 379.25 499.5H359.666L352.729 444H508.75C534.282 443.968 554.968 423.282 555 397.75V46.25C554.968 20.7177 534.282 0.0316163 508.75 0ZM46.25 18.5H508.75C524.075 18.5 536.5 30.9252 536.5 46.25V74H18.5V46.25C18.5 30.9252 30.9252 18.5 46.25 18.5ZM166.5 222H231.25V351.5H166.5V222ZM249.75 222H536.5V351.5H249.75V222ZM166.5 203.5V175.75C166.5 160.425 178.925 148 194.25 148H536.5V203.5H166.5ZM194.25 129.5C168.718 129.532 148.032 150.218 148 175.75V351.5H18.5V92.5H536.5V129.5H194.25ZM388.5 527.25C388.5 532.358 384.358 536.5 379.25 536.5H175.75C170.642 536.5 166.5 532.358 166.5 527.25C166.5 522.142 170.642 518 175.75 518H379.25C384.358 518 388.5 522.142 388.5 527.25ZM341.021 499.5H213.979L220.916 444H334.084L341.021 499.5ZM508.75 425.5H46.25C30.9252 425.5 18.5 413.075 18.5 397.75V370H536.5V397.75C536.5 413.075 524.075 425.5 508.75 425.5Z" fill="black" fill-opacity="0.2"/>
<path d="M508.75 0H46.25C20.7177 0.0316163 0.0316163 20.7177 0 46.25V397.75C0.0316163 423.282 20.7177 443.968 46.25 444H202.271L195.334 499.5H175.75C160.425 499.5 148 511.925 148 527.25C148 542.575 160.425 555 175.75 555H379.25C394.575 555 407 542.575 407 527.25C407 511.925 394.575 499.5 379.25 499.5H359.666L352.729 444H508.75C534.282 443.968 554.968 423.282 555 397.75V46.25C554.968 20.7177 534.282 0.0316163 508.75 0ZM46.25 18.5H508.75C524.075 18.5 536.5 30.9252 536.5 46.25V74H18.5V46.25C18.5 30.9252 30.9252 18.5 46.25 18.5ZM166.5 222H231.25V351.5H166.5V222ZM249.75 222H536.5V351.5H249.75V222ZM166.5 203.5V175.75C166.5 160.425 178.925 148 194.25 148H536.5V203.5H166.5ZM194.25 129.5C168.718 129.532 148.032 150.218 148 175.75V351.5H18.5V92.5H536.5V129.5H194.25ZM388.5 527.25C388.5 532.358 384.358 536.5 379.25 536.5H175.75C170.642 536.5 166.5 532.358 166.5 527.25C166.5 522.142 170.642 518 175.75 518H379.25C384.358 518 388.5 522.142 388.5 527.25ZM341.021 499.5H213.979L220.916 444H334.084L341.021 499.5ZM508.75 425.5H46.25C30.9252 425.5 18.5 413.075 18.5 397.75V370H536.5V397.75C536.5 413.075 524.075 425.5 508.75 425.5Z" fill="black" fill-opacity="0.2"/>
</svg>
