<svg width="512" height="457" viewBox="0 0 512 457" fill="none" xmlns="http://www.w3.org/2000/svg">
<path fill-rule="evenodd" clip-rule="evenodd" d="M482.26 477.13H29.74C13.34 477.13 0 463.79 0 447.39V64.6101C0 48.2101 13.34 34.8701 29.74 34.8701H482.26C498.66 34.8701 512 48.2101 512 64.6101V447.39C512 463.79 498.66 477.13 482.26 477.13ZM29.74 46.8701C19.96 46.8701 12 54.8301 12 64.6101V447.39C12 457.17 19.96 465.13 29.74 465.13H482.26C492.04 465.13 500 457.17 500 447.39V64.6101C500 54.8301 492.04 46.8701 482.26 46.8701H29.74Z" fill="#F1F5F9"/>
<path fill-rule="evenodd" clip-rule="evenodd" d="M506 149.24H6C2.69 149.24 0 146.56 0 143.24C0 139.93 2.69 137.24 6 137.24H506C509.31 137.24 512 139.93 512 143.24C512 146.56 509.31 149.24 506 149.24Z" fill="#F1F5F9"/>
<path fill-rule="evenodd" clip-rule="evenodd" d="M91.6907 117.71H62.7507C55.1507 117.71 48.9707 111.53 48.9707 103.93V80.1801C48.9707 72.5801 55.1507 66.4001 62.7507 66.4001H91.6907C99.2907 66.4001 105.481 72.5801 105.481 80.1801V103.93C105.481 111.53 99.2907 117.71 91.6907 117.71ZM62.7507 78.4001C61.7807 78.4001 60.9707 79.2201 60.9707 80.1801V103.93C60.9707 104.9 61.7807 105.71 62.7507 105.71H91.6907C92.6607 105.71 93.4807 104.9 93.4807 103.93V80.1801C93.4807 79.2201 92.6607 78.4001 91.6907 78.4001H62.7507Z" fill="#F1F5F9"/>
<path fill-rule="evenodd" clip-rule="evenodd" d="M161.79 117.71H132.86C125.26 117.71 119.07 111.53 119.07 103.93V80.1801C119.07 72.5801 125.26 66.4001 132.86 66.4001H161.79C169.4 66.4001 175.58 72.5801 175.58 80.1801V103.93C175.58 111.53 169.4 117.71 161.79 117.71ZM132.86 78.4001C131.89 78.4001 131.07 79.2201 131.07 80.1801V103.93C131.07 104.9 131.89 105.71 132.86 105.71H161.79C162.76 105.71 163.58 104.9 163.58 103.93V80.1801C163.58 79.2201 162.76 78.4001 161.79 78.4001H132.86Z" fill="#F1F5F9"/>
<path fill-rule="evenodd" clip-rule="evenodd" d="M231.9 117.71H202.96C195.36 117.71 189.17 111.53 189.17 103.93V80.1801C189.17 72.5801 195.36 66.4001 202.96 66.4001H231.9C239.5 66.4001 245.68 72.5801 245.68 80.1801V103.93C245.68 111.53 239.5 117.71 231.9 117.71ZM202.96 78.4001C201.99 78.4001 201.17 79.2201 201.17 80.1801V103.93C201.17 104.9 201.99 105.71 202.96 105.71H231.9C232.87 105.71 233.68 104.9 233.68 103.93V80.1801C233.68 79.2201 232.87 78.4001 231.9 78.4001H202.96Z" fill="#F1F5F9"/>
<path fill-rule="evenodd" clip-rule="evenodd" d="M281.221 86.0601H461.491V98.0601H281.221V86.0601Z" fill="#F1F5F9"/>
<path fill-rule="evenodd" clip-rule="evenodd" d="M143.221 395.62C104.471 395.62 72.9609 355.95 72.9609 307.19V224.75C72.9609 221.44 75.6409 218.75 78.9509 218.75C82.2709 218.75 84.9509 221.44 84.9509 224.75V307.19C84.9509 327.79 91.2109 347.15 102.561 361.72C113.571 375.84 128.011 383.62 143.221 383.62C158.421 383.62 172.861 375.84 183.871 361.72C195.221 347.15 201.481 327.79 201.481 307.19V224.75C201.481 221.44 204.161 218.75 207.481 218.75C210.791 218.75 213.481 221.44 213.481 224.75V307.19C213.481 355.95 181.961 395.62 143.221 395.62Z" fill="#F1F5F9"/>
<path fill-rule="evenodd" clip-rule="evenodd" d="M433.051 395.68C431.511 395.68 429.981 395.09 428.811 393.92L263.821 228.94C261.481 226.59 261.481 222.8 263.821 220.45C266.171 218.11 269.971 218.11 272.311 220.45L437.291 385.44C439.631 387.78 439.631 391.58 437.291 393.92C436.121 395.09 434.581 395.68 433.051 395.68Z" fill="#F1F5F9"/>
<path fill-rule="evenodd" clip-rule="evenodd" d="M268.061 395.68C266.531 395.68 264.991 395.09 263.821 393.92C261.481 391.58 261.481 387.78 263.821 385.44L428.811 220.45C431.151 218.11 434.951 218.11 437.291 220.45C439.631 222.8 439.631 226.6 437.291 228.94L272.311 393.92C271.141 395.09 269.601 395.68 268.061 395.68Z" fill="#F1F5F9"/>
<path fill-rule="evenodd" clip-rule="evenodd" d="M446.65 187.81H65.3496C62.0396 187.81 59.3496 185.12 59.3496 181.81C59.3496 178.49 62.0396 175.81 65.3496 175.81H446.65C449.97 175.81 452.65 178.49 452.65 181.81C452.65 185.12 449.97 187.81 446.65 187.81Z" fill="#F1F5F9"/>
<path fill-rule="evenodd" clip-rule="evenodd" d="M446.65 438.54H65.3496C62.0396 438.54 59.3496 435.86 59.3496 432.54C59.3496 429.23 62.0396 426.54 65.3496 426.54H446.65C449.97 426.54 452.65 429.23 452.65 432.54C452.65 435.86 449.97 438.54 446.65 438.54Z" fill="#F1F5F9"/>
</svg>
