<svg width="512" height="415" viewBox="0 0 512 415" fill="none" xmlns="http://www.w3.org/2000/svg">
<path d="M429.954 137.619C428.438 133.323 426.607 129.145 424.475 125.119L424.125 125.557C419.819 131.248 414.749 136.318 409.058 140.624L401.306 146.511L388.862 139.079C387.871 139.516 386.851 139.953 385.831 140.332L382.276 154.408L372.659 155.72C365.592 156.682 358.427 156.682 351.359 155.72L341.713 154.408L338.186 140.332C337.166 139.953 336.146 139.516 335.126 139.079L322.682 146.511L314.959 140.624C309.268 136.318 304.198 131.248 299.892 125.557L294 117.831L301.432 105.387C300.995 104.367 300.558 103.347 300.179 102.327L286.1 98.7999L284.788 89.1539C283.818 82.087 283.818 74.9207 284.788 67.8539L286.1 58.2379L300.176 54.6829C300.555 53.6629 300.992 52.6429 301.429 51.6519L294 39.2029L296.39 36.0549C279.617 18.6941 257.929 6.88783 234.244 2.22502C210.559 -2.43778 186.014 0.266659 163.913 9.97437C141.811 19.6821 123.214 35.9271 110.623 56.5233C98.0326 77.1194 92.0534 101.078 93.4902 125.175C-20.1968 127.681 -40.3638 296.275 89.8772 296.275H158.6V241.975C157.225 241.787 155.931 241.212 154.87 240.318C151.552 237.793 148.407 235.047 145.457 232.1C142.415 229.039 139.581 225.777 136.976 222.337C136.109 221.198 135.604 219.826 135.526 218.397C135.448 216.968 135.801 215.549 136.539 214.323H136.51L143.39 202.838C142.049 200.414 140.852 197.913 139.805 195.348C138.748 192.794 137.824 190.187 137.036 187.538L124.068 184.274C122.604 183.903 121.294 183.081 120.321 181.926C119.349 180.771 118.763 179.34 118.647 177.834C118.385 175.794 118.181 173.783 118.035 171.801C117.889 169.557 117.802 167.401 117.802 165.36C117.802 163.319 117.889 161.16 118.035 158.92C118.181 156.82 118.414 154.665 118.705 152.45C118.901 151.03 119.516 149.701 120.472 148.632C121.427 147.563 122.679 146.804 124.068 146.45L137.036 143.186C137.824 140.537 138.748 137.93 139.805 135.376C140.852 132.811 142.049 130.31 143.39 127.886L136.512 116.404C135.741 115.109 135.397 113.605 135.527 112.103C135.658 110.602 136.257 109.18 137.24 108.038C139.759 104.714 142.505 101.568 145.459 98.6239C148.52 95.5726 151.781 92.7299 155.222 90.1149C156.364 89.2547 157.735 88.7537 159.162 88.6757C160.59 88.5977 162.008 88.9462 163.236 89.6769L174.718 96.5259C177.152 95.2123 179.652 94.0257 182.208 92.9709C184.759 91.9052 187.367 90.9808 190.019 90.2019L193.283 77.2329C193.654 75.7692 194.476 74.4588 195.631 73.4864C196.786 72.5141 198.218 71.9287 199.723 71.8129C201.763 71.5209 203.774 71.3169 205.756 71.2009C208 71.0259 210.156 70.9679 212.197 70.9679C214.238 70.9679 216.397 71.0259 218.637 71.2009C220.737 71.3469 222.892 71.5509 225.107 71.8709C226.529 72.0617 227.861 72.6748 228.93 73.6307C230 74.5866 230.758 75.8414 231.107 77.2329L234.371 90.2019C237.025 90.9762 239.633 91.9007 242.182 92.9709C244.741 94.02 247.241 95.2068 249.672 96.5259L261.154 89.6769C262.447 88.8994 263.952 88.5512 265.455 88.6821C266.957 88.8131 268.38 89.4165 269.518 90.4059C272.842 92.9241 275.987 95.6701 278.931 98.6239C281.99 101.678 284.833 104.94 287.441 108.387C288.302 109.528 288.804 110.9 288.881 112.328C288.959 113.755 288.61 115.174 287.878 116.402L281.03 127.884C282.341 130.303 283.536 132.809 284.614 135.374C285.662 137.928 286.576 140.535 287.354 143.184L300.322 146.448C301.786 146.809 303.099 147.623 304.072 148.775C305.046 149.926 305.631 151.356 305.743 152.86C306.034 154.929 306.243 156.94 306.355 158.922C306.53 161.166 306.588 163.322 306.588 165.362C306.588 167.402 306.53 169.562 306.355 171.803C306.209 173.903 306.005 176.058 305.685 178.244C305.503 179.669 304.893 181.006 303.936 182.077C302.978 183.148 301.718 183.904 300.322 184.244V184.273L287.357 187.538C286.575 190.185 285.66 192.792 284.617 195.348C283.539 197.913 282.344 200.419 281.033 202.838L287.881 214.321C288.658 215.613 289.006 217.119 288.875 218.621C288.744 220.123 288.142 221.546 287.153 222.685C282.011 229.448 275.96 235.47 269.171 240.579C268.187 241.33 267.02 241.807 265.791 241.961V296.271H445.983C552.151 282.927 518.025 137.648 429.954 137.619ZM83.5592 164.489C71.3957 166.673 60.2749 172.76 51.8802 181.829C43.8315 190.811 39.0649 202.255 38.3582 214.295C38.3044 215.243 38.0631 216.172 37.6482 217.026C37.2334 217.881 36.6532 218.645 35.9413 219.273C35.2294 219.902 34.3998 220.384 33.5006 220.69C32.6015 220.996 31.6505 221.121 30.7027 221.058C29.7549 220.994 28.8291 220.743 27.9789 220.32C27.1287 219.896 26.3709 219.308 25.7493 218.59C25.1278 217.871 24.6549 217.037 24.3579 216.135C24.0609 215.232 23.9458 214.28 24.0192 213.333C24.9386 198.071 31.0112 183.573 41.2432 172.212C51.7422 160.805 65.6801 153.14 80.9362 150.384C81.872 150.187 82.8378 150.178 83.7769 150.36C84.7159 150.541 85.6092 150.909 86.4041 151.44C87.1991 151.972 87.8797 152.657 88.4059 153.456C88.9321 154.255 89.2933 155.15 89.4682 156.091C89.6432 157.031 89.6283 157.997 89.4245 158.931C89.2206 159.866 88.832 160.75 88.2814 161.532C87.7309 162.314 87.0295 162.978 86.2185 163.485C85.4075 163.992 84.5033 164.331 83.5592 164.484V164.489ZM308.835 272.406H291.845C289.936 272.406 288.104 271.647 286.754 270.297C285.404 268.947 284.645 267.115 284.645 265.206C284.645 263.296 285.404 261.465 286.754 260.115C288.104 258.764 289.936 258.006 291.845 258.006H308.835C310.745 258.006 312.576 258.764 313.926 260.115C315.277 261.465 316.035 263.296 316.035 265.206C316.035 267.115 315.277 268.947 313.926 270.297C312.576 271.647 310.745 272.406 308.835 272.406ZM479.527 254.279C472.299 263.663 460.962 269.696 446.216 272.114L445.429 272.26C444.92 272.353 444.403 272.402 443.885 272.406H332.7C330.791 272.406 328.959 271.647 327.609 270.297C326.259 268.947 325.5 267.115 325.5 265.206C325.5 263.296 326.259 261.465 327.609 260.115C328.959 258.764 330.791 258.006 332.7 258.006H443.418L443.918 257.948C454.992 256.112 463.24 251.915 468.194 245.504C473.061 239.18 474.926 230.349 473.236 219.129L473.09 218.168C471.223 206.456 465.669 195.644 457.236 187.305C450.009 180.311 440.654 175.823 429.958 175.823C428.071 175.801 426.269 175.035 424.943 173.693C423.617 172.351 422.873 170.54 422.873 168.653C422.873 166.766 423.617 164.956 424.943 163.613C426.269 162.271 428.071 161.506 429.958 161.484C444.705 161.484 457.411 167.546 467.203 176.959C477.835 187.472 484.864 201.081 487.283 215.836L487.483 217.06C489.727 232.305 486.842 244.807 479.527 254.279ZM251.427 296.279H265.795V330.989H295.317C296.906 328.193 299.376 326.001 302.341 324.755C305.306 323.509 308.6 323.279 311.71 324.101C314.819 324.923 317.569 326.75 319.532 329.298C321.494 331.847 322.558 334.973 322.558 338.189C322.558 341.405 321.494 344.531 319.532 347.079C317.569 349.628 314.819 351.455 311.71 352.277C308.6 353.099 305.306 352.869 302.341 351.623C299.376 350.377 296.906 348.185 295.317 345.389H258.622C257.676 345.392 256.738 345.208 255.863 344.847C254.988 344.486 254.193 343.956 253.524 343.287C252.855 342.618 252.325 341.823 251.964 340.948C251.603 340.073 251.419 339.135 251.422 338.189L251.427 296.279ZM220.477 296.279H234.877V386.827C237.673 388.416 239.865 390.886 241.111 393.851C242.357 396.816 242.587 400.11 241.765 403.219C240.943 406.329 239.116 409.079 236.568 411.042C234.019 413.004 230.893 414.068 227.677 414.068C224.461 414.068 221.335 413.004 218.787 411.042C216.238 409.079 214.411 406.329 213.589 403.219C212.767 400.11 212.997 396.816 214.243 393.851C215.489 390.886 217.681 388.416 220.477 386.827V296.279ZM189.527 296.279H203.927V363.716C203.93 364.662 203.746 365.6 203.385 366.475C203.025 367.35 202.494 368.145 201.825 368.814C201.156 369.483 200.361 370.013 199.486 370.374C198.611 370.735 197.674 370.919 196.727 370.916H104.658C103.072 373.711 100.606 375.903 97.6434 377.149C94.6812 378.396 91.3897 378.627 88.2823 377.807C85.1749 376.987 82.4263 375.161 80.4651 372.615C78.5039 370.069 77.4403 366.946 77.4403 363.732C77.4403 360.518 78.5039 357.395 80.4651 354.849C82.4263 352.303 85.1749 350.477 88.2823 349.657C91.3897 348.837 94.6812 349.068 97.6434 350.314C100.606 351.561 103.072 353.753 104.658 356.548H189.523L189.527 296.279ZM305.892 68.0829L299.072 69.8029C298.256 75.5742 298.256 81.4316 299.072 87.2029L305.892 88.9229L311.516 90.3509C312.794 95.8326 314.96 101.068 317.928 105.851L314.955 110.805L311.341 116.867C314.869 121.502 319.006 125.639 323.641 129.167L329.703 125.554L334.686 122.581C339.457 125.555 344.685 127.721 350.161 128.993L351.589 134.617L353.309 141.466C359.082 142.253 364.936 142.253 370.709 141.466L372.429 134.617L373.829 128.993C379.315 127.728 384.553 125.561 389.329 122.581L394.312 125.554L400.345 129.167C404.996 125.648 409.143 121.51 412.672 116.867L409.029 110.805L406.086 105.822C409.048 101.045 411.213 95.8186 412.497 90.3469L418.097 88.9189L424.946 87.1989C425.762 81.4276 425.762 75.5702 424.946 69.7989L418.097 68.0789L412.497 66.6789C411.208 61.2011 409.043 55.9672 406.086 51.1789L409.029 46.2239L412.672 40.1619C409.159 35.5056 405.009 31.3652 400.345 27.8619L394.312 31.4759L389.329 34.4189C384.547 31.4675 379.322 29.3029 373.854 28.0079L372.426 22.4079L370.706 15.5599C364.935 14.7437 359.077 14.7437 353.306 15.5599L351.586 22.4079L350.158 28.0079C344.686 29.2921 339.46 31.4573 334.683 34.4189L329.7 31.4799L323.638 27.8659C318.989 31.3778 314.85 35.5172 311.338 40.1659L314.952 46.2279L317.925 51.1829C314.957 55.9652 312.791 61.2011 311.513 66.6829L305.892 68.0829ZM337.92 54.4149C343.492 48.8598 350.817 45.4077 358.648 44.6465C366.479 43.8854 374.332 45.8621 380.869 50.2402C387.406 54.6183 392.224 61.127 394.502 68.6581C396.779 76.1891 396.376 84.2768 393.361 91.5439C390.345 98.811 384.904 104.808 377.964 108.514C371.023 112.221 363.013 113.406 355.296 111.87C347.58 110.334 340.635 106.17 335.643 100.088C330.651 94.0067 327.922 86.3828 327.92 78.5149C327.917 74.0371 328.799 69.603 330.516 65.4671C332.232 61.3313 334.748 57.5753 337.92 54.4149ZM348.091 92.4149C344.876 89.1953 342.877 84.9606 342.434 80.4322C341.992 75.9039 343.133 71.3622 345.663 67.5809C348.194 63.7997 351.957 61.0129 356.312 59.6954C360.667 58.3779 365.345 58.6112 369.547 60.3556C373.749 62.1 377.216 65.2475 379.358 69.2618C381.5 73.2762 382.183 77.9089 381.292 82.3707C380.401 86.8325 377.99 90.8472 374.471 93.7309C370.951 96.6145 366.541 98.1886 361.991 98.1849C359.409 98.1851 356.852 97.6758 354.467 96.6862C352.081 95.6966 349.915 94.2461 348.091 92.4179V92.4149ZM237.405 140.155C243.244 145.988 246.88 153.665 247.692 161.878C248.505 170.091 246.444 178.332 241.862 185.196C237.279 192.06 230.458 197.122 222.561 199.52C214.664 201.918 206.179 201.503 198.554 198.347C190.928 195.19 184.633 189.486 180.742 182.208C176.85 174.93 175.603 166.528 177.213 158.433C178.822 150.338 183.189 143.052 189.569 137.817C195.949 132.581 203.947 129.72 212.2 129.721C216.882 129.715 221.518 130.633 225.843 132.424C230.169 134.214 234.098 136.842 237.405 140.155ZM272.989 217.384L266.753 206.892C265.97 205.747 265.537 204.399 265.506 203.013C265.474 201.626 265.847 200.261 266.578 199.082C268.408 196.135 269.997 193.046 271.328 189.843C272.652 186.664 273.704 183.378 274.475 180.022C274.774 178.725 275.425 177.536 276.355 176.585C277.286 175.634 278.461 174.958 279.75 174.631L291.99 171.542L292.02 170.842C292.136 169.152 292.194 167.316 292.194 165.363C292.194 163.41 292.136 161.575 292.02 159.855L291.99 159.155L279.925 156.124C278.607 155.825 277.399 155.16 276.44 154.207C275.482 153.253 274.811 152.049 274.505 150.732C273.724 147.365 272.661 144.071 271.328 140.882C269.997 137.679 268.408 134.59 266.578 131.644H266.607C265.907 130.524 265.528 129.232 265.512 127.911C265.497 126.59 265.845 125.29 266.519 124.154L272.989 113.342C271.678 111.797 270.279 110.282 268.763 108.795C267.277 107.28 265.763 105.881 264.217 104.57L253.725 110.838C252.575 111.61 251.227 112.034 249.842 112.06C248.457 112.086 247.093 111.712 245.915 110.984C242.969 109.154 239.88 107.565 236.677 106.234C233.506 104.915 230.231 103.862 226.885 103.087C225.585 102.789 224.391 102.139 223.435 101.208C222.479 100.278 221.798 99.1026 221.464 97.8109L218.404 85.5709L217.704 85.5419C215.984 85.4249 214.177 85.3669 212.196 85.3669C210.243 85.3669 208.407 85.4249 206.717 85.5419L206.017 85.5709L202.957 97.6369C202.668 98.9553 202.011 100.165 201.062 101.124C200.113 102.084 198.91 102.754 197.595 103.057C194.22 103.842 190.915 104.905 187.715 106.234C184.513 107.565 181.423 109.154 178.477 110.984V110.955C177.365 111.661 176.077 112.044 174.759 112.059C173.441 112.075 172.145 111.723 171.016 111.043L160.175 104.573C158.63 105.884 157.115 107.283 155.629 108.798C154.142 110.285 152.714 111.798 151.403 113.345L157.67 123.838C158.448 124.986 158.876 126.335 158.902 127.722C158.928 129.109 158.55 130.473 157.815 131.649C155.997 134.602 154.409 137.69 153.065 140.887C151.759 144.063 150.707 147.337 149.918 150.679C149.625 151.981 148.977 153.177 148.046 154.134C147.115 155.091 145.937 155.771 144.643 156.1L132.432 159.16L132.373 159.86C132.257 161.58 132.199 163.416 132.199 165.368C132.199 167.321 132.257 169.157 132.373 170.847L132.432 171.547L144.497 174.607C145.81 174.901 147.013 175.56 147.967 176.509C148.921 177.458 149.587 178.658 149.888 179.969C151.467 186.732 154.145 193.191 157.815 199.087C158.51 200.205 158.884 201.493 158.894 202.809C158.905 204.125 158.552 205.419 157.874 206.548L151.404 217.389C152.715 218.933 154.143 220.449 155.63 221.935C157.117 223.421 158.63 224.849 160.176 226.161L170.667 219.895C171.815 219.116 173.164 218.688 174.551 218.662C175.938 218.636 177.302 219.014 178.478 219.749C181.431 221.585 184.531 223.174 187.745 224.5C190.913 225.827 194.189 226.88 197.537 227.647C198.836 227.942 200.027 228.591 200.979 229.522C201.931 230.453 202.606 231.63 202.929 232.922L206.018 245.133C208.029 245.279 210.098 245.366 212.197 245.366C214.296 245.366 216.364 245.279 218.404 245.133L220.617 236.325C220.64 236.208 220.674 236.095 220.703 235.98L221.435 233.068C221.736 231.753 222.401 230.55 223.355 229.596C224.308 228.642 225.511 227.977 226.826 227.676C233.579 226.092 240.027 223.414 245.915 219.749C247.038 219.054 248.331 218.68 249.652 218.67C250.973 218.66 252.271 219.013 253.405 219.691L264.217 226.161C265.762 224.849 267.277 223.422 268.763 221.935C270.279 220.444 271.678 218.928 272.989 217.384ZM247.576 200.743C239.391 208.925 228.622 214.015 217.105 215.148C205.587 216.28 194.033 213.384 184.412 206.953C174.79 200.522 167.696 190.954 164.337 179.878C160.979 168.803 161.565 156.906 165.995 146.215C170.425 135.523 178.425 126.698 188.632 121.243C198.839 115.788 210.621 114.041 221.972 116.3C233.323 118.558 243.539 124.682 250.881 133.628C258.222 142.575 262.235 153.79 262.235 165.363C262.237 171.934 260.944 178.442 258.429 184.513C255.913 190.583 252.225 196.099 247.576 200.743ZM251.423 235.218V296.274H234.87V240.362C237.352 239.608 239.808 238.738 242.185 237.755C244.75 236.708 247.251 235.511 249.675 234.17L251.423 235.218ZM220.473 259.368V296.274H203.92V259.374C206.72 259.626 209.482 259.762 212.197 259.762C214.912 259.762 217.681 259.618 220.473 259.368ZM189.523 240.362V296.274H173V235.2L174.719 234.17C177.146 235.505 179.647 236.702 182.209 237.755C184.612 238.738 187.05 239.607 189.523 240.362ZM158.6 296.274H173V332.791C172.996 334.699 172.237 336.529 170.887 337.878C169.538 339.227 167.709 339.987 165.8 339.991H123.368C121.459 339.991 119.627 339.232 118.277 337.882C116.927 336.532 116.168 334.7 116.168 332.791C116.168 330.881 116.927 329.05 118.277 327.7C119.627 326.349 121.459 325.591 123.368 325.591H158.6V296.274Z" fill="#F0F6FF"/>
</svg>
